<?xml version="1.0" standalone="no"?>
<!DOCTYPE svg PUBLIC "-//W3C//DTD SVG 1.1//EN" "http://www.w3.org/Graphics/SVG/1.1/DTD/svg11.dtd" >
<svg>
<metadata>
Created by FontForge 20090914 at Sat Jun  4 03:02:19 2016
 By www-data
Copyright (c) 2010 by Typemade. All rights reserved.
</metadata>
<defs>
<font id="JosefinSans-Thin" horiz-adv-x="510" >
  <font-face 
    font-family="Josefin Sans"
    font-weight="250"
    font-stretch="normal"
    units-per-em="1000"
    panose-1="0 0 0 0 0 0 0 0 0 0"
    ascent="750"
    descent="-250"
    x-height="375"
    cap-height="700"
    bbox="-60.999 -233 948.998 931.001"
    underline-thickness="50"
    underline-position="-50"
    unicode-range="U+000D-U+FB02"
  />
<missing-glyph horiz-adv-x="300" 
 />
    <glyph glyph-name=".notdef" horiz-adv-x="300" 
 />
    <glyph glyph-name=".null" horiz-adv-x="0" 
 />
    <glyph glyph-name=".null" horiz-adv-x="0" 
 />
    <glyph glyph-name="nonmarkingreturn" unicode="&#xd;" horiz-adv-x="300" 
 />
    <glyph glyph-name="space" unicode=" " horiz-adv-x="262" 
 />
    <glyph glyph-name="exclam" unicode="!" horiz-adv-x="226" 
d="M113 36c-4.66699 0 -9 2 -13 6s-6 8.66699 -6 14c0 6 2 10.833 6 14.5s8.33301 5.5 13 5.5c5.33301 0 10 -1.83301 14 -5.5s6 -8.5 6 -14.5c0 -5.33301 -2 -10 -6 -14s-8.66699 -6 -14 -6zM106 750h14v-584h-14v584z" />
    <glyph glyph-name="quotedbl" unicode="&#x22;" horiz-adv-x="312" 
d="M215 472v248h18l-2 -124l-2 -124h-14zM82 472v248h18l-2 -124l-2 -124h-14z" />
    <glyph glyph-name="numbersign" unicode="#" horiz-adv-x="575" 
d="M203 407l-10 -84l-10 -84h170l10 84l10 84h-170zM325 0c4.66699 38 9 75.5 13 112.5s8.33301 74.5 13 112.5h-170c-4.66699 -38 -9 -75.5 -13 -112.5s-8.33301 -74.5 -13 -112.5h-14c4.66699 38 9 75.5 13 112.5s8.33301 74.5 13 112.5h-117c0 2.66699 0.166992 5 0.5 7
s0.5 4.33301 0.5 7h118l10 84l10 84h-116c0 2.66699 0.166992 5 0.5 7s0.5 4.33301 0.5 7h117l27 222h14l-27 -222h170l27 222h14l-27 -222h136c0 -2.66699 -0.166992 -5 -0.5 -7s-0.5 -4.33301 -0.5 -7h-137l-10 -84l-10 -84h135c0 -2.66699 -0.166992 -5 -0.5 -7
s-0.5 -4.33301 -0.5 -7h-136c-4.66699 -38 -9 -75.5 -13 -112.5s-8.33301 -74.5 -13 -112.5h-14z" />
    <glyph glyph-name="dollar" unicode="$" horiz-adv-x="522" 
d="M259 764v-832h-14v832h14zM434 667l-6.00781 -11.0049c-9.33301 4 -20.166 8 -32.499 12s-25.5 7.83301 -39.5 11.5s-28.5 6.5 -43.5 8.5s-29.833 3 -44.5 3c-27.333 0 -52 -3.83301 -74 -11.5s-40.667 -18.167 -56 -31.5s-27.166 -28.833 -35.499 -46.5
s-12.5 -36.167 -12.5 -55.5c0 -31.333 9.33301 -56 28 -74s42.167 -33.333 70.5 -46s58.833 -24.5 91.5 -35.5s63.167 -24.5 91.5 -40.5s51.833 -36.667 70.5 -62s28 -58.666 28 -99.999c0 -30.667 -5.5 -58 -16.5 -82s-26.167 -44.5 -45.5 -61.5s-42.166 -30 -68.499 -39
s-55.166 -13.5 -86.499 -13.5c-27.333 0 -52.5 3 -75.5 9s-43.333 13 -61 21s-32.5 16 -44.5 24s-21 13.667 -27 17l8 13c10 -7.33301 22.333 -15 37 -23s30.834 -15.5 48.501 -22.5s36.5 -12.833 56.5 -17.5s40.333 -7 61 -7c24.667 0 49 3.66699 73 11
s45.333 18.5 64 33.5s33.834 33.833 45.501 56.5s17.5 49.334 17.5 80.001c0 39.333 -9.33301 71 -28 95s-42.167 43.667 -70.5 59s-58.833 28.333 -91.5 39s-63.167 22.5 -91.5 35.5s-51.833 29.333 -70.5 49s-28 45.834 -28 78.501c0 22.667 4.83301 43.834 14.5 63.501
s22.834 36.834 39.501 51.501s36.334 26 59.001 34s47 12 73 12c12 0 25.5 -0.833008 40.5 -2.5s30.167 -4.16699 45.5 -7.5s30.5 -7.33301 45.5 -12s28.5 -9.66699 40.5 -15z" />
    <glyph glyph-name="percent" unicode="%" horiz-adv-x="630" 
d="M373 112c0 -13.333 2.5 -25.666 7.5 -36.999s11.833 -21.166 20.5 -29.499s18.834 -15 30.501 -20s24.167 -7.5 37.5 -7.5s25.833 2.5 37.5 7.5s21.834 11.667 30.501 20s15.5 18.166 20.5 29.499s7.5 23.666 7.5 36.999c0 12.667 -2.5 24.834 -7.5 36.501
s-11.833 21.834 -20.5 30.501s-18.834 15.5 -30.501 20.5s-24.167 7.5 -37.5 7.5s-25.833 -2.5 -37.5 -7.5s-21.834 -11.833 -30.501 -20.5s-15.5 -18.834 -20.5 -30.501s-7.5 -23.834 -7.5 -36.501zM469 4c-15.333 0 -29.666 2.83301 -42.999 8.5s-25 13.334 -35 23.001
s-17.833 21.167 -23.5 34.5s-8.5 27.666 -8.5 42.999c0 14.667 2.83301 28.667 8.5 42s13.5 24.833 23.5 34.5s21.667 17.334 35 23.001s27.666 8.5 42.999 8.5c14.667 0 28.667 -2.83301 42 -8.5s25 -13.334 35 -23.001s18 -21.167 24 -34.5s9 -27.333 9 -42
c0 -15.333 -3 -29.666 -9 -42.999s-14 -24.833 -24 -34.5s-21.667 -17.334 -35 -23.001s-27.333 -8.5 -42 -8.5zM69 388c0 -13.333 2.5 -25.666 7.5 -36.999s11.833 -21.166 20.5 -29.499s18.834 -15 30.501 -20s24.167 -7.5 37.5 -7.5s25.833 2.5 37.5 7.5
s21.834 11.667 30.501 20s15.5 18.166 20.5 29.499s7.5 23.666 7.5 36.999c0 12.667 -2.5 24.834 -7.5 36.501s-11.833 21.834 -20.5 30.501s-18.834 15.5 -30.501 20.5s-24.167 7.5 -37.5 7.5s-25.833 -2.5 -37.5 -7.5s-21.834 -11.833 -30.501 -20.5
s-15.5 -18.834 -20.5 -30.501s-7.5 -23.834 -7.5 -36.501zM165 280c-15.333 0 -29.666 2.83301 -42.999 8.5s-25 13.334 -35 23.001s-17.833 21.167 -23.5 34.5s-8.5 27.666 -8.5 42.999c0 14.667 2.83301 28.667 8.5 42s13.5 24.833 23.5 34.5s21.667 17.334 35 23.001
s27.666 8.5 42.999 8.5c14.667 0 28.667 -2.83301 42 -8.5s25 -13.334 35 -23.001s18 -21.167 24 -34.5s9 -27.333 9 -42c0 -15.333 -3 -29.666 -9 -42.999s-14 -24.833 -24 -34.5s-21.667 -17.334 -35 -23.001s-27.333 -8.5 -42 -8.5zM155 0l149 250l149 250h16l-149 -250
l-149 -250h-16z" />
    <glyph glyph-name="ampersand" unicode="&#x26;" horiz-adv-x="641" 
d="M578 0h-18.001l-385 497c-8 14 -15.167 28.833 -21.5 44.5s-9.5 34.167 -9.5 55.5c0 22.667 4.16699 43.334 12.5 62.001s19.5 34.667 33.5 48s30.5 23.5 49.5 30.5s39.167 10.5 60.5 10.5c26 0 50.333 -4.5 73 -13.5s42.334 -18.5 59.001 -28.5l-3 -4.5l-3 -4.5
c-20 11.333 -40.5 20.666 -61.5 27.999s-42.167 11 -63.5 11c-20 0 -38.667 -3.33301 -56 -10s-32.333 -16 -45 -28s-22.667 -26.167 -30 -42.5s-11 -34.5 -11 -54.5c0 -13.333 1.5 -26 4.5 -38s6.16699 -22.333 9.5 -31c4 -10.667 9 -20 15 -28zM493.999 103
c-8.66699 -16 -20.168 -30.667 -34.501 -44s-31 -24.833 -50 -34.5s-39.5 -17.167 -61.5 -22.5s-45 -8 -69 -8c-33.333 0 -63.666 5 -90.999 15s-51 23.833 -71 41.5s-35.5 38.167 -46.5 61.5s-16.5 48 -16.5 74c0 28 6.16699 53.833 18.5 77.5s28.666 44.334 48.999 62.001
s43.666 31.5 69.999 41.5s53.5 15.667 81.5 17l4 -15c-23.333 0 -47.166 -4.5 -71.499 -13.5s-46.5 -21.5 -66.5 -37.5s-36.333 -35.333 -49 -58s-19 -48 -19 -76c0 -26 5.5 -49.833 16.5 -71.5s26 -40.334 45 -56.001s41.167 -27.667 66.5 -36s52 -12.5 80 -12.5
c23.333 0 46 3 68 9s42 14 60 24s33.833 21.667 47.5 35s23.834 27.333 30.501 42zM484.998 118l99 266h17l-106 -280z" />
    <glyph glyph-name="quotesingle" unicode="'" horiz-adv-x="179" 
d="M82 472v248h18l-2 -124l-2 -124h-14z" />
    <glyph glyph-name="parenleft" unicode="(" horiz-adv-x="252" 
d="M53 292c0 50 4.66699 97.667 14 143s21.666 87.333 36.999 126s32.833 73.834 52.5 105.501s40.167 58.5 61.5 80.5c0.666992 -4 1.16699 -7.83301 1.5 -11.5s0.833008 -7.5 1.5 -11.5c-19.333 -22 -38.166 -48 -56.499 -78s-34.833 -63.333 -49.5 -100
s-26.334 -76.334 -35.001 -119.001s-13 -87.667 -13 -135s4.33301 -92.333 13 -135s20.334 -82.334 35.001 -119.001s31.167 -70 49.5 -100s37.166 -56 56.499 -78c-0.666992 -4 -1.16699 -7.83301 -1.5 -11.5s-0.833008 -7.5 -1.5 -11.5
c-21.333 22 -41.833 48.833 -61.5 80.5s-37.167 66.834 -52.5 105.501s-27.666 80.667 -36.999 126s-14 93 -14 143z" />
    <glyph glyph-name="parenright" unicode=")" horiz-adv-x="252" 
d="M199 292c0 -50 -4.66699 -97.667 -14 -143s-21.666 -87.333 -36.999 -126s-33 -73.834 -53 -105.501s-40.333 -58.5 -61 -80.5c-0.666992 4 -1.16699 7.83301 -1.5 11.5s-0.833008 7.5 -1.5 11.5c19.333 22 38.166 48 56.499 78s34.833 63.333 49.5 100
s26.334 76.334 35.001 119.001s13 87.667 13 135s-4.33301 92.333 -13 135s-20.334 82.334 -35.001 119.001s-31.167 70 -49.5 100s-37.166 56 -56.499 78c0.666992 4 1.16699 7.83301 1.5 11.5s0.833008 7.5 1.5 11.5c20.667 -22 41 -48.833 61 -80.5
s37.667 -66.834 53 -105.501s27.666 -80.667 36.999 -126s14 -93 14 -143z" />
    <glyph glyph-name="asterisk" unicode="*" horiz-adv-x="424" 
d="M227 575l56 -32.002l56 -32l-9 -15l-111 66c-0.666992 -21.333 -1 -42.666 -1 -63.999s-0.333008 -42.666 -1 -63.999h-14v127l-55 -31.5l-55 -31.5l-9 15l111 63l-111 66c1.33301 2 2.5 4 3.5 6s2.16699 4 3.5 6l56 -32.5l56 -32.5v131h18
c-0.666992 -22 -1 -43.833 -1 -65.5s-0.333008 -43.5 -1 -65.5l57 32l57 32c1.33301 -2 2.5 -4 3.5 -6s2.16699 -4 3.5 -6l-56.5 -33z" />
    <glyph glyph-name="plus" unicode="+" horiz-adv-x="480" 
d="M233 51v174h-173v14h173v172h14v-172h173v-14h-173v-174h-14z" />
    <glyph glyph-name="comma" unicode="," horiz-adv-x="230" 
d="M145 86l-43 -103l-43 -103h-14l38.5 103l38.5 103h23z" />
    <glyph glyph-name="hyphen" unicode="-" horiz-adv-x="328" 
d="M72 184v14h184v-14h-184z" />
    <glyph glyph-name="period" unicode="." horiz-adv-x="184" 
d="M72 20c0 5.33301 2 10 6 14s8.66699 6 14 6s10 -2 14 -6s6 -8.66699 6 -14s-2 -10 -6 -14s-8.66699 -6 -14 -6s-10 2 -14 6s-6 8.66699 -6 14z" />
    <glyph glyph-name="slash" unicode="/" horiz-adv-x="386" 
d="M47 -19l139 377.5l139 377.5h14l-139 -377.5l-139 -377.5h-14z" />
    <glyph glyph-name="zero" unicode="0" horiz-adv-x="671" 
d="M67 327c0 32 4.83398 67.168 14.501 105.501s25.167 74.333 46.5 108s49.333 61.667 84 84s77 33.5 127 33.5c49.333 0 91 -11.5 125 -34.5s61.333 -51.333 82 -85s35.5 -69.834 44.5 -108.501s13.5 -74 13.5 -106c0 -46 -7.33301 -89.167 -22 -129.5
s-34.334 -75.5 -59.001 -105.5s-53.5 -53.5 -86.5 -70.5s-67.833 -25.5 -104.5 -25.5s-71.167 8.83301 -103.5 26.5s-60.5 41.5 -84.5 71.5s-42.833 65.167 -56.5 105.5s-20.5 83.833 -20.5 130.5zM82.001 328.001c0 -48.667 7.00195 -92.668 21.002 -132.001
s32.667 -73 56 -101s50.333 -49.667 81 -65s62 -23 94 -23s63.333 7.33301 94 22s58 35.667 82 63s43.333 60.666 58 99.999s22 83 22 131c0 48.667 -6.33301 92.834 -19 132.501s-30.334 73.334 -53.001 101.001s-49.334 49.167 -80.001 64.5s-64 23 -100 23
s-69.5 -7.16699 -100.5 -21.5s-58 -35.333 -81 -63s-41.167 -61 -54.5 -100s-20 -82.833 -20 -131.5z" />
    <glyph glyph-name="one" unicode="1" horiz-adv-x="285" 
d="M34 636v14h127v-650h-14v636h-113z" />
    <glyph glyph-name="two" unicode="2" horiz-adv-x="506" 
d="M103 14l360.002 -0.00292969v-14h-396l125 122.5c40.667 40.333 76.5 79.666 107.5 117.999s56 75.333 75 111s28.5 69.167 28.5 100.5c0 37.333 -5.33301 68.333 -16 93s-24 44.334 -40 59.001s-33.333 25 -52 31s-36.334 9 -53.001 9
c-33.333 0 -60.5 -5.83301 -81.5 -17.5s-37.667 -26.334 -50 -44.001s-20.833 -36.667 -25.5 -57s-7 -39.166 -7 -56.499c0 -47.333 13.333 -85.333 40 -114c-1.33301 -1.33301 -2.83301 -2.66602 -4.5 -3.99902s-3.16699 -2.66602 -4.5 -3.99902c-14 16 -25 33.5 -33 52.5
s-12 42.167 -12 69.5c0 26.667 3.83301 51.5 11.5 74.5s19 43 34 60s33.667 30.333 56 40s47.833 14.5 76.5 14.5c26 0 49.667 -4.83301 71 -14.5s39.833 -23.167 55.5 -40.5s27.667 -37.833 36 -61.5s12.5 -49.5 12.5 -77.5c0 -38.667 -9.83301 -77.167 -29.5 -115.5
s-44.834 -76.166 -75.501 -113.499s-64.5 -74.5 -101.5 -111.5z" />
    <glyph glyph-name="three" unicode="3" horiz-adv-x="483" 
d="M149 361l106.001 137.501l106 137.5h-287v14h319l-99.5 -126l-99.5 -126c30 1.33301 58.5 -2.83398 85.5 -12.501s50.667 -23.5 71 -41.5s36.5 -39.833 48.5 -65.5s18 -53.5 18 -83.5c0 -28 -5.33301 -54.333 -16 -79s-25.334 -46.167 -44.001 -64.5
s-40.334 -32.833 -65.001 -43.5s-51 -16 -79 -16c-30 0 -57.667 6 -83 18s-47.333 28 -66 48c1.33301 2 3 4.16699 5 6.5s3.66699 4.5 5 6.5c16 -19.333 35.667 -35 59 -47s49 -18 77 -18c26 0 50.833 5 74.5 15s44.167 23.667 61.5 41s31.166 37.5 41.499 60.5
s15.5 47.167 15.5 72.5c0 26 -5.16699 50.5 -15.5 73.5s-24.166 43 -41.499 60s-37.833 30.5 -61.5 40.5s-48.5 15 -74.5 15c-10.667 0 -21.167 -2 -31.5 -6s-20.166 -9.66699 -29.499 -17z" />
    <glyph glyph-name="four" unicode="4" horiz-adv-x="529" 
d="M376 617l-161 -210l-161 -210h322v420zM24 183l183 237.5l183 237.5v-461h97v-14h-97v-183h-14v183h-352z" />
    <glyph glyph-name="five" unicode="5" horiz-adv-x="474" 
d="M95 341l0.000976562 309h287v-14h-273v-264c15.333 7.33301 31.166 13 47.499 17s33.166 6 50.499 6c28 0 54.5 -5.16699 79.5 -15.5s46.667 -24.5 65 -42.5s33 -39.167 44 -63.5s16.5 -50.5 16.5 -78.5s-5.5 -54.333 -16.5 -79s-25.667 -46.167 -44 -64.5
s-40 -32.833 -65 -43.5s-51.5 -16 -79.5 -16c-27.333 0 -52.833 5 -76.5 15s-44.834 23.667 -63.501 41c2 1.33301 3.83301 3 5.5 5s3.5 3.66699 5.5 5c16 -16.667 34.833 -29.5 56.5 -38.5s45.167 -13.5 70.5 -13.5c26.667 0 51.667 5 75 15s43.666 23.667 60.999 41
s31.166 37.5 41.499 60.5s15.5 47.167 15.5 72.5c0 26 -5.16699 50.167 -15.5 72.5s-24.166 42 -41.499 59s-37.666 30.333 -60.999 40s-48.333 14.5 -75 14.5c-23.333 0 -44.666 -3.83301 -63.999 -11.5s-34.666 -17.167 -45.999 -28.5z" />
    <glyph glyph-name="six" unicode="6" horiz-adv-x="530" 
d="M76 193c0 -26 5 -50.333 15 -73s23.5 -42.5 40.5 -59.5s37.167 -30.333 60.5 -40s48 -14.5 74 -14.5s50.667 4.83301 74 14.5s43.666 23 60.999 40s31 36.833 41 59.5s15 47 15 73s-5 50.333 -15 73s-23.667 42.5 -41 59.5s-37.666 30.5 -60.999 40.5s-48 15 -74 15
s-50.667 -5 -74 -15s-43.5 -23.5 -60.5 -40.5s-30.5 -36.833 -40.5 -59.5s-15 -47 -15 -73zM63 193c0 48.667 10.333 93.8311 31 135.498s47 80.5 79 116.5s67.667 69.5 107 100.5l115 87.5c1.33301 -2 3 -4.16699 5 -6.5s3.66699 -4.5 5 -6.5
c-44.667 -29.333 -84 -58.333 -118 -87s-63.167 -56.167 -87.5 -82.5s-44.333 -51 -60 -74s-27.5 -43.833 -35.5 -62.5c18.667 24.667 42 44.334 70 59.001s59 22 93 22c28 0 54.5 -5.33301 79.5 -16s46.667 -25.167 65 -43.5s32.833 -39.666 43.5 -63.999
s16 -50.5 16 -78.5s-5.33301 -54.167 -16 -78.5s-25.167 -45.5 -43.5 -63.5s-40 -32.333 -65 -43s-51.5 -16 -79.5 -16s-54.5 5.33301 -79.5 16s-46.667 25 -65 43s-32.833 39.167 -43.5 63.5s-16 50.5 -16 78.5z" />
    <glyph glyph-name="seven" unicode="7" horiz-adv-x="459" 
d="M39 636v14h401l-146 -325l-146 -325h-18l143.5 318l143.5 318h-378z" />
    <glyph glyph-name="eight" unicode="8" horiz-adv-x="533" 
d="M133 511c0 -16.667 3.33301 -32 10 -46s16 -26.167 28 -36.5s26 -18.333 42 -24s33.333 -8.5 52 -8.5c18 0 34.833 2.83301 50.5 8.5s29.334 13.667 41.001 24s20.667 22.5 27 36.5s9.5 29.333 9.5 46c0 18 -3.16699 35 -9.5 51s-15.333 30 -27 42
s-25.334 21.667 -41.001 29s-32.5 11 -50.5 11c-18.667 0 -36 -3.66699 -52 -11s-30 -17 -42 -29s-21.333 -26 -28 -42s-10 -33 -10 -51zM78 195c0 -25.333 4.83301 -49.5 14.5 -72.5s22.834 -43.167 39.501 -60.5s36.334 -31.166 59.001 -41.499s47 -15.5 73 -15.5
c26.667 0 51.667 5.16699 75 15.5s43.666 24.166 60.999 41.499s31.166 37.5 41.499 60.5s15.5 47.167 15.5 72.5c0 26 -5.16699 50.167 -15.5 72.5s-24.166 42 -41.499 59s-37.666 30.333 -60.999 40s-48.333 14.5 -75 14.5c-26 0 -50.333 -4.83301 -73 -14.5
s-42.334 -23 -59.001 -40s-29.834 -36.667 -39.501 -59s-14.5 -46.5 -14.5 -72.5zM64 195c0 23.333 3.83301 45.499 11.5 66.499s18.167 40 31.5 57s29.166 31.667 47.499 44s38.5 21.166 60.5 26.499c-28 9.33301 -51 25.5 -69 48.5s-27 49.833 -27 80.5
c0 19.333 3.83301 37.5 11.5 54.5s18 31.833 31 44.5s28.167 22.667 45.5 30s36 11 56 11s38.667 -3.83301 56 -11.5s32.5 -18 45.5 -31s23.333 -28.167 31 -45.5s11.5 -36 11.5 -56c0 -29.333 -8.5 -55.166 -25.5 -77.499s-39.167 -38.166 -66.5 -47.499
c22 -5.33301 42.5 -14 61.5 -26s35.5 -26.5 49.5 -43.5s25 -36 33 -57s12 -43.5 12 -67.5c0 -28 -5.5 -54.333 -16.5 -79s-25.667 -46.167 -44 -64.5s-40 -32.833 -65 -43.5s-51.5 -16 -79.5 -16s-54.167 5.33301 -78.5 16s-45.666 25.167 -63.999 43.5
s-32.833 39.833 -43.5 64.5s-16 51 -16 79z" />
    <glyph glyph-name="nine" unicode="9" horiz-adv-x="530" 
d="M454 432c0 26 -5 50.333 -15 73s-23.5 42.5 -40.5 59.5s-37.167 30.333 -60.5 40s-48 14.5 -74 14.5s-50.667 -4.83301 -74 -14.5s-43.666 -23 -60.999 -40s-31 -36.833 -41 -59.5s-15 -47 -15 -73s5 -50.5 15 -73.5s23.667 -43 41 -60s37.666 -30.333 60.999 -40
s48 -14.5 74 -14.5s50.667 4.83301 74 14.5s43.5 23 60.5 40s30.5 37 40.5 60s15 47.5 15 73.5zM467 432c0 -48.667 -10.333 -93.8311 -31 -135.498s-47 -80.5 -79 -116.5s-67.667 -69.5 -107 -100.5l-115 -87.5c-1.33301 2 -3 4.16699 -5 6.5s-3.66699 4.5 -5 6.5
c44.667 29.333 84 58.333 118 87s63.167 56.167 87.5 82.5s44.333 51 60 74s27.5 43.833 35.5 62.5c-18.667 -24.667 -42 -44.334 -70 -59.001s-59 -22 -93 -22c-28 0 -54.5 5.33301 -79.5 16s-46.667 25.167 -65 43.5s-32.833 39.666 -43.5 63.999s-16 50.5 -16 78.5
s5.33301 54.167 16 78.5s25.167 45.5 43.5 63.5s40 32.333 65 43s51.5 16 79.5 16s54.5 -5.33301 79.5 -16s46.667 -25 65 -43s32.833 -39.167 43.5 -63.5s16 -50.5 16 -78.5z" />
    <glyph glyph-name="colon" unicode=":" horiz-adv-x="184" 
d="M72 270c0 5.33301 2 10 6 14s8.66699 6 14 6s10 -2 14 -6s6 -8.66699 6 -14s-2 -10 -6 -14s-8.66699 -6 -14 -6s-10 2 -14 6s-6 8.66699 -6 14zM72 20c0 5.33301 2 10 6 14s8.66699 6 14 6s10 -2 14 -6s6 -8.66699 6 -14s-2 -10 -6 -14s-8.66699 -6 -14 -6s-10 2 -14 6
s-6 8.66699 -6 14z" />
    <glyph glyph-name="semicolon" unicode=";" horiz-adv-x="225" 
d="M112 270c0 5.33301 2 10 6 14s8.66699 6 14 6s10 -2 14 -6s6 -8.66699 6 -14s-2 -10 -6 -14s-8.66699 -6 -14 -6s-10 2 -14 6s-6 8.66699 -6 14zM136 86l-43 -103l-43 -103h-14l38.5 103l38.5 103h23z" />
    <glyph glyph-name="less" unicode="&#x3c;" horiz-adv-x="560" 
d="M475 1v-16l-219 126.5l-219 126.5l219 126.5l219 126.5v-16l-206 -118.5l-206 -118.5l206 -118.5z" />
    <glyph glyph-name="equal" unicode="=" horiz-adv-x="670" 
d="M588 164v-14h-506v14h506zM588 358v-14h-506v14h506z" />
    <glyph glyph-name="greater" unicode="&#x3e;" horiz-adv-x="560" 
d="M85 -15v16l206 118.5l206 118.5l-206 118.5l-206 118.5v16l219 -126.5l219 -126.5l-219 -126.5z" />
    <glyph glyph-name="question" unicode="?" horiz-adv-x="482" 
d="M53 596c-2 0.666992 -4.16797 1.16602 -6.50098 1.49902s-4.5 0.833008 -6.5 1.5c13.333 38.667 36.666 70.5 69.999 95.5s71.666 37.5 114.999 37.5c27.333 0 53 -5.16699 77 -15.5s44.833 -24.333 62.5 -42s31.5 -38.334 41.5 -62.001s15 -48.834 15 -75.501
c0 -36 -8.83301 -67.5 -26.5 -94.5s-41.5 -51.167 -71.5 -72.5c-13.333 -9.33301 -25.5 -17.166 -36.5 -23.499s-20.667 -13.5 -29 -21.5s-14.833 -18.333 -19.5 -31s-7 -30 -7 -52v-78h-14v97c0 20.667 3.83301 37.167 11.5 49.5s17.667 23.333 30 33
s26.333 19.334 42 29.001s31.5 21.5 47.5 35.5c20.667 18 35.667 37.833 45 59.5s14 44.834 14 69.501c0 26 -4.66699 50 -14 72s-22.166 41.167 -38.499 57.5s-35.666 29 -57.999 38s-46.166 13.5 -71.499 13.5c-20 0 -39 -3 -57 -9s-34.667 -14.333 -50 -25
s-28.5 -23.5 -39.5 -38.5s-19.5 -31.5 -25.5 -49.5zM223.999 24.999c-4.66699 0 -9 2 -13 6s-6 8.66699 -6 14c0 6 2 10.833 6 14.5s8.33301 5.5 13 5.5c5.33301 0 10 -1.83301 14 -5.5s6 -8.5 6 -14.5c0 -5.33301 -2 -10 -6 -14s-8.66699 -6 -14 -6z" />
    <glyph glyph-name="at" unicode="@" horiz-adv-x="921" 
d="M628 13l91.999 0.000976562c36 0 64.167 14 84.5 42s30.5 72.333 30.5 133c0 52.667 -10 102.334 -30 149.001s-47.333 87.334 -82 122.001s-75.167 62 -121.5 82s-95.833 30 -148.5 30s-102.167 -10 -148.5 -30s-86.666 -47.333 -120.999 -82
s-61.5 -75.334 -81.5 -122.001s-30 -96.334 -30 -149.001s10 -102.167 30 -148.5s47.167 -86.666 81.5 -120.999s74.666 -61.5 120.999 -81.5s95.833 -30 148.5 -30c41.333 0 80.333 6.33301 117 19s70.667 29.667 102 51c1.33301 -2 2.83301 -3.83301 4.5 -5.5
s3.16699 -3.5 4.5 -5.5c-33.333 -22.667 -68.666 -40.5 -105.999 -53.5s-78 -19.5 -122 -19.5c-54.667 0 -106 10.333 -154 31s-89.833 49 -125.5 85s-63.834 78 -84.501 126s-31 99.333 -31 154s10.333 106 31 154s48.834 90 84.501 126s77.5 64.333 125.5 85
s99.333 31 154 31s106 -10.333 154 -31s90 -49 126 -85s64.333 -78.167 85 -126.5s31 -99.833 31 -154.5c0 -39.333 -4 -71.333 -12 -96s-18.333 -43.834 -31 -57.501s-27.167 -22.834 -43.5 -27.501s-32.833 -7 -49.5 -7h-85v13zM257.999 188.001
c0 -25.333 4.66699 -48.833 14 -70.5s22.166 -40.667 38.499 -57s35.333 -29.166 57 -38.499s45.167 -14 70.5 -14c24.667 0 48 4.66699 70 14s41.333 22.166 58 38.499s29.667 35.333 39 57s14 45.167 14 70.5c0 24.667 -4.66699 48 -14 70s-22.333 41.333 -39 58
s-36 29.667 -58 39s-45.333 14 -70 14c-25.333 0 -48.833 -4.66699 -70.5 -14s-40.667 -22.333 -57 -39s-29.166 -36 -38.499 -58s-14 -45.333 -14 -70zM243.999 188.001c0 26.667 5.00098 52.002 15.001 76.002s23.833 44.667 41.5 62s38.167 31.166 61.5 41.499
s48.666 15.5 75.999 15.5c41.333 0 78.166 -11.5 110.499 -34.5s55.833 -52.5 70.5 -88.5c0 19.333 0.333008 38.5 1 57.5s1.66699 38.167 3 57.5h10v-375h-14v54c0 10.667 0.166992 21.167 0.5 31.5s0.5 20.833 0.5 31.5c-7.33301 -18 -17 -34.5 -29 -49.5
s-25.833 -28 -41.5 -39s-33 -19.5 -52 -25.5s-38.833 -9 -59.5 -9c-27.333 0 -52.666 5 -75.999 15s-43.833 23.833 -61.5 41.5s-31.5 38.167 -41.5 61.5s-15 48.666 -15 75.999z" />
    <glyph glyph-name="A" unicode="A" horiz-adv-x="640" 
d="M166 318h309v14h-309v-14zM595 0c-47.333 112.667 -91.666 225.167 -132.999 337.5s-85.666 224.833 -132.999 337.5c-1.33301 4 -2.83301 8.16699 -4.5 12.5s-3.16699 8.5 -4.5 12.5c-1.33301 -4 -2.83301 -8.16699 -4.5 -12.5s-3.16699 -8.5 -4.5 -12.5
c-47.333 -112.667 -91.666 -225.167 -132.999 -337.5s-85.666 -224.833 -132.999 -337.5h-15c51.333 122 99.666 244 144.999 366s93.666 244 144.999 366c51.333 -122 99.666 -244 144.999 -366s93.666 -244 144.999 -366h-15z" />
    <glyph glyph-name="B" unicode="B" horiz-adv-x="562" 
d="M133 686l0.00195312 -328h147c53.333 0 93.833 15.667 121.5 47s41.5 72.333 41.5 123c0 28 -4.33301 52 -13 72s-20.834 36.333 -36.501 49s-34.334 22 -56.001 28s-45.5 9 -71.5 9h-133zM133.002 344v-330.002h148c26.667 0 52.167 3.33301 76.5 10
s45.5 16.834 63.5 30.501s32.333 30.5 43 50.5s16 43.667 16 71c0 29.333 -6.16699 54.5 -18.5 75.5s-28.5 38.333 -48.5 52s-43.167 23.834 -69.5 30.501s-53.5 10 -81.5 10h-129zM119.002 -0.00195312l0.00292969 699.999h135c30 0 57.5 -3.33301 82.5 -10
s46.5 -17 64.5 -31s31.833 -32.333 41.5 -55s14.5 -50 14.5 -82c0 -19.333 -2 -38 -6 -56s-10.667 -34.5 -20 -49.5s-21.5 -28 -36.5 -39s-33.167 -19.5 -54.5 -25.5c20 -4 39.333 -10.667 58 -20s35.167 -21.166 49.5 -35.499s25.666 -31.333 33.999 -51
s12.5 -41.834 12.5 -66.501c0 -29.333 -5.83301 -55.166 -17.5 -77.499s-27.334 -41 -47.001 -56s-42.334 -26.333 -68.001 -34s-52.167 -11.5 -79.5 -11.5h-163z" />
    <glyph glyph-name="C" unicode="C" horiz-adv-x="649" 
d="M600 42c-26.667 -15.333 -55.165 -27.499 -85.498 -36.499s-63.5 -13.5 -99.5 -13.5c-53.333 0 -101.666 9.5 -144.999 28.5s-80.5 44.5 -111.5 76.5s-55 69.5 -72 112.5s-25.5 88.5 -25.5 136.5c0 50.667 9.33301 98 28 142s44.167 82.333 76.5 115
s70.166 58.334 113.499 77.001s89.666 28 138.999 28c34 0 66.167 -4.33301 96.5 -13s59.166 -21 86.499 -37l-4 -6l-4 -6c-25.333 15.333 -52.833 27.166 -82.5 35.499s-60.5 12.5 -92.5 12.5c-47.333 0 -91.833 -9 -133.5 -27s-78 -42.833 -109 -74.5
s-55.5 -68.667 -73.5 -111s-27 -87.833 -27 -136.5c0 -45.333 8 -88.5 24 -129.5s38.667 -77 68 -108s64.666 -55.667 105.999 -74s87.333 -27.5 138 -27.5c34.667 0 66.834 4.16699 96.501 12.5s57.5 20.166 83.5 35.499z" />
    <glyph glyph-name="D" unicode="D" horiz-adv-x="711" 
d="M119 700l142.999 -0.00390625c70.667 0 130.5 -10.833 179.5 -32.5s88.833 -49.5 119.5 -83.5s52.834 -71.667 66.501 -113s20.5 -81.666 20.5 -120.999c0 -53.333 -9.33301 -101.666 -28 -144.999s-44 -80.166 -76 -110.499s-69.333 -53.666 -112 -69.999
s-88 -24.5 -136 -24.5h-177v700zM301.999 13.9961c44.667 0 87.166 7.83203 127.499 23.499s75.833 38 106.5 67s54.834 64.333 72.501 106s26.5 88.167 26.5 139.5c0 38 -6.5 76.667 -19.5 116s-34 75.333 -63 108s-66.667 59.334 -113 80.001s-102.5 31 -168.5 31h-138
v-671h169z" />
    <glyph glyph-name="E" unicode="E" horiz-adv-x="608" 
d="M119 0v700h415v-14h-401v-326h362v-14h-362v-332h415v-14h-429z" />
    <glyph glyph-name="F" unicode="F" horiz-adv-x="544" 
d="M119 0v700h375v-14h-361v-336h322v-14h-322v-336h-14z" />
    <glyph glyph-name="G" unicode="G" horiz-adv-x="678" 
d="M600 300l0.00195312 -258c-26.667 -15.333 -55.167 -27.5 -85.5 -36.5s-62.5 -13.5 -96.5 -13.5c-54 0 -103 9.33301 -147 28s-81.5 44.167 -112.5 76.5s-55 70.166 -72 113.499s-25.5 89.666 -25.5 138.999s9.33301 95.833 28 139.5s44.167 81.667 76.5 114
s70.166 58 113.499 77s89.666 28.5 138.999 28.5c34 0 66.167 -4.33301 96.5 -13s59.166 -21 86.499 -37l-8 -12c-25.333 15.333 -52.833 27.166 -82.5 35.499s-60.5 12.5 -92.5 12.5c-47.333 0 -91.833 -9.16699 -133.5 -27.5s-78 -43.166 -109 -74.499
s-55.5 -68 -73.5 -110s-27 -86.667 -27 -134s8 -91.666 24 -132.999s38.833 -77.5 68.5 -108.5s65.334 -55.5 107.001 -73.5s88.5 -27 140.5 -27c31.333 0 61.333 3.83301 90 11.5s55.667 18.834 81 33.501v235h-172v14h186z" />
    <glyph glyph-name="H" unicode="H" horiz-adv-x="732" 
d="M119 0v700h14v-340h464v340h18l-2 -350l-2 -350h-14v346h-464v-346h-14z" />
    <glyph glyph-name="I" unicode="I" horiz-adv-x="252" 
d="M119 700h14v-700h-14v700z" />
    <glyph glyph-name="J" unicode="J" horiz-adv-x="254" 
d="M-49 -142l-0.00195312 14c24.667 1.33301 47.334 7.16602 68.001 17.499s38.667 25 54 44s27.333 41.833 36 68.5s13 57 13 91v607h14v-610c0 -37.333 -4.83301 -70.166 -14.5 -98.499s-23 -52.166 -40 -71.499s-36.667 -34.333 -59 -45s-46.166 -16.334 -71.499 -17.001
z" />
    <glyph glyph-name="K" unicode="K" horiz-adv-x="589" 
d="M562 0l-162.998 207.002l-163 207l-52 -49l-52 -49c0 -52.667 0.166992 -105.334 0.5 -158.001s0.5 -105.334 0.5 -158.001h-14v700h14v-340c0 -5.33301 -0.166992 -10.166 -0.5 -14.499s-0.5 -9.16602 -0.5 -14.499c3.33301 3.33301 6.16602 6.66602 8.49902 9.99902
s5.16602 6.66602 8.49902 9.99902l183 174.5l183 174.5h22l-145 -138l-145 -138l167.5 -212l167.5 -212h-20z" />
    <glyph glyph-name="L" unicode="L" horiz-adv-x="553" 
d="M119 0v700h14v-686h405v-14h-419z" />
    <glyph glyph-name="M" unicode="M" horiz-adv-x="890" 
d="M119 732l88 -130.5l79.5 -117l77.5 -112l81 -115.5l56.5 84.5l77.5 116l92 134.5l100 140v-732h-14v645c0 7.33301 0.166992 14.833 0.5 22.5s0.5 15.167 0.5 22.5l-164 -238l-149 -224c-15.333 19.333 -32.5 42.5 -51.5 69.5l-59 86l-61.5 92l-58 88l-49 74.5l-34 52
c0 -7.33301 0.166992 -14.833 0.5 -22.5s0.5 -15.167 0.5 -22.5v-645h-14v732z" />
    <glyph glyph-name="N" unicode="N" horiz-adv-x="809" 
d="M690 700v-732l-276.5 353.5l-264.5 348.5l-9.5 13l-9.5 13c0.666992 -5.33301 1.16699 -10.666 1.5 -15.999s0.833008 -10.666 1.5 -15.999v-664h-14v732l140 -179.5l134 -176l132 -174l135 -174.5l9.5 -13l9.5 -13c-0.666992 5.33301 -1.16699 10.666 -1.5 15.999
s-0.833008 10.666 -1.5 15.999v666h14z" />
    <glyph glyph-name="O" unicode="O" horiz-adv-x="838" 
d="M61 349c0 49.333 9.33301 95.833 28 139.5s44.167 81.667 76.5 114s70.166 58 113.499 77s89.666 28.5 138.999 28.5s95.833 -9.5 139.5 -28.5s81.667 -44.667 114 -77s58 -70.333 77 -114s28.5 -90.167 28.5 -139.5s-9.5 -95.666 -28.5 -138.999
s-44.667 -81.166 -77 -113.499s-70.333 -57.833 -114 -76.5s-90.167 -28 -139.5 -28s-95.666 9.33301 -138.999 28s-81.166 44.167 -113.499 76.5s-57.833 70.166 -76.5 113.499s-28 89.666 -28 138.999zM75 348c0 -47.333 9 -91.667 27 -133s42.333 -77.5 73 -108.5
s66.667 -55.5 108 -73.5s85.333 -27 132 -27c47.333 0 92.166 9 134.499 27s79.333 42.5 111 73.5s56.667 67.333 75 109s27.5 86.167 27.5 133.5s-9.16699 91.833 -27.5 133.5s-43.166 78.167 -74.499 109.5s-67.833 56.166 -109.5 74.499s-86.167 27.5 -133.5 27.5
s-91.833 -9.16699 -133.5 -27.5s-78 -43.166 -109 -74.499s-55.5 -68 -73.5 -110s-27 -86.667 -27 -134z" />
    <glyph glyph-name="P" unicode="P" horiz-adv-x="512" 
d="M133 335l115.001 0.000976562c38.667 0 70.667 6.16699 96 18.5s45.5 27.666 60.5 45.999s25.5 38.166 31.5 59.499s9 41 9 59c0 25.333 -5 48.333 -15 69s-23.833 38.334 -41.5 53.001s-38.334 26 -62.001 34s-49.5 12 -77.5 12h-116v-351zM119.001 0.000976562v699.997
h140c19.333 0 40.666 -3.16699 63.999 -9.5s45 -16.666 65 -30.999s36.833 -33.166 50.5 -56.499s20.5 -52.333 20.5 -87c0 -25.333 -4.16699 -49.666 -12.5 -72.999s-21.166 -44 -38.499 -62s-39.5 -32.5 -66.5 -43.5s-59.167 -16.5 -96.5 -16.5h-112v-321h-14z" />
    <glyph glyph-name="Q" unicode="Q" horiz-adv-x="841" 
d="M61 349c0 49.333 9.33398 95.835 28.001 139.502s44.167 81.667 76.5 114s70.166 58 113.499 77s89.666 28.5 138.999 28.5s95.833 -9.5 139.5 -28.5s81.667 -44.667 114 -77s58 -70.333 77 -114s28.5 -90.167 28.5 -139.5c0 -38.667 -5.83301 -75.5 -17.5 -110.5
s-27.834 -67 -48.501 -96s-45.5 -54.5 -74.5 -76.5s-60.5 -39.333 -94.5 -52h257v-14h-307c-25.333 -5.33301 -50 -8 -74 -8c-49.333 0 -95.666 9.33301 -138.999 28s-81.166 44.167 -113.499 76.5s-57.833 70.166 -76.5 113.499s-28 89.666 -28 138.999zM75.001 348.002
c0 -47.333 9 -91.667 27 -133s42.333 -77.5 73 -108.5s66.667 -55.5 108 -73.5s85.333 -27 132 -27c47.333 0 92.166 9 134.499 27s79.333 42.5 111 73.5s56.667 67.333 75 109s27.5 86.167 27.5 133.5s-9.16699 91.833 -27.5 133.5s-43.166 78.167 -74.499 109.5
s-67.833 56.166 -109.5 74.499s-86.167 27.5 -133.5 27.5s-91.833 -9.16699 -133.5 -27.5s-78 -43.166 -109 -74.499s-55.5 -68 -73.5 -110s-27 -86.667 -27 -134z" />
    <glyph glyph-name="R" unicode="R" horiz-adv-x="567" 
d="M331 337l202 -337h-18l-200 337h16zM133 335l115.001 0.000976562c38.667 0 70.667 6.33301 96 19s45.5 28.5 60.5 47.5s25.5 39.167 31.5 60.5s9 40.666 9 57.999c0 24.667 -5 47.167 -15 67.5s-23.833 37.833 -41.5 52.5s-38.334 26 -62.001 34s-49.5 12 -77.5 12h-116
v-351zM119.001 0.000976562v699.997h140c19.333 0 40.666 -3.16699 63.999 -9.5s45 -16.666 65 -30.999s36.833 -33.166 50.5 -56.499s20.5 -52.333 20.5 -87c0 -25.333 -4.16699 -49.666 -12.5 -72.999s-21.166 -44 -38.499 -62s-39.5 -32.5 -66.5 -43.5
s-59.167 -16.5 -96.5 -16.5h-112v-321h-14z" />
    <glyph glyph-name="S" unicode="S" horiz-adv-x="531" 
d="M440 667l-6.00781 -11.0049c-9.33301 4 -20.166 8 -32.499 12s-25.5 7.83301 -39.5 11.5s-28.5 6.5 -43.5 8.5s-29.833 3 -44.5 3c-27.333 0 -52 -3.83301 -74 -11.5s-40.667 -18.167 -56 -31.5s-27.166 -28.833 -35.499 -46.5s-12.5 -36.167 -12.5 -55.5
c0 -31.333 9.33301 -56 28 -74s42.167 -33.333 70.5 -46s58.833 -24.5 91.5 -35.5s63.167 -24.5 91.5 -40.5s51.833 -36.667 70.5 -62s28 -58.666 28 -99.999c0 -30.667 -5.5 -58 -16.5 -82s-26.167 -44.5 -45.5 -61.5s-42.166 -30 -68.499 -39s-55.166 -13.5 -86.499 -13.5
c-27.333 0 -52.5 3 -75.5 9s-43.333 13 -61 21s-32.5 16 -44.5 24s-21 13.667 -27 17l8 13c10 -7.33301 22.333 -15 37 -23s30.834 -15.5 48.501 -22.5s36.5 -12.833 56.5 -17.5s40.333 -7 61 -7c24.667 0 49 3.66699 73 11s45.333 18.5 64 33.5s33.834 33.833 45.501 56.5
s17.5 49.334 17.5 80.001c0 39.333 -9.33301 71 -28 95s-42.167 43.667 -70.5 59s-58.833 28.333 -91.5 39s-63.167 22.5 -91.5 35.5s-51.833 29.333 -70.5 49s-28 45.834 -28 78.501c0 22.667 4.83301 43.834 14.5 63.501s22.834 36.834 39.501 51.501s36.334 26 59.001 34
s47 12 73 12c12 0 25.5 -0.833008 40.5 -2.5s30.167 -4.16699 45.5 -7.5s30.5 -7.33301 45.5 -12s28.5 -9.66699 40.5 -15z" />
    <glyph glyph-name="T" unicode="T" horiz-adv-x="498" 
d="M456 700v-14h-200v-686h-14v686h-200v14h414z" />
    <glyph glyph-name="U" unicode="U" horiz-adv-x="669" 
d="M335 -8c-32 0 -61.834 5 -89.501 15s-51.5 24.833 -71.5 44.5s-35.667 44.167 -47 73.5s-17 63 -17 101v474h14v-471c0 -36 5.16699 -67.833 15.5 -95.5s24.833 -51 43.5 -70s41 -33.333 67 -43s54.333 -14.5 85 -14.5c30 0 58 4.83301 84 14.5s48.333 24 67 43
s33.334 42.333 44.001 70s16 59.5 16 95.5v471h14v-474c0 -38 -5.83301 -71.667 -17.5 -101s-27.5 -53.833 -47.5 -73.5s-43.667 -34.5 -71 -44.5s-57 -15 -89 -15z" />
    <glyph glyph-name="V" unicode="V" horiz-adv-x="638" 
d="M44 700c47.333 -112.667 91.666 -225.167 132.999 -337.5s85.666 -224.833 132.999 -337.5c1.33301 -4 2.83301 -8.16699 4.5 -12.5s3.16699 -8.5 4.5 -12.5c1.33301 4 2.83301 8.16699 4.5 12.5s3.16699 8.5 4.5 12.5c47.333 112.667 91.666 225.167 132.999 337.5
s85.666 224.833 132.999 337.5h15c-51.333 -122 -99.666 -244 -144.999 -366s-93.666 -244 -144.999 -366c-51.333 122 -99.666 244 -144.999 366s-93.666 244 -144.999 366h15z" />
    <glyph glyph-name="W" unicode="W" horiz-adv-x="930" 
d="M902 700l-42.502 -102.001l-46.5 -116l-48.5 -121.5l-46.5 -118.5l-106 -274l-148 399l-7 21l-7 -21l-49 -150l-21 -64.5l-21.5 -66.5l-20.5 -63l-18 -55c-51.333 122 -99.666 244 -144.999 366s-93.666 244 -144.999 366h15l38.5 -93.5l42.5 -107l44 -112l43 -109.5
l98 -253l9 -25l7 25l124 383l-109 292h15l96 -256l40 -110l40.5 -112l37.5 -105.5l32 -91.5c1.33301 -4 2.83301 -8.16699 4.5 -12.5s3.16699 -8.5 4.5 -12.5c0.666992 2 1.5 4.33301 2.5 7s2.16699 5.33398 3.5 8.00098s2.33301 6 3 10l97 253l43 109.5l44 112l43 107
l39 93.5h15z" />
    <glyph glyph-name="X" unicode="X" horiz-adv-x="540" 
d="M260 360l-109.998 170l-110 170h16l104 -159.5l104 -159.5c1.33301 -2 2.66602 -4.16699 3.99902 -6.5s2.66602 -4.5 3.99902 -6.5c1.33301 2 2.66602 4.16699 3.99902 6.5s2.66602 4.5 3.99902 6.5l102 159.5l102 159.5h12l-109 -170.5l-109 -170.5l117 -179.5
l117 -179.5h-17l-183 279l-22.5 36.5c-7.66699 13 -15.5 24.833 -23.5 35.5c-1.33301 -2 -2.66602 -4.16699 -3.99902 -6.5s-2.66602 -4.5 -3.99902 -6.5l-108 -169l-108 -169h-12l115 180z" />
    <glyph glyph-name="Y" unicode="Y" horiz-adv-x="594" 
d="M304 262v-262h-14v262l-131.5 219l-131.5 219h17l121 -200.5l120 -201.5l13 -26l5.5 13l5.5 13l240 402h17z" />
    <glyph glyph-name="Z" unicode="Z" horiz-adv-x="627" 
d="M92 700l475.002 0.000976562l-518 -686h551v-14h-576l257.5 348.5l257.5 337.5h-433c-20.667 0 -35.834 2.66699 -45.501 8s-14.5 17.666 -14.5 36.999v4h16v-12c0 -6 2.16699 -11.333 6.5 -16s12.166 -7 23.499 -7z" />
    <glyph glyph-name="bracketleft" unicode="[" horiz-adv-x="297" 
d="M103 -149v895h163v-14h-147v-867h147v-14h-163z" />
    <glyph glyph-name="backslash" unicode="\" horiz-adv-x="386" 
d="M61 736l139 -377.5l139 -377.5h-14l-139 377.5l-139 377.5h14z" />
    <glyph glyph-name="bracketright" unicode="]" horiz-adv-x="297" 
d="M194 746v-895h-163v14h147v867h-147v14h163z" />
    <glyph glyph-name="asciicircum" unicode="^" horiz-adv-x="412" 
d="M206 660l60 -90.5l60 -90.5h-16l-52 77l-52 77l-52 -77l-52 -77h-16l60 90.5z" />
    <glyph glyph-name="underscore" unicode="_" horiz-adv-x="544" 
d="M472 0h-400v14h400v-14z" />
    <glyph glyph-name="grave" unicode="`" horiz-adv-x="200" 
d="M2 612l45 -66.5l45 -66.5h-16l-45 66.5l-45 66.5h16z" />
    <glyph glyph-name="a" unicode="a" 
d="M59 188c0 -25.333 4.66699 -48.833 14 -70.5s22.166 -40.667 38.499 -57s35.333 -29.166 57 -38.499s45.167 -14 70.5 -14c24.667 0 48 4.66699 70 14s41.333 22.166 58 38.499s29.667 35.333 39 57s14 45.167 14 70.5c0 24.667 -4.66699 48 -14 70
s-22.333 41.333 -39 58s-36 29.667 -58 39s-45.333 14 -70 14c-25.333 0 -48.833 -4.66699 -70.5 -14s-40.667 -22.333 -57 -39s-29.166 -36 -38.499 -58s-14 -45.333 -14 -70zM45 188c0 26.667 5.00098 52.002 15.001 76.002s23.833 44.667 41.5 62
s38.167 31.166 61.5 41.499s48.666 15.5 75.999 15.5c41.333 0 78.166 -11.5 110.499 -34.5s55.833 -52.5 70.5 -88.5c0 19.333 0.333008 38.5 1 57.5s1.66699 38.167 3 57.5h10v-375h-14v54c0 10.667 0.166992 21.167 0.5 31.5s0.5 20.833 0.5 31.5
c-7.33301 -18 -17 -34.5 -29 -49.5s-25.833 -28 -41.5 -39s-33 -19.5 -52 -25.5s-38.833 -9 -59.5 -9c-27.333 0 -52.666 5 -75.999 15s-43.833 23.833 -61.5 41.5s-31.5 38.167 -41.5 61.5s-15 48.666 -15 75.999z" />
    <glyph glyph-name="b" unicode="b" 
d="M451 188c0 24.667 -4.66699 48 -14 70s-22.166 41.333 -38.499 58s-35.5 29.667 -57.5 39s-45.333 14 -70 14c-25.333 0 -48.833 -4.66699 -70.5 -14s-40.834 -22.333 -57.501 -39s-29.667 -36 -39 -58s-14 -45.333 -14 -70c0 -25.333 4.66699 -48.833 14 -70.5
s22.333 -40.667 39 -57s35.834 -29.166 57.501 -38.499s45.167 -14 70.5 -14c24.667 0 48 4.66699 70 14s41.167 22.166 57.5 38.499s29.166 35.333 38.499 57s14 45.167 14 70.5zM465 188c0 -27.333 -4.99902 -52.668 -14.999 -76.001s-23.833 -43.833 -41.5 -61.5
s-38.334 -31.5 -62.001 -41.5s-48.834 -15 -75.501 -15c-20.667 0 -40.5 3 -59.5 9s-36.333 14.5 -52 25.5s-29.667 24 -42 39s-21.833 31.5 -28.5 49.5c0 -10.667 0.166992 -21.167 0.5 -31.5s0.5 -20.833 0.5 -31.5v-54h-14v750h14v-490c14.667 36 38.167 65.5 70.5 88.5
s69.166 34.5 110.499 34.5c26.667 0 51.834 -5.16699 75.501 -15.5s44.334 -24.166 62.001 -41.499s31.5 -38 41.5 -62s15 -49.333 15 -76z" />
    <glyph glyph-name="c" unicode="c" horiz-adv-x="403" 
d="M352 47l10 -9.99902c-17.333 -13.333 -36.333 -23.833 -57 -31.5s-42.667 -11.5 -66 -11.5c-27.333 0 -52.666 5 -75.999 15s-43.833 23.833 -61.5 41.5s-31.5 38.167 -41.5 61.5s-15 48.666 -15 75.999c0 26.667 5 52 15 76s23.833 44.667 41.5 62
s38.167 31.166 61.5 41.499s48.666 15.5 75.999 15.5c23.333 0 45.5 -3.83301 66.5 -11.5s39.833 -18.167 56.5 -31.5c-1.33301 -2 -3 -3.83301 -5 -5.5s-3.66699 -3.5 -5 -5.5c-15.333 12.667 -32.666 22.5 -51.999 29.5s-39.666 10.5 -60.999 10.5
c-25.333 0 -48.833 -4.66699 -70.5 -14s-40.667 -22.333 -57 -39s-29.166 -36 -38.499 -58s-14 -45.333 -14 -70c0 -25.333 4.66699 -48.833 14 -70.5s22.166 -40.667 38.499 -57s35.333 -29.166 57 -38.499s45.167 -14 70.5 -14c21.333 0 41.666 3.5 60.999 10.5
s36.666 16.5 51.999 28.5z" />
    <glyph glyph-name="d" unicode="d" 
d="M59 188c0 -25.333 4.66699 -48.833 14 -70.5s22.166 -40.667 38.499 -57s35.333 -29.166 57 -38.499s45.167 -14 70.5 -14c24.667 0 48 4.66699 70 14s41.333 22.166 58 38.499s29.667 35.333 39 57s14 45.167 14 70.5c0 24.667 -4.66699 48 -14 70
s-22.333 41.333 -39 58s-36 29.667 -58 39s-45.333 14 -70 14c-25.333 0 -48.833 -4.66699 -70.5 -14s-40.667 -22.333 -57 -39s-29.166 -36 -38.499 -58s-14 -45.333 -14 -70zM45 188c0 26.667 5.00098 52.002 15.001 76.002s23.833 44.667 41.5 62
s38.167 31.166 61.5 41.499s48.666 15.5 75.999 15.5c41.333 0 78.166 -11.5 110.499 -34.5s55.833 -52.5 70.5 -88.5v490h14v-750h-14v54c0 10.667 0.166992 21.167 0.5 31.5s0.5 20.833 0.5 31.5c-7.33301 -18 -17 -34.5 -29 -49.5s-25.833 -28 -41.5 -39
s-33 -19.5 -52 -25.5s-38.833 -9 -59.5 -9c-27.333 0 -52.666 5 -75.999 15s-43.833 23.833 -61.5 41.5s-31.5 38.167 -41.5 61.5s-15 48.666 -15 75.999z" />
    <glyph glyph-name="e" unicode="e" horiz-adv-x="437" 
d="M373 46c-17.333 -16 -37.499 -28.665 -60.499 -37.998s-47.5 -14 -73.5 -14c-27.333 0 -52.666 5 -75.999 15s-43.833 23.833 -61.5 41.5s-31.5 38.167 -41.5 61.5s-15 48.666 -15 75.999c0 26.667 5 52 15 76s23.833 44.833 41.5 62.5s38.167 31.667 61.5 42
s48.666 15.5 75.999 15.5c41.333 0 76.166 -11.833 104.499 -35.5s49.833 -53.5 64.5 -89.5l-81 -32.5l-87 -35.5l-87.5 -35.5l-81.5 -33.5c13.333 -34 35 -61.5 65 -82.5s64.333 -31.5 103 -31.5c24 0 46.5 4.16699 67.5 12.5s39.5 20.166 55.5 35.499zM389.001 266.002
c-14 30 -33.501 54.667 -58.501 74s-55.5 29 -91.5 29c-25.333 0 -48.833 -4.66699 -70.5 -14s-40.667 -22.333 -57 -39s-29.166 -36 -38.499 -58s-14 -45.333 -14 -70c0 -19.333 2.33301 -37 7 -53l78 32l83 33.5l83.5 33.5z" />
    <glyph glyph-name="f" unicode="f" horiz-adv-x="251" 
d="M29 358l0.00292969 14.001h65v146c0 36.667 4.83301 69.334 14.5 98.001s23 52.667 40 72s36.667 34.166 59 44.499s46.166 16.166 71.499 17.499v-14c-22.667 0 -44.334 -5 -65.001 -15s-38.834 -24.333 -54.501 -43s-28.167 -41.167 -37.5 -67.5s-14 -55.833 -14 -88.5
v-150h130v-14h-130v-358h-14v358h-65z" />
    <glyph glyph-name="g" unicode="g" 
d="M45 188c0 26.667 5 52.0029 15 76.0029s23.833 44.667 41.5 62s38.167 31.166 61.5 41.499s48.666 15.5 75.999 15.5c41.333 0 78.166 -11.5 110.499 -34.5s55.833 -52.5 70.5 -88.5c0 19.333 0.333008 38.5 1 57.5s1.66699 38.167 3 57.5h10v-383
c0 -21.333 -2.83301 -42.333 -8.5 -63s-15.834 -39 -30.501 -55s-34.5 -29 -59.5 -39s-56.833 -15 -95.5 -15c-12 0 -24.167 0.833008 -36.5 2.5s-25.5 5.33398 -39.5 11.001s-28.667 13.5 -44 23.5s-31.333 23.333 -48 40l9 10c16.667 -16 32.334 -28.833 47.001 -38.5
s28.5 -17 41.5 -22s25.333 -8.33301 37 -10s22.5 -2.5 32.5 -2.5c35.333 0 64.5 4.33301 87.5 13s41.167 20.667 54.5 36s22.833 33.5 28.5 54.5s8.83398 43.833 9.50098 68.5v7.5v7c0 3 0.166992 7 0.5 12s0.5 12.167 0.5 21.5v10.5c0 6.33301 0.166992 13.166 0.5 20.499
s0.5 14.166 0.5 20.499v11.5c-7.33301 -18 -17 -34.5 -29 -49.5s-25.833 -28 -41.5 -39s-33 -19.5 -52 -25.5s-38.833 -9 -59.5 -9c-27.333 0 -52.666 5 -75.999 15s-43.833 23.833 -61.5 41.5s-31.5 38.167 -41.5 61.5s-15 48.666 -15 75.999zM59 188.003
c0 -25.333 4.66699 -48.833 14 -70.5s22.166 -40.667 38.499 -57s35.333 -29.166 57 -38.499s45.167 -14 70.5 -14c24.667 0 48 4.66699 70 14s41.333 22.166 58 38.499s29.667 35.333 39 57s14 45.167 14 70.5c0 24.667 -4.66699 48 -14 70s-22.333 41.333 -39 58
s-36 29.667 -58 39s-45.333 14 -70 14c-25.333 0 -48.833 -4.66699 -70.5 -14s-40.667 -22.333 -57 -39s-29.166 -36 -38.499 -58s-14 -45.333 -14 -70z" />
    <glyph glyph-name="h" unicode="h" horiz-adv-x="440" 
d="M76 750l14 -0.000976562v-467c12 28 32.5 51.5 61.5 70.5s62.5 28.5 100.5 28.5c35.333 0 63.166 -10.333 83.499 -31s31.166 -47.667 32.499 -81v-270h-14v277c-1.33301 24 -10.166 44.833 -26.499 62.5s-39.166 27.167 -68.499 28.5
c-22.667 0 -44.167 -3.66699 -64.5 -11s-38.333 -17.5 -54 -30.5s-28 -28.667 -37 -47s-13.5 -38.166 -13.5 -59.499v-220h-14v750z" />
    <glyph glyph-name="i" unicode="i" horiz-adv-x="166" 
d="M63 500c0 5.33301 2 10 6 14s8.66699 6 14 6s10 -2 14 -6s6 -8.66699 6 -14s-2 -10 -6 -14s-8.66699 -6 -14 -6s-10 2 -14 6s-6 8.66699 -6 14zM90 0h-14v375h14v-375z" />
    <glyph glyph-name="j" unicode="j" horiz-adv-x="166" 
d="M63 500c0 5.33301 2 10 6 14s8.66699 6 14 6s10 -2 14 -6s6 -8.66699 6 -14s-2 -10 -6 -14s-8.66699 -6 -14 -6s-10 2 -14 6s-6 8.66699 -6 14zM33 -180l-12.001 9c16.667 18.667 30 41.5 40 68.5s15 57.5 15 91.5v386h14v-382c0 -38 -5.16699 -71.5 -15.5 -100.5
s-24.166 -53.167 -41.499 -72.5z" />
    <glyph glyph-name="k" unicode="k" horiz-adv-x="366" 
d="M313 384c1.33301 -1.33301 2.83301 -3 4.5 -5s3.16699 -3.66699 4.5 -5l-73 -69.5l-73 -69.5l86 -117.5l86 -117.5h-18l-83 112.5l-83 112.5c-12.667 -11.333 -25 -23 -37 -35s-24.333 -23.667 -37 -35v-155h-14v750h14v-574l111.5 104z" />
    <glyph glyph-name="l" unicode="l" horiz-adv-x="174" 
d="M94 0h-14v750h14v-750z" />
    <glyph glyph-name="m" unicode="m" horiz-adv-x="718" 
d="M76 375h10.001l1 -98c13.333 31.333 34.666 56.666 63.999 75.999s63 29 101 29c32.667 0 59.167 -9.16699 79.5 -27.5s32.166 -42.5 35.499 -72.5c14 30 35.5 54.167 64.5 72.5s61.833 27.5 98.5 27.5c35.333 0 63.166 -10.333 83.499 -31s31.166 -47.667 32.499 -81
v-270h-14v277c-1.33301 24 -10.166 44.833 -26.499 62.5s-39.166 27.167 -68.499 28.5c-22 0 -43 -3.5 -63 -10.5s-37.667 -16.833 -53 -29.5s-27.833 -27.667 -37.5 -45s-14.834 -36.333 -15.501 -57v-226h-14v277c-1.33301 24 -10.166 44.833 -26.499 62.5
s-39.166 27.167 -68.499 28.5c-22.667 0 -44.167 -3.66699 -64.5 -11s-38.333 -17.5 -54 -30.5s-28 -28.667 -37 -47s-13.5 -38.166 -13.5 -59.499v-220h-14v375z" />
    <glyph glyph-name="n" unicode="n" horiz-adv-x="440" 
d="M76 375h10.001l1 -98c13.333 31.333 34.666 56.666 63.999 75.999s63 29 101 29c35.333 0 63.166 -10.333 83.499 -31s31.166 -47.667 32.499 -81v-270h-14v277c-1.33301 24 -10.166 44.833 -26.499 62.5s-39.166 27.167 -68.499 28.5
c-22.667 0 -44.167 -3.66699 -64.5 -11s-38.333 -17.5 -54 -30.5s-28 -28.667 -37 -47s-13.5 -38.166 -13.5 -59.499v-220h-14v375z" />
    <glyph glyph-name="o" unicode="o" horiz-adv-x="480" 
d="M45 188c0 26.667 5 52 15 76s23.833 44.833 41.5 62.5s38.167 31.667 61.5 42s48.666 15.5 75.999 15.5c26.667 0 52 -5.16699 76 -15.5s44.833 -24.333 62.5 -42s31.667 -38.5 42 -62.5s15.5 -49.333 15.5 -76c0 -27.333 -5.16699 -52.666 -15.5 -75.999
s-24.333 -43.833 -42 -61.5s-38.5 -31.5 -62.5 -41.5s-49.333 -15 -76 -15c-27.333 0 -52.666 5 -75.999 15s-43.833 23.833 -61.5 41.5s-31.5 38.167 -41.5 61.5s-15 48.666 -15 75.999zM59 188c0 -25.333 4.66699 -48.833 14 -70.5s22.166 -40.667 38.499 -57
s35.333 -29.166 57 -38.499s45.167 -14 70.5 -14c24.667 0 48 4.66699 70 14s41.333 22.166 58 38.499s29.667 35.333 39 57s14 45.167 14 70.5c0 24.667 -4.66699 48 -14 70s-22.333 41.333 -39 58s-36 29.667 -58 39s-45.333 14 -70 14
c-25.333 0 -48.833 -4.66699 -70.5 -14s-40.667 -22.333 -57 -39s-29.166 -36 -38.499 -58s-14 -45.333 -14 -70z" />
    <glyph glyph-name="p" unicode="p" 
d="M451 188c0 24.667 -4.66699 48 -14 70s-22.166 41.333 -38.499 58s-35.5 29.667 -57.5 39s-45.333 14 -70 14c-25.333 0 -48.833 -4.66699 -70.5 -14s-40.834 -22.333 -57.501 -39s-29.667 -36 -39 -58s-14 -45.333 -14 -70c0 -25.333 4.66699 -48.833 14 -70.5
s22.333 -40.667 39 -57s35.834 -29.166 57.501 -38.499s45.167 -14 70.5 -14c24.667 0 48 4.66699 70 14s41.167 22.166 57.5 38.499s29.166 35.333 38.499 57s14 45.167 14 70.5zM465 188c0 -27.333 -4.99902 -52.668 -14.999 -76.001s-23.833 -43.833 -41.5 -61.5
s-38.334 -31.5 -62.001 -41.5s-48.834 -15 -75.501 -15c-20.667 0 -40.5 3 -59.5 9s-36.333 14.5 -52 25.5s-29.667 24 -42 39s-21.833 31.5 -28.5 49.5c0 -10.667 0.166992 -21.167 0.5 -31.5s0.5 -20.833 0.5 -31.5v-234h-14v555h14v-115c14.667 36 38.167 65.5 70.5 88.5
s69.166 34.5 110.499 34.5c26.667 0 51.834 -5.16699 75.501 -15.5s44.334 -24.166 62.001 -41.499s31.5 -38 41.5 -62s15 -49.333 15 -76z" />
    <glyph glyph-name="q" unicode="q" 
d="M59 188c0 -25.333 4.66699 -48.833 14 -70.5s22.166 -40.667 38.499 -57s35.333 -29.166 57 -38.499s45.167 -14 70.5 -14c24.667 0 48 4.66699 70 14s41.333 22.166 58 38.499s29.667 35.333 39 57s14 45.167 14 70.5c0 24.667 -4.66699 48 -14 70
s-22.333 41.333 -39 58s-36 29.667 -58 39s-45.333 14 -70 14c-25.333 0 -48.833 -4.66699 -70.5 -14s-40.667 -22.333 -57 -39s-29.166 -36 -38.499 -58s-14 -45.333 -14 -70zM45 188c0 26.667 5.00098 52.002 15.001 76.002s23.833 44.667 41.5 62
s38.167 31.166 61.5 41.499s48.666 15.5 75.999 15.5c41.333 0 78.166 -11.5 110.499 -34.5s55.833 -52.5 70.5 -88.5v115h14v-555h-14v234c0 10.667 0.166992 21.167 0.5 31.5s0.5 20.833 0.5 31.5c-7.33301 -18 -17 -34.5 -29 -49.5s-25.833 -28 -41.5 -39
s-33 -19.5 -52 -25.5s-38.833 -9 -59.5 -9c-27.333 0 -52.666 5 -75.999 15s-43.833 23.833 -61.5 41.5s-31.5 38.167 -41.5 61.5s-15 48.666 -15 75.999z" />
    <glyph glyph-name="r" unicode="r" horiz-adv-x="261" 
d="M253 368c-22 -0.666992 -42.833 -4.83203 -62.5 -12.499s-37 -18 -52 -31s-26.833 -28.5 -35.5 -46.5s-13 -37.333 -13 -58v-220h-14v375h10l1 -98c14 32 35.667 57.167 65 75.5s63 28.166 101 29.499v-14z" />
    <glyph glyph-name="s" unicode="s" horiz-adv-x="316" 
d="M256 336l-9.99902 -9.99805c-11.333 13.333 -25.833 23.166 -43.5 29.499s-33.167 9.5 -46.5 9.5c-8.66699 0 -18 -1.5 -28 -4.5s-19.333 -7.5 -28 -13.5s-15.834 -14 -21.501 -24s-8.5 -22 -8.5 -36c0 -18.667 5 -33.334 15 -44.001s22.333 -19.5 37 -26.5
s30.834 -13.167 48.501 -18.5s33.834 -11.833 48.501 -19.5s27 -17.5 37 -29.5s15 -28.333 15 -49c0 -14 -2.5 -27.5 -7.5 -40.5s-12.333 -24.5 -22 -34.5s-21.667 -18 -36 -24s-30.833 -9 -49.5 -9c-18 0 -38 3.5 -60 10.5s-40 19.167 -54 36.5
c2 1.33301 3.83301 2.83301 5.5 4.5s3.5 3.16699 5.5 4.5c4 -6 10.333 -11.667 19 -17s18 -9.83301 28 -13.5s20 -6.5 30 -8.5s19 -3 27 -3s17.833 1.5 29.5 4.5s22.667 8 33 15s19.166 16.167 26.499 27.5s11 25.666 11 42.999c0 20 -5 35.667 -15 47
s-22.333 20.5 -37 27.5s-30.834 13.167 -48.501 18.5s-33.834 11.666 -48.501 18.999s-27 17 -37 29s-15 28.333 -15 49c0 16 2.83301 29.833 8.5 41.5s13.334 21.334 23.001 29.001s20.5 13.334 32.5 17.001s24 5.5 36 5.5c14.667 0 31.5 -3.16699 50.5 -9.5
s35.5 -17.5 49.5 -33.5z" />
    <glyph glyph-name="t" unicode="t" horiz-adv-x="262" 
d="M107 539h14v-172h127v-14h-127v-353h-14v353h-89v14h89v172z" />
    <glyph glyph-name="u" unicode="u" horiz-adv-x="440" 
d="M364 0l-9.99805 0.000976562l-1 98c-13.333 -32 -34.833 -57.5 -64.5 -76.5s-63.167 -28.5 -100.5 -28.5c-35.333 0 -63.166 10.333 -83.499 31s-31.166 47.667 -32.499 81v270h14v-277c1.33301 -24 10.166 -44.833 26.499 -62.5s39.166 -27.167 68.499 -28.5
c22.667 0 44.167 3.66699 64.5 11s38.166 17.5 53.499 30.5s27.666 28.667 36.999 47s14 38.166 14 59.499v220h14v-375z" />
    <glyph glyph-name="v" unicode="v" horiz-adv-x="400" 
d="M200 -23c-16.667 33.333 -32.1709 66.499 -46.5039 99.499l-42.5 99.5l-42.5 99.5c-14.333 33 -29.833 66.167 -46.5 99.5h15c30.667 -60.667 57.834 -121.667 81.501 -183s50.834 -122.666 81.501 -183.999c30.667 61.333 57.834 122.5 81.501 183.5
s50.834 122.167 81.501 183.5h15c-16.667 -33.333 -32.167 -66.5 -46.5 -99.5l-42.5 -99.5l-42.5 -99.5c-14.333 -33 -29.833 -66.167 -46.5 -99.5z" />
    <glyph glyph-name="w" unicode="w" horiz-adv-x="632" 
d="M303 266l-24.5 54.5l-24.5 54.5h15l82 -184l81 -183l81.5 183.5l81.5 183.5h15l-89 -199l-89 -199l-60.5 137l-60.5 137l-55.5 -137l-55.5 -137l-89 199l-89 199h15l81 -184l82 -183l51.5 129z" />
    <glyph glyph-name="x" unicode="x" horiz-adv-x="351" 
d="M167 187l-69 94l-69 94h18l129 -177l63 88l63 88h17l-67.5 -94l-67.5 -94l68.5 -93l68.5 -93h-16l-64.5 87.5l-64.5 87.5l-62.5 -87.5l-62.5 -87.5h-18l67 93.5z" />
    <glyph glyph-name="y" unicode="y" horiz-adv-x="404" 
d="M138 -180h-18l73 168l-169 387h15l163 -367l163 367h15z" />
    <glyph glyph-name="z" unicode="z" horiz-adv-x="352" 
d="M315 0l-278.998 0.000976562l260 361h-207c-20.667 0 -35.834 2.66699 -45.501 8s-14.5 17.666 -14.5 36.999v4h13v-12c0 -6 2.66699 -11.333 8 -16s13.666 -7 24.999 -7h245l-260 -361h255v-14z" />
    <glyph glyph-name="braceleft" unicode="{" horiz-adv-x="271" 
d="M37 287v24.0049c16 0.666992 29.167 5.5 39.5 14.5s18.5 20.167 24.5 33.5s10 27.833 12 43.5s3 30.167 3 43.5v182c0 30 2.5 53.167 7.5 69.5s11.5 28 19.5 35s17.167 11 27.5 12s20.833 1.5 31.5 1.5h37v-14h-57c-20.667 0 -34.5 -8.66699 -41.5 -26
s-10.5 -46 -10.5 -86v-150c0 -31.333 -1.83301 -57 -5.5 -77s-8.5 -36.167 -14.5 -48.5s-13 -21.833 -21 -28.5s-16.333 -12.334 -25 -17.001c8.66699 -5.33301 17 -11.333 25 -18s15 -16.334 21 -29.001s10.833 -28.834 14.5 -48.501s5.5 -44.834 5.5 -75.501v-150
c0 -40 3.5 -68.667 10.5 -86s20.833 -26 41.5 -26h57v-14h-37c-13.333 0 -25.333 0.666992 -36 2s-19.667 6.66602 -27 15.999s-13 24.5 -17 45.5s-6 51.167 -6 90.5v146c0 13.333 -1 27.833 -3 43.5s-6 30.167 -12 43.5s-14.167 24.5 -24.5 33.5s-23.5 13.833 -39.5 14.5z
" />
    <glyph glyph-name="bar" unicode="|" horiz-adv-x="220" 
d="M103 -232v932h14v-932h-14z" />
    <glyph glyph-name="braceright" unicode="}" horiz-adv-x="271" 
d="M234 311l-0.000976562 -23.999c-21.333 -1.33301 -37.333 -8.83301 -48 -22.5s-18.334 -29.667 -23.001 -48s-7.16699 -36.833 -7.5 -55.5s-0.5 -33.667 -0.5 -45v-146c0 -30.667 -2.5 -54.167 -7.5 -70.5s-11.5 -28 -19.5 -35s-17.167 -10.833 -27.5 -11.5
s-20.833 -1 -31.5 -1h-37v14h57c20.667 0 34.5 8.66699 41.5 26s10.5 46 10.5 86v187c0 22.667 2.33301 41.667 7 57s10.334 28.166 17.001 38.499s13.834 18.5 21.501 24.5s14.5 10.667 20.5 14c-8.66699 4.66699 -17 10.334 -25 17.001s-15 16.167 -21 28.5
s-10.833 28.5 -14.5 48.5s-5.5 45.667 -5.5 77v150c0 40 -3.5 68.667 -10.5 86s-20.833 26 -41.5 26h-57v14h37c10.667 0 21.167 -0.5 31.5 -1.5s19.5 -5 27.5 -12s14.5 -18.5 19.5 -34.5s7.5 -39.333 7.5 -70v-146v-28.5c0 -11 0.666992 -22.833 2 -35.5
s3.33301 -25.167 6 -37.5s7 -23.5 13 -33.5s13.667 -18.333 23 -25s21 -10.334 35 -11.001z" />
    <glyph glyph-name="asciitilde" unicode="~" horiz-adv-x="472" 
d="M229 497c-10.667 12 -20 20 -28 24s-16.667 6 -26 6c-5.33301 0 -11.5 -0.833008 -18.5 -2.5s-13.833 -4.5 -20.5 -8.5s-12.5 -9.5 -17.5 -16.5s-8.16699 -16.167 -9.5 -27.5c-2 0.666992 -4.16699 1 -6.5 1s-4.5 0.333008 -6.5 1c0.666992 12 3.66699 22.333 9 31
s11.833 15.667 19.5 21s16.167 9.16602 25.5 11.499s18.666 3.5 27.999 3.5c13.333 0 25.5 -3.5 36.5 -10.5s21.833 -16.167 32.5 -27.5c10.667 -12 20 -20 28 -24s16.667 -6 26 -6c5.33301 0 11.5 0.833008 18.5 2.5s13.833 4.5 20.5 8.5s12.5 9.5 17.5 16.5
s8.16699 16.167 9.5 27.5c2 -0.666992 4.16699 -1 6.5 -1s4.5 -0.333008 6.5 -1c-0.666992 -12 -3.66699 -22.333 -9 -31s-11.833 -15.667 -19.5 -21s-16.167 -9.16602 -25.5 -11.499s-18.666 -3.5 -27.999 -3.5c-13.333 0 -25.5 3.5 -36.5 10.5s-21.833 16.167 -32.5 27.5z
" />
    <glyph glyph-name="exclamdown" unicode="&#xa1;" horiz-adv-x="222" 
d="M111 504c5.33301 0 10 -2 14 -6s6 -8.66699 6 -14c0 -6 -2 -10.833 -6 -14.5s-8.66699 -5.5 -14 -5.5c-4.66699 0 -9 1.83301 -13 5.5s-6 8.5 -6 14.5c0 5.33301 2 10 6 14s8.33301 6 13 6zM104 374h14v-584h-14v584z" />
    <glyph glyph-name="cent" unicode="&#xa2;" horiz-adv-x="427" 
d="M230 -68v506h14v-506h-14zM358 47l10 -9.99902c-17.333 -13.333 -36.333 -23.833 -57 -31.5s-42.667 -11.5 -66 -11.5c-27.333 0 -52.666 5 -75.999 15s-43.833 23.833 -61.5 41.5s-31.5 38.167 -41.5 61.5s-15 48.666 -15 75.999c0 26.667 5 52 15 76
s23.833 44.667 41.5 62s38.167 31.166 61.5 41.499s48.666 15.5 75.999 15.5c23.333 0 45.5 -3.83301 66.5 -11.5s39.833 -18.167 56.5 -31.5c-1.33301 -2 -3 -3.83301 -5 -5.5s-3.66699 -3.5 -5 -5.5c-15.333 12.667 -32.666 22.5 -51.999 29.5s-39.666 10.5 -60.999 10.5
c-25.333 0 -48.833 -4.66699 -70.5 -14s-40.667 -22.333 -57 -39s-29.166 -36 -38.499 -58s-14 -45.333 -14 -70c0 -25.333 4.66699 -48.833 14 -70.5s22.166 -40.667 38.499 -57s35.333 -29.166 57 -38.499s45.167 -14 70.5 -14c21.333 0 41.666 3.5 60.999 10.5
s36.666 16.5 51.999 28.5z" />
    <glyph glyph-name="sterling" unicode="&#xa3;" horiz-adv-x="562" 
d="M132 14l206 -0.000976562h41c40 0 68.667 3.5 86 10.5s26 20.833 26 41.5v57h14v-37c0 -10.667 -0.5 -21.167 -1.5 -31.5s-5 -19.5 -12 -27.5s-18.5 -14.5 -34.5 -19.5s-39.333 -7.5 -70 -7.5h-342v14h44c12 0 21.5 2.5 28.5 7.5s12.167 13.167 15.5 24.5
s5.5 26.666 6.5 45.999s1.5 43.333 1.5 72v147h-65v14h65v175c0 46.667 14.5 80.667 43.5 102s67.5 32 115.5 32c44.667 0 78.5 -8.16699 101.5 -24.5s41.167 -37.833 54.5 -64.5c-1.33301 -1.33301 -3 -2.33301 -5 -3s-3.66699 -1.66699 -5 -3
c-8.66699 16 -17.334 29.167 -26.001 39.5s-18.667 18.5 -30 24.5s-24.166 10.333 -38.499 13s-31.5 4 -51.5 4c-28 0 -51.333 -3.16699 -70 -9.5s-33.5 -14.833 -44.5 -25.5s-18.833 -23 -23.5 -37s-7 -28.667 -7 -44v-179h129v-14h-129v-162v-40
c0 -19.333 -1.5 -37.666 -4.5 -54.999s-9.16699 -30.666 -18.5 -39.999z" />
    <glyph glyph-name="currency" unicode="&#xa4;" horiz-adv-x="460" 
d="M112 361c0 -16.667 3.16699 -32.167 9.5 -46.5s14.833 -26.833 25.5 -37.5s23.167 -19.167 37.5 -25.5s29.5 -9.5 45.5 -9.5s31.167 3.16699 45.5 9.5s26.833 14.833 37.5 25.5s19.167 23.167 25.5 37.5s9.5 29.833 9.5 46.5s-3.16699 32.167 -9.5 46.5
s-14.833 26.833 -25.5 37.5s-23.167 19.167 -37.5 25.5s-29.5 9.5 -45.5 9.5s-31.167 -3.16699 -45.5 -9.5s-26.833 -14.833 -37.5 -25.5s-19.167 -23.167 -25.5 -37.5s-9.5 -29.833 -9.5 -46.5zM98 361c0 16.667 2.83301 32.335 8.5 47.002s13.5 28 23.5 40l-38 38l10 10
l38 -38c11.333 11.333 24.833 20.166 40.5 26.499s32.167 9.5 49.5 9.5s33.833 -3.33301 49.5 -10s29.167 -15.667 40.5 -27l38 38l10 -10l-38 -38c10 -11.333 17.833 -24.333 23.5 -39s8.5 -30.334 8.5 -47.001c0 -17.333 -3.16699 -33.666 -9.5 -48.999
s-14.833 -29 -25.5 -41l41 -41l-10 -10l-41 41c-24 -22 -53 -33 -87 -33c-16.667 0 -32.5 2.83301 -47.5 8.5s-28.167 13.5 -39.5 23.5l-41 -41l-10 10l41 41c-23.333 25.333 -35 55.666 -35 90.999z" />
    <glyph glyph-name="yen" unicode="&#xa5;" horiz-adv-x="612" 
d="M312 277h167v-14h-169zM306 114h173v-14h-173v14zM301 263h-155v14h150zM302 100h-156v14h156v-14zM313 262v-262h-14v262l-131.5 219l-131.5 219h17l121 -200.5l120 -201.5l13 -26l5.5 13l5.5 13l240 402h17z" />
    <glyph glyph-name="brokenbar" unicode="&#xa6;" horiz-adv-x="224" 
d="M119 -233h-14v350h14v-350zM119 350h-14v350h14v-350z" />
    <glyph glyph-name="section" unicode="&#xa7;" horiz-adv-x="357" 
d="M95 311c10 -18 23.832 -31 41.499 -39s36.167 -11.333 55.5 -10c14 1.33301 26.5 5.5 37.5 12.5s20.167 15.5 27.5 25.5s12.833 21.333 16.5 34s4.5 25 2.5 37c-2 14.667 -6.5 27.667 -13.5 39s-15.667 20.833 -26 28.5s-21.666 13.167 -33.999 16.5
s-24.5 4.66602 -36.5 3.99902c-19.333 -2 -35.333 -8.16699 -48 -18.5s-22.167 -22.666 -28.5 -36.999s-9 -29.833 -8 -46.5s5.5 -32 13.5 -46zM169.999 154l-87 149.996c-8 13.333 -13 27.5 -15 42.5s-1.16699 29.5 2.5 43.5s9.83398 27 18.501 39s19.667 22 33 30
c18 10 37 14.5 57 13.5s38.667 -6.5 56 -16.5c-11.333 18 -22 36.167 -32 54.5l-31 55.5c-18.667 32.667 -29 57.334 -31 74.001s0.333008 30.334 7 41.001s17.5 20 32.5 28l39.5 21c1.33301 -2 2.5 -4 3.5 -6s2.16699 -4 3.5 -6c-8.66699 -5.33301 -17 -10.166 -25 -14.499
s-16.333 -9.16602 -25 -14.499c-17.333 -10 -24.833 -24.333 -22.5 -43s13.5 -45.334 33.5 -80.001l43.5 -75.5l43.5 -75.5c8 -13.333 12.833 -27.333 14.5 -42s0.666992 -29 -3 -43s-9.83398 -26.833 -18.501 -38.5s-19.667 -21.5 -33 -29.5
c-18 -10.667 -37 -15.667 -57 -15s-38.667 6.33398 -56 17.001l32 -55l32 -55c9.33301 -16 16.333 -30.167 21 -42.5s7.83398 -23 9.50098 -32s1.66699 -16.667 0 -23s-3.83398 -12.166 -6.50098 -17.499c-6.66699 -11.333 -17.5 -21 -32.5 -29s-28.167 -14.667 -39.5 -20
c-1.33301 2 -2.5 4 -3.5 6s-2.16699 4 -3.5 6c8.66699 5.33301 17 10.166 25 14.499s16.333 9.16602 25 14.499c17.333 10 24.833 24.333 22.5 43s-13.5 45.334 -33.5 80.001z" />
    <glyph glyph-name="dieresis" unicode="&#xa8;" horiz-adv-x="370" 
d="M247 500c0 5.33301 2 10 6 14s8.66699 6 14 6s10 -2 14 -6s6 -8.66699 6 -14s-2 -10 -6 -14s-8.66699 -6 -14 -6s-10 2 -14 6s-6 8.66699 -6 14zM82 500c0 5.33301 2 10 6 14s8.66699 6 14 6s10 -2 14 -6s6 -8.66699 6 -14s-2 -10 -6 -14s-8.66699 -6 -14 -6s-10 2 -14 6
s-6 8.66699 -6 14z" />
    <glyph glyph-name="copyright" unicode="&#xa9;" horiz-adv-x="664" 
d="M331 132c33.333 0 64.666 6 93.999 18s55 28.833 77 50.5s39.333 47 52 76s19 60.5 19 94.5c0 34.667 -6.33301 66.834 -19 96.501s-30 55.334 -52 77.001s-47.667 38.5 -77 50.5s-60.666 18 -93.999 18c-32.667 0 -63.5 -6 -92.5 -18s-54.5 -28.833 -76.5 -50.5
s-39.333 -47.334 -52 -77.001s-19 -61.834 -19 -96.501c0 -34 6.33301 -65.5 19 -94.5s30 -54.333 52 -76s47.5 -38.5 76.5 -50.5s59.833 -18 92.5 -18zM332 118c-36 0 -69.5 6.33301 -100.5 19s-58 30.334 -81 53.001s-41 49.5 -54 80.5s-19.5 64.833 -19.5 101.5
s6.5 70.667 19.5 102s31 58.333 54 81s50 40.334 81 53.001s64.5 19 100.5 19s69.5 -6.33301 100.5 -19s58 -30.334 81 -53.001s41 -49.667 54 -81s19.5 -65.333 19.5 -102s-6.5 -70.5 -19.5 -101.5s-31 -57.833 -54 -80.5s-50 -40.334 -81 -53.001s-64.5 -19 -100.5 -19z
M423 236c-12 -7.33301 -24.835 -13.002 -38.502 -17.002s-28.5 -6 -44.5 -6c-24 0 -45.833 4.33301 -65.5 13s-36.5 20.334 -50.5 35.001s-24.833 31.667 -32.5 51s-11.5 40 -11.5 62c0 22.667 4.16699 44 12.5 64s19.833 37.333 34.5 52s31.834 26.167 51.501 34.5
s40.5 12.5 62.5 12.5c29.333 0 57 -7.33301 83 -22c-1.33301 -1.33301 -2.66602 -3.33301 -3.99902 -6c-24 14.667 -50.333 22 -79 22c-21.333 0 -41.333 -4.16699 -60 -12.5s-35 -19.5 -49 -33.5s-25.167 -30.667 -33.5 -50s-12.5 -40 -12.5 -62
c0 -20.667 3.66699 -40.167 11 -58.5s17.5 -34.5 30.5 -48.5s28.833 -25.167 47.5 -33.5s39.667 -12.5 63 -12.5c15.333 0 29.833 1.83301 43.5 5.5s26.167 8.83398 37.5 15.501z" />
    <glyph glyph-name="ordfeminine" unicode="&#xaa;" horiz-adv-x="424" 
d="M70 442c0 -18 3.33301 -35 10 -51s15.834 -29.833 27.501 -41.5s25.5 -20.834 41.5 -27.501s33 -10 51 -10s34.833 3.33301 50.5 10s29.5 15.834 41.5 27.501s21.333 25.5 28 41.5s10 33 10 51s-3.33301 34.833 -10 50.5s-16 29.5 -28 41.5s-25.833 21.333 -41.5 28
s-32.5 10 -50.5 10s-35 -3.33301 -51 -10s-29.833 -16 -41.5 -28s-20.834 -25.833 -27.501 -41.5s-10 -32.5 -10 -50.5zM60 442c0 19.333 3.66699 37.5 11 54.5s17.333 31.833 30 44.5s27.5 22.667 44.5 30s35.167 11 54.5 11c30 0 56.5 -8.33301 79.5 -25
s39.833 -37.667 50.5 -63c0 13.333 0.333008 27 1 41l2 41h7v-270h-10v39c0 7.33301 0.166992 14.833 0.5 22.5s0.5 15.167 0.5 22.5c-10 -26 -26.833 -47.167 -50.5 -63.5s-50.5 -24.5 -80.5 -24.5c-19.333 0 -37.5 3.66699 -54.5 11s-31.833 17.333 -44.5 30
s-22.667 27.5 -30 44.5s-11 35.167 -11 54.5z" />
    <glyph glyph-name="guillemotleft" unicode="&#xab;" horiz-adv-x="457" 
d="M392 77l-171 162l85.5 80.5l85.5 80.5v-17l-71 -72l-71 -72l71 -73l71 -73v-16zM221 77l-171 162l85.5 80.5l85.5 80.5v-17l-71 -72l-71 -72l71 -73l71 -73v-16z" />
    <glyph glyph-name="logicalnot" unicode="&#xac;" horiz-adv-x="555" 
d="M459 148v79h-346v14h360v-93h-14z" />
    <glyph glyph-name="registered" unicode="&#xae;" horiz-adv-x="664" 
d="M331 132c33.333 0 64.666 6 93.999 18s55 28.833 77 50.5s39.333 47 52 76s19 60.5 19 94.5c0 34.667 -6.33301 66.834 -19 96.501s-30 55.334 -52 77.001s-47.667 38.5 -77 50.5s-60.666 18 -93.999 18c-32.667 0 -63.5 -6 -92.5 -18s-54.5 -28.833 -76.5 -50.5
s-39.333 -47.334 -52 -77.001s-19 -61.834 -19 -96.501c0 -34 6.33301 -65.5 19 -94.5s30 -54.333 52 -76s47.5 -38.5 76.5 -50.5s59.833 -18 92.5 -18zM332 118c-36 0 -69.5 6.33301 -100.5 19s-58 30.334 -81 53.001s-41 49.5 -54 80.5s-19.5 64.833 -19.5 101.5
s6.5 70.667 19.5 102s31 58.333 54 81s50 40.334 81 53.001s64.5 19 100.5 19s69.5 -6.33301 100.5 -19s58 -30.334 81 -53.001s41 -49.667 54 -81s19.5 -65.333 19.5 -102s-6.5 -70.5 -19.5 -101.5s-31 -57.833 -54 -80.5s-50 -40.334 -81 -53.001s-64.5 -19 -100.5 -19z
M368 369l96 -159h-9l-94 159h7zM275 368l54 0.000976562c18 0 33 3 45 9s21.5 13.5 28.5 22.5s12 18.667 15 29s4.5 19.5 4.5 27.5c0 23.333 -8.83301 42.166 -26.5 56.499s-39.5 21.5 -65.5 21.5h-55v-166zM268 210.001v330.999h67c8.66699 0 18.5 -1.5 29.5 -4.5
s21.333 -7.83301 31 -14.5s17.667 -15.667 24 -27s9.5 -25 9.5 -41c0 -12 -2 -23.5 -6 -34.5s-10.167 -20.667 -18.5 -29s-18.833 -15.166 -31.5 -20.499s-27.667 -8 -45 -8h-53v-152h-7z" />
    <glyph glyph-name="macron" unicode="&#xaf;" horiz-adv-x="399" 
d="M85 492v14h230v-14h-230z" />
    <glyph glyph-name="degree" unicode="&#xb0;" horiz-adv-x="289" 
d="M145 498c17.333 0 32 6 44 18s18 26.667 18 44s-6 32 -18 44s-26.667 18 -44 18s-32.166 -6 -44.499 -18s-18.5 -26.667 -18.5 -44s6.16699 -32 18.5 -44s27.166 -18 44.499 -18zM68 559c0 22 7.33301 40.333 22 55s33 22 55 22c21.333 0 39.333 -7.33301 54 -22
s22 -33 22 -55c0 -21.333 -7.33301 -39.166 -22 -53.499s-32.667 -21.5 -54 -21.5c-22 0 -40.333 7.16699 -55 21.5s-22 32.166 -22 53.499z" />
    <glyph glyph-name="plusminus" unicode="&#xb1;" horiz-adv-x="566" 
d="M276 211v174h-173v14h173v172h14v-172h173v-14h-173v-174h-14zM463 136h-360v14h360v-14z" />
    <glyph glyph-name="twosuperior" unicode="&#xb2;" horiz-adv-x="345" 
d="M96 382l178 0.00195312v-7h-196l62 60c20 20 37.833 39.5 53.5 58.5s28.167 37.333 37.5 55s14 34.167 14 49.5c0 18.667 -2.66699 34 -8 46s-12 21.667 -20 29s-16.667 12.5 -26 15.5s-18 4.5 -26 4.5c-16 0 -29.333 -2.83301 -40 -8.5s-19 -12.834 -25 -21.501
s-10.167 -18 -12.5 -28s-3.5 -19.333 -3.5 -28c0 -23.333 6.66699 -42.333 20 -57c-1.33301 -0.666992 -3 -2 -5 -4c-7.33301 8 -12.833 16.833 -16.5 26.5s-5.5 21.167 -5.5 34.5c0 26 7.5 48 22.5 66s36.833 27 65.5 27c25.333 0 46.166 -9 62.499 -27s24.5 -41 24.5 -69
c0 -19.333 -4.83301 -38.333 -14.5 -57s-22.167 -37.334 -37.5 -56.001s-32.166 -37 -50.499 -55z" />
    <glyph glyph-name="threesuperior" unicode="&#xb3;" horiz-adv-x="303" 
d="M110 558l51.9971 67.501l52 67.5h-141v7h157l-49.5 -62l-48.5 -62c14.667 0.666992 28.667 -1.33301 42 -6s25 -11.5 35 -20.5s18 -19.833 24 -32.5s9 -26.334 9 -41.001c0 -14 -2.66699 -27 -8 -39s-12.666 -22.5 -21.999 -31.5s-20 -16.167 -32 -21.5s-25 -8 -39 -8
c-14.667 0 -28.167 3 -40.5 9s-23.166 14 -32.499 24c0.666992 1.33301 2.33398 3.33301 5.00098 6c8 -9.33301 17.833 -17 29.5 -23s24.167 -9 37.5 -9c12.667 0 24.834 2.5 36.501 7.5s21.834 11.667 30.501 20s15.5 18.166 20.5 29.499s7.5 23.333 7.5 36
s-2.5 24.667 -7.5 36s-11.833 21.333 -20.5 30s-18.834 15.334 -30.501 20.001s-23.834 7 -36.501 7c-10.667 0 -20.667 -3.66699 -30 -11z" />
    <glyph glyph-name="acute" unicode="&#xb4;" horiz-adv-x="218" 
d="M100 479l45 66.5l45 66.5h16l-45 -66.5l-45 -66.5h-16z" />
    <glyph glyph-name="mu" unicode="&#xb5;" horiz-adv-x="499" 
d="M113 108v-309h-13v309h13zM391 0l-9.99805 0.000976562l-1 98c-13.333 -32 -34.833 -57.5 -64.5 -76.5s-63.167 -28.5 -100.5 -28.5c-35.333 0 -63.166 10.333 -83.499 31s-31.166 47.667 -32.499 81v270h14v-277c1.33301 -24 10.166 -44.833 26.499 -62.5
s39.166 -27.167 68.499 -28.5c22.667 0 44.167 3.66699 64.5 11s38.166 17.5 53.499 30.5s27.666 28.667 36.999 47s14 38.166 14 59.499v220h14v-375z" />
    <glyph glyph-name="paragraph" unicode="&#xb6;" horiz-adv-x="504" 
d="M218 0l-14 -0.000976562v423c-22.667 0 -44 4.16699 -64 12.5s-37.333 19.833 -52 34.5s-26.167 32 -34.5 52s-12.5 41.333 -12.5 64s4.16699 44 12.5 64s19.833 37.333 34.5 52s32 26.334 52 35.001s41.333 13 64 13h177v-750h-14v736h-149v-736z" />
    <glyph glyph-name="periodcentered" unicode="&#xb7;" horiz-adv-x="184" 
d="M72 280c0 5.33301 2 10 6 14s8.66699 6 14 6s10 -2 14 -6s6 -8.66699 6 -14s-2 -10 -6 -14s-8.66699 -6 -14 -6s-10 2 -14 6s-6 8.66699 -6 14z" />
    <glyph glyph-name="cedilla" unicode="&#xb8;" horiz-adv-x="452" 
d="M193 0l14 -0.00292969v-6c0 -17.333 4.66699 -29.5 14 -36.5s18.333 -13.167 27 -18.5c15.333 -10 26.166 -21.167 32.499 -33.5s9.5 -23.166 9.5 -32.499c0 -34 -8.5 -58.5 -25.5 -73.5s-36.5 -22.5 -58.5 -22.5c-17.333 0 -33.5 4.83301 -48.5 14.5
s-25.833 24.167 -32.5 43.5c2.66699 0.666992 5.16699 1.33398 7.5 2.00098s4.83301 1.33398 7.5 2.00098c4 -14 11.833 -25.5 23.5 -34.5s25.834 -13.5 42.501 -13.5c20.667 0 37.5 6.83301 50.5 20.5s19.5 30.834 19.5 51.501c0 18.667 -4.33301 33 -13 43
s-18.167 18.5 -28.5 25.5s-19.833 14.167 -28.5 21.5s-13 17.666 -13 30.999v16z" />
    <glyph glyph-name="onesuperior" unicode="&#xb9;" horiz-adv-x="187" 
d="M47 694v6h58v-299h-7v293h-51z" />
    <glyph glyph-name="ordmasculine" unicode="&#xba;" horiz-adv-x="401" 
d="M60 442c0 19.333 3.66699 37.5 11 54.5s17.333 32 30 45s27.5 23.167 44.5 30.5s35.167 11 54.5 11s37.666 -3.66699 54.999 -11s32.333 -17.5 45 -30.5s22.667 -28 30 -45s11 -35.167 11 -54.5s-3.66699 -37.5 -11 -54.5s-17.333 -31.833 -30 -44.5
s-27.667 -22.667 -45 -30s-35.666 -11 -54.999 -11s-37.5 3.66699 -54.5 11s-31.833 17.333 -44.5 30s-22.667 27.5 -30 44.5s-11 35.167 -11 54.5zM70 442c0 -18 3.33301 -35 10 -51s16 -29.833 28 -41.5s25.833 -20.834 41.5 -27.501s32.5 -10 50.5 -10
s34.833 3.33301 50.5 10s29.5 15.834 41.5 27.501s21.333 25.5 28 41.5s10 33 10 51s-3.33301 34.833 -10 50.5s-16 29.5 -28 41.5s-25.833 21.333 -41.5 28s-32.5 10 -50.5 10s-34.833 -3.33301 -50.5 -10s-29.5 -16 -41.5 -28s-21.333 -25.833 -28 -41.5
s-10 -32.5 -10 -50.5z" />
    <glyph glyph-name="guillemotright" unicode="&#xbb;" horiz-adv-x="458" 
d="M65 93l71 73l71 73l-71 72l-71 72v17l85.5 -80.5l85.5 -80.5l-171 -162v16zM236 93l71 73l71 73l-71 72l-71 72v17l85.5 -80.5l85.5 -80.5l-171 -162v16z" />
    <glyph glyph-name="onequarter" unicode="&#xbc;" horiz-adv-x="787" 
d="M195 -19l139 377l139 377h14l-139 -377l-139 -377h-14zM663 459l-119.5 -156l-119.5 -156h239v312zM401 136l136.5 177l135.5 177v-343h72v-11h-72v-136h-10v136h-262zM38 685v10h90v-461h-10v451h-80z" />
    <glyph glyph-name="onehalf" unicode="&#xbd;" horiz-adv-x="831" 
d="M38 685v10h90v-461h-10v451h-80zM533 10l253.997 0.00390625v-10h-280l89 86.5c28.667 28.333 54 56 76 83s39.667 53.167 53 78.5s20 49 20 71c0 26.667 -3.66699 48.667 -11 66s-16.666 31.166 -27.999 41.499s-23.666 17.666 -36.999 21.999s-26 6.5 -38 6.5
c-23.333 0 -42.5 -4.16699 -57.5 -12.5s-26.833 -18.666 -35.5 -30.999s-14.667 -25.833 -18 -40.5s-5 -28 -5 -40c0 -32.667 9.66699 -59.334 29 -80.001c-2 -1.33301 -4.33301 -3.33301 -7 -6c-10 11.333 -17.833 23.666 -23.5 36.999s-8.5 29.666 -8.5 48.999
c0 38 10.833 69.833 32.5 95.5s52.834 38.5 93.501 38.5c37.333 0 67.333 -12.833 90 -38.5s34 -58.5 34 -98.5c0 -27.333 -7 -54.5 -21 -81.5s-31.833 -53.833 -53.5 -80.5s-45.5 -53 -71.5 -79zM211.997 -18.9961l139 377l139 377h14l-139 -377l-139 -377h-14z" />
    <glyph glyph-name="threequarters" unicode="&#xbe;" horiz-adv-x="989" 
d="M123 485l81.998 106.001l82 106h-222v11h246l-153 -195c23.333 1.33301 45.333 -1.66699 66 -9s38.834 -18 54.501 -32s28.167 -30.833 37.5 -50.5s14 -41.167 14 -64.5c0 -22 -4.16699 -42.5 -12.5 -61.5s-19.666 -35.5 -33.999 -49.5s-31 -25.167 -50 -33.5
s-39.5 -12.5 -61.5 -12.5c-23.333 0 -44.666 4.66699 -63.999 14s-36 21.666 -50 36.999c1.33301 1.33301 2.5 3 3.5 5s2.16699 3.66699 3.5 5c12.667 -15.333 28 -27.5 46 -36.5s37.667 -13.5 59 -13.5c20 0 39.167 3.83301 57.5 11.5s34.166 18.167 47.499 31.5
s24 28.833 32 46.5s12 36.5 12 56.5s-4 38.833 -12 56.5s-18.667 33 -32 46s-29.166 23.333 -47.499 31s-37.5 11.5 -57.5 11.5c-16.667 0 -32.334 -5.66699 -47.001 -17zM363.998 -18.999l139 377.5l139 377.5h14l-139 -377.5l-139 -377.5h-14zM865.998 459.001l-240 -312
h240v312zM603.998 136.001l135.5 177l136.5 177v-343h73v-11h-73v-136h-10v136h-262z" />
    <glyph glyph-name="questiondown" unicode="&#xbf;" horiz-adv-x="483" 
d="M431 -57c2 -0.666992 4.16895 -1.16602 6.50195 -1.49902s4.5 -0.833008 6.5 -1.5c-13.333 -38.667 -36.666 -70.5 -69.999 -95.5s-71.666 -37.5 -114.999 -37.5c-27.333 0 -53 5.16699 -77 15.5s-44.833 24.333 -62.5 42s-31.5 38.334 -41.5 62.001
s-15 48.834 -15 75.501c0 36 8.83301 67.5 26.5 94.5s41.5 51.167 71.5 72.5c12.667 9.33301 24.667 17.166 36 23.499s21.166 13.5 29.499 21.5s14.833 18.333 19.5 31s7 30 7 52v78h14v-97c0 -20.667 -3.83301 -37.167 -11.5 -49.5s-17.667 -23.333 -30 -33
s-26.333 -19.334 -42 -29.001s-31.5 -21.5 -47.5 -35.5c-20.667 -18 -35.667 -37.833 -45 -59.5s-14 -44.834 -14 -69.501c0 -26 4.66699 -50 14 -72s22.166 -41.167 38.499 -57.5s35.666 -29 57.999 -38s46.166 -13.5 71.499 -13.5c20 0 39 3 57 9s34.667 14.333 50 25
s28.5 23.5 39.5 38.5s19.5 31.5 25.5 49.5zM260.002 514.001c4.66699 0 9 -2 13 -6s6 -8.66699 6 -14c0 -6 -2 -10.833 -6 -14.5s-8.33301 -5.5 -13 -5.5c-5.33301 0 -10 1.83301 -14 5.5s-6 8.5 -6 14.5c0 5.33301 2 10 6 14s8.66699 6 14 6z" />
    <glyph glyph-name="Agrave" unicode="&#xc0;" horiz-adv-x="640" 
d="M166 318h309v14h-309v-14zM610 0c-51.333 122 -99.666 244 -144.999 366s-93.666 244 -144.999 366c-51.333 -122 -99.666 -244 -144.999 -366s-93.666 -244 -144.999 -366h15c47.333 112.667 91.666 225.167 132.999 337.5s85.666 224.833 132.999 337.5
c1.33301 4 2.83301 8.16699 4.5 12.5s3.16699 8.5 4.5 12.5c1.33301 -4 2.83301 -8.16699 4.5 -12.5s3.16699 -8.5 4.5 -12.5c47.333 -112.667 91.666 -225.167 132.999 -337.5s85.666 -224.833 132.999 -337.5h15zM238 883l45 -66.5l45 -66.5h-16l-45 66.5l-45 66.5h16z
" />
    <glyph glyph-name="Aacute" unicode="&#xc1;" horiz-adv-x="640" 
d="M166 318h309v14h-309v-14zM610 0c-51.333 122 -99.666 244 -144.999 366s-93.666 244 -144.999 366c-51.333 -122 -99.666 -244 -144.999 -366s-93.666 -244 -144.999 -366h15c47.333 112.667 91.666 225.167 132.999 337.5s85.666 224.833 132.999 337.5
c1.33301 4 2.83301 8.16699 4.5 12.5s3.16699 8.5 4.5 12.5c1.33301 -4 2.83301 -8.16699 4.5 -12.5s3.16699 -8.5 4.5 -12.5c47.333 -112.667 91.666 -225.167 132.999 -337.5s85.666 -224.833 132.999 -337.5h15zM312 750l45 66.5l45 66.5h16l-45 -66.5l-45 -66.5h-16z
" />
    <glyph glyph-name="Acircumflex" unicode="&#xc2;" horiz-adv-x="640" 
d="M166 318h309v14h-309v-14zM610 0c-51.333 122 -99.666 244 -144.999 366s-93.666 244 -144.999 366c-51.333 -122 -99.666 -244 -144.999 -366s-93.666 -244 -144.999 -366h15c47.333 112.667 91.666 225.167 132.999 337.5s85.666 224.833 132.999 337.5
c1.33301 4 2.83301 8.16699 4.5 12.5s3.16699 8.5 4.5 12.5c1.33301 -4 2.83301 -8.16699 4.5 -12.5s3.16699 -8.5 4.5 -12.5c47.333 -112.667 91.666 -225.167 132.999 -337.5s85.666 -224.833 132.999 -337.5h15zM361 931l60 -90.5l60 -90.5h-16l-52 77l-52 77l-52 -77
l-52 -77h-16l60 90.5z" />
    <glyph glyph-name="Atilde" unicode="&#xc3;" horiz-adv-x="640" 
d="M166 318h309v14h-309v-14zM610 0c-51.333 122 -99.666 244 -144.999 366s-93.666 244 -144.999 366c-51.333 -122 -99.666 -244 -144.999 -366s-93.666 -244 -144.999 -366h15c47.333 112.667 91.666 225.167 132.999 337.5s85.666 224.833 132.999 337.5
c1.33301 4 2.83301 8.16699 4.5 12.5s3.16699 8.5 4.5 12.5c1.33301 -4 2.83301 -8.16699 4.5 -12.5s3.16699 -8.5 4.5 -12.5c47.333 -112.667 91.666 -225.167 132.999 -337.5s85.666 -224.833 132.999 -337.5h15zM312 785c-10.667 12 -20 20 -28 24s-16.667 6 -26 6
c-5.33301 0 -11.5 -0.833008 -18.5 -2.5s-13.833 -4.5 -20.5 -8.5s-12.5 -9.5 -17.5 -16.5s-8.16699 -16.167 -9.5 -27.5c-2 0.666992 -4.16699 1 -6.5 1s-4.5 0.333008 -6.5 1c0.666992 12 3.66699 22.333 9 31s11.833 15.667 19.5 21s16.167 9.16602 25.5 11.499
s18.666 3.5 27.999 3.5c13.333 0 25.5 -3.5 36.5 -10.5s21.833 -16.167 32.5 -27.5c10.667 -12 20 -20 28 -24s16.667 -6 26 -6c5.33301 0 11.5 0.833008 18.5 2.5s13.833 4.5 20.5 8.5s12.5 9.5 17.5 16.5s8.16699 16.167 9.5 27.5c2 -0.666992 4.16699 -1 6.5 -1
s4.5 -0.333008 6.5 -1c-0.666992 -12 -3.66699 -22.333 -9 -31s-11.833 -15.667 -19.5 -21s-16.167 -9.16602 -25.5 -11.499s-18.666 -3.5 -27.999 -3.5c-13.333 0 -25.5 3.5 -36.5 10.5s-21.833 16.167 -32.5 27.5z" />
    <glyph glyph-name="Adieresis" unicode="&#xc4;" horiz-adv-x="640" 
d="M166 318h309v14h-309v-14zM610 0c-51.333 122 -99.666 244 -144.999 366s-93.666 244 -144.999 366c-51.333 -122 -99.666 -244 -144.999 -366s-93.666 -244 -144.999 -366h15c47.333 112.667 91.666 225.167 132.999 337.5s85.666 224.833 132.999 337.5
c1.33301 4 2.83301 8.16699 4.5 12.5s3.16699 8.5 4.5 12.5c1.33301 -4 2.83301 -8.16699 4.5 -12.5s3.16699 -8.5 4.5 -12.5c47.333 -112.667 91.666 -225.167 132.999 -337.5s85.666 -224.833 132.999 -337.5h15zM384 790c0 5.33301 2 10 6 14s8.66699 6 14 6s10 -2 14 -6
s6 -8.66699 6 -14s-2 -10 -6 -14s-8.66699 -6 -14 -6s-10 2 -14 6s-6 8.66699 -6 14zM219 790c0 5.33301 2 10 6 14s8.66699 6 14 6s10 -2 14 -6s6 -8.66699 6 -14s-2 -10 -6 -14s-8.66699 -6 -14 -6s-10 2 -14 6s-6 8.66699 -6 14z" />
    <glyph glyph-name="Aring" unicode="&#xc5;" horiz-adv-x="640" 
d="M272 834c0 -13.333 4.83301 -24.833 14.5 -34.5s21.167 -14.5 34.5 -14.5s24.833 4.83301 34.5 14.5s14.5 21.167 14.5 34.5s-4.83301 24.833 -14.5 34.5s-21.167 14.5 -34.5 14.5s-24.833 -4.83301 -34.5 -14.5s-14.5 -21.167 -14.5 -34.5zM258 834c0 18 6 33 18 45
s27 18 45 18s33 -6 45 -18s18 -27 18 -45s-6 -33 -18 -45s-27 -18 -45 -18s-33 6 -45 18s-18 27 -18 45zM166 318h309v14h-309v-14zM595 0c-47.333 112.667 -91.666 225.167 -132.999 337.5s-85.666 224.833 -132.999 337.5c-1.33301 4 -2.83301 8.16699 -4.5 12.5
s-3.16699 8.5 -4.5 12.5c-1.33301 -4 -2.83301 -8.16699 -4.5 -12.5s-3.16699 -8.5 -4.5 -12.5c-47.333 -112.667 -91.666 -225.167 -132.999 -337.5s-85.666 -224.833 -132.999 -337.5h-15c51.333 122 99.666 244 144.999 366s93.666 244 144.999 366
c51.333 -122 99.666 -244 144.999 -366s93.666 -244 144.999 -366h-15z" />
    <glyph glyph-name="AE" unicode="&#xc6;" horiz-adv-x="625" 
d="M167 332h149v-14h-149v14zM321 700c-1.33301 -4 -2.83496 -8.16797 -4.50195 -12.501s-3.16699 -8.5 -4.5 -12.5c-47.333 -112.667 -91.666 -225.167 -132.999 -337.5s-85.666 -224.833 -132.999 -337.5h-15c26 60.667 50.167 119.834 72.5 177.501l66 172l66 172
l72.5 178.5h13zM307.998 -0.000976562v700h255v-14h-241v-326h202v-14h-202v-332h255v-14h-269z" />
    <glyph glyph-name="Ccedilla" unicode="&#xc7;" horiz-adv-x="649" 
d="M600 42c-26.667 -15.333 -55.165 -27.499 -85.498 -36.499s-63.5 -13.5 -99.5 -13.5c-53.333 0 -101.666 9.5 -144.999 28.5s-80.5 44.5 -111.5 76.5s-55 69.5 -72 112.5s-25.5 88.5 -25.5 136.5c0 50.667 9.33301 98 28 142s44.167 82.333 76.5 115
s70.166 58.334 113.499 77.001s89.666 28 138.999 28c34 0 66.167 -4.33301 96.5 -13s59.166 -21 86.499 -37l-4 -6l-4 -6c-25.333 15.333 -52.833 27.166 -82.5 35.499s-60.5 12.5 -92.5 12.5c-47.333 0 -91.833 -9 -133.5 -27s-78 -42.833 -109 -74.5
s-55.5 -68.667 -73.5 -111s-27 -87.833 -27 -136.5c0 -45.333 8 -88.5 24 -129.5s38.667 -77 68 -108s64.666 -55.667 105.999 -74s87.333 -27.5 138 -27.5c34.667 0 66.834 4.16699 96.501 12.5s57.5 20.166 83.5 35.499zM404.002 0.000976562l14 -0.00292969v-6
c0 -17.333 4.66699 -29.5 14 -36.5s18.333 -13.167 27 -18.5c15.333 -10 26.166 -21.167 32.499 -33.5s9.5 -23.166 9.5 -32.499c0 -34 -8.5 -58.5 -25.5 -73.5s-36.5 -22.5 -58.5 -22.5c-17.333 0 -33.5 4.83301 -48.5 14.5s-25.833 24.167 -32.5 43.5
c2.66699 0.666992 5.16699 1.33398 7.5 2.00098s4.83301 1.33398 7.5 2.00098c4 -14 11.833 -25.5 23.5 -34.5s25.834 -13.5 42.501 -13.5c20.667 0 37.5 6.83301 50.5 20.5s19.5 30.834 19.5 51.501c0 18.667 -4.33301 33 -13 43s-18.167 18.5 -28.5 25.5
s-19.833 14.167 -28.5 21.5s-13 17.666 -13 30.999v16z" />
    <glyph glyph-name="Egrave" unicode="&#xc8;" horiz-adv-x="608" 
d="M119 0v700h415v-14h-401v-326h362v-14h-362v-332h415v-14h-429zM284 883l45 -66.5l45 -66.5h-16l-45 66.5l-45 66.5h16z" />
    <glyph glyph-name="Eacute" unicode="&#xc9;" horiz-adv-x="608" 
d="M119 0v700h415v-14h-401v-326h362v-14h-362v-332h415v-14h-429zM316 750l45 66.5l45 66.5h16l-45 -66.5l-45 -66.5h-16z" />
    <glyph glyph-name="Ecircumflex" unicode="&#xca;" horiz-adv-x="608" 
d="M119 0v700h415v-14h-401v-326h362v-14h-362v-332h415v-14h-429zM329 931l60 -90.5l60 -90.5h-16l-52 77l-52 77l-52 -77l-52 -77h-16l60 90.5z" />
    <glyph glyph-name="Edieresis" unicode="&#xcb;" horiz-adv-x="608" 
d="M119 0v700h415v-14h-401v-326h362v-14h-362v-332h415v-14h-429zM398 790c0 5.33301 2 10 6 14s8.66699 6 14 6s10 -2 14 -6s6 -8.66699 6 -14s-2 -10 -6 -14s-8.66699 -6 -14 -6s-10 2 -14 6s-6 8.66699 -6 14zM233 790c0 5.33301 2 10 6 14s8.66699 6 14 6s10 -2 14 -6
s6 -8.66699 6 -14s-2 -10 -6 -14s-8.66699 -6 -14 -6s-10 2 -14 6s-6 8.66699 -6 14z" />
    <glyph glyph-name="Igrave" unicode="&#xcc;" horiz-adv-x="252" 
d="M119 700h14v-700h-14v700zM57 883l45 -66.5l45 -66.5h-16l-45 66.5l-45 66.5h16z" />
    <glyph glyph-name="Iacute" unicode="&#xcd;" horiz-adv-x="252" 
d="M119 700h14v-700h-14v700zM104 750l45 66.5l45 66.5h16l-45 -66.5l-45 -66.5h-16z" />
    <glyph glyph-name="Icircumflex" unicode="&#xce;" horiz-adv-x="252" 
d="M119 700h14v-700h-14v700zM127 931l60 -90.5l60 -90.5h-16l-52 77l-52 77l-52 -77l-52 -77h-16l60 90.5z" />
    <glyph glyph-name="Idieresis" unicode="&#xcf;" horiz-adv-x="252" 
d="M119 700h14v-700h-14v700zM189 790c0 5.33301 2 10 6 14s8.66699 6 14 6s10 -2 14 -6s6 -8.66699 6 -14s-2 -10 -6 -14s-8.66699 -6 -14 -6s-10 2 -14 6s-6 8.66699 -6 14zM24 790c0 5.33301 2 10 6 14s8.66699 6 14 6s10 -2 14 -6s6 -8.66699 6 -14s-2 -10 -6 -14
s-8.66699 -6 -14 -6s-10 2 -14 6s-6 8.66699 -6 14z" />
    <glyph glyph-name="Eth" unicode="&#xd0;" horiz-adv-x="718" 
d="M68 360h281v-14h-281v14zM126 700l142.999 -0.00390625c70.667 0 130.5 -10.833 179.5 -32.5s88.833 -49.5 119.5 -83.5s52.834 -71.667 66.501 -113s20.5 -81.666 20.5 -120.999c0 -53.333 -9.33301 -101.666 -28 -144.999s-44 -80.166 -76 -110.499
s-69.333 -53.666 -112 -69.999s-88 -24.5 -136 -24.5h-177v700zM308.999 13.9961c44.667 0 87.166 7.83203 127.499 23.499s75.833 38 106.5 67s54.834 64.333 72.501 106s26.5 88.167 26.5 139.5c0 38 -6.5 76.667 -19.5 116s-34 75.333 -63 108
s-66.667 59.334 -113 80.001s-102.5 31 -168.5 31h-138v-671h169z" />
    <glyph glyph-name="Ntilde" unicode="&#xd1;" horiz-adv-x="808" 
d="M689 700v-732l-276.5 353.5l-264.5 348.5l-9.5 13l-9.5 13c0.666992 -5.33301 1.16699 -10.666 1.5 -15.999s0.833008 -10.666 1.5 -15.999v-664h-14v732l140 -179.5l134 -176l132 -174l135 -174.5l9.5 -13l9.5 -13c-0.666992 5.33301 -1.16699 10.666 -1.5 15.999
s-0.833008 10.666 -1.5 15.999v666h14zM410 790c-10.667 12 -20 20 -28 24s-16.667 6 -26 6c-5.33301 0 -11.5 -0.833008 -18.5 -2.5s-13.833 -4.5 -20.5 -8.5s-12.5 -9.5 -17.5 -16.5s-8.16699 -16.167 -9.5 -27.5c-2 0.666992 -4.16699 1 -6.5 1s-4.5 0.333008 -6.5 1
c0.666992 12 3.66699 22.333 9 31s11.833 15.667 19.5 21s16.167 9.16602 25.5 11.499s18.666 3.5 27.999 3.5c13.333 0 25.5 -3.5 36.5 -10.5s21.833 -16.167 32.5 -27.5c10.667 -12 20 -20 28 -24s16.667 -6 26 -6c5.33301 0 11.5 0.833008 18.5 2.5s13.833 4.5 20.5 8.5
s12.5 9.5 17.5 16.5s8.16699 16.167 9.5 27.5c2 -0.666992 4.16699 -1 6.5 -1s4.5 -0.333008 6.5 -1c-0.666992 -12 -3.66699 -22.333 -9 -31s-11.833 -15.667 -19.5 -21s-16.167 -9.16602 -25.5 -11.499s-18.666 -3.5 -27.999 -3.5c-13.333 0 -25.5 3.5 -36.5 10.5
s-21.833 16.167 -32.5 27.5z" />
    <glyph glyph-name="Ograve" unicode="&#xd2;" horiz-adv-x="838" 
d="M61 349c0 49.333 9.33301 95.833 28 139.5s44.167 81.667 76.5 114s70.166 58 113.499 77s89.666 28.5 138.999 28.5s95.833 -9.5 139.5 -28.5s81.667 -44.667 114 -77s58 -70.333 77 -114s28.5 -90.167 28.5 -139.5s-9.5 -95.666 -28.5 -138.999
s-44.667 -81.166 -77 -113.499s-70.333 -57.833 -114 -76.5s-90.167 -28 -139.5 -28s-95.666 9.33301 -138.999 28s-81.166 44.167 -113.499 76.5s-57.833 70.166 -76.5 113.499s-28 89.666 -28 138.999zM75 348c0 -47.333 9 -91.667 27 -133s42.333 -77.5 73 -108.5
s66.667 -55.5 108 -73.5s85.333 -27 132 -27c47.333 0 92.166 9 134.499 27s79.333 42.5 111 73.5s56.667 67.333 75 109s27.5 86.167 27.5 133.5s-9.16699 91.833 -27.5 133.5s-43.166 78.167 -74.499 109.5s-67.833 56.166 -109.5 74.499s-86.167 27.5 -133.5 27.5
s-91.833 -9.16699 -133.5 -27.5s-78 -43.166 -109 -74.499s-55.5 -68 -73.5 -110s-27 -86.667 -27 -134zM334 882.999l45 -66.5l45 -66.5h-16l-45 66.5l-45 66.5h16z" />
    <glyph glyph-name="Oacute" unicode="&#xd3;" horiz-adv-x="838" 
d="M61 349c0 49.333 9.33301 95.833 28 139.5s44.167 81.667 76.5 114s70.166 58 113.499 77s89.666 28.5 138.999 28.5s95.833 -9.5 139.5 -28.5s81.667 -44.667 114 -77s58 -70.333 77 -114s28.5 -90.167 28.5 -139.5s-9.5 -95.666 -28.5 -138.999
s-44.667 -81.166 -77 -113.499s-70.333 -57.833 -114 -76.5s-90.167 -28 -139.5 -28s-95.666 9.33301 -138.999 28s-81.166 44.167 -113.499 76.5s-57.833 70.166 -76.5 113.499s-28 89.666 -28 138.999zM75 348c0 -47.333 9 -91.667 27 -133s42.333 -77.5 73 -108.5
s66.667 -55.5 108 -73.5s85.333 -27 132 -27c47.333 0 92.166 9 134.499 27s79.333 42.5 111 73.5s56.667 67.333 75 109s27.5 86.167 27.5 133.5s-9.16699 91.833 -27.5 133.5s-43.166 78.167 -74.499 109.5s-67.833 56.166 -109.5 74.499s-86.167 27.5 -133.5 27.5
s-91.833 -9.16699 -133.5 -27.5s-78 -43.166 -109 -74.499s-55.5 -68 -73.5 -110s-27 -86.667 -27 -134zM390 749.999l45 66.5l45 66.5h16l-45 -66.5l-45 -66.5h-16z" />
    <glyph glyph-name="Ocircumflex" unicode="&#xd4;" horiz-adv-x="838" 
d="M61 349c0 49.333 9.33301 95.833 28 139.5s44.167 81.667 76.5 114s70.166 58 113.499 77s89.666 28.5 138.999 28.5s95.833 -9.5 139.5 -28.5s81.667 -44.667 114 -77s58 -70.333 77 -114s28.5 -90.167 28.5 -139.5s-9.5 -95.666 -28.5 -138.999
s-44.667 -81.166 -77 -113.499s-70.333 -57.833 -114 -76.5s-90.167 -28 -139.5 -28s-95.666 9.33301 -138.999 28s-81.166 44.167 -113.499 76.5s-57.833 70.166 -76.5 113.499s-28 89.666 -28 138.999zM75 348c0 -47.333 9 -91.667 27 -133s42.333 -77.5 73 -108.5
s66.667 -55.5 108 -73.5s85.333 -27 132 -27c47.333 0 92.166 9 134.499 27s79.333 42.5 111 73.5s56.667 67.333 75 109s27.5 86.167 27.5 133.5s-9.16699 91.833 -27.5 133.5s-43.166 78.167 -74.499 109.5s-67.833 56.166 -109.5 74.499s-86.167 27.5 -133.5 27.5
s-91.833 -9.16699 -133.5 -27.5s-78 -43.166 -109 -74.499s-55.5 -68 -73.5 -110s-27 -86.667 -27 -134zM406 930.999l60 -90.5l60 -90.5h-16l-52 77l-52 77l-52 -77l-52 -77h-16l60 90.5z" />
    <glyph glyph-name="Otilde" unicode="&#xd5;" horiz-adv-x="838" 
d="M61 349c0 49.333 9.33301 95.833 28 139.5s44.167 81.667 76.5 114s70.166 58 113.499 77s89.666 28.5 138.999 28.5s95.833 -9.5 139.5 -28.5s81.667 -44.667 114 -77s58 -70.333 77 -114s28.5 -90.167 28.5 -139.5s-9.5 -95.666 -28.5 -138.999
s-44.667 -81.166 -77 -113.499s-70.333 -57.833 -114 -76.5s-90.167 -28 -139.5 -28s-95.666 9.33301 -138.999 28s-81.166 44.167 -113.499 76.5s-57.833 70.166 -76.5 113.499s-28 89.666 -28 138.999zM75 348c0 -47.333 9 -91.667 27 -133s42.333 -77.5 73 -108.5
s66.667 -55.5 108 -73.5s85.333 -27 132 -27c47.333 0 92.166 9 134.499 27s79.333 42.5 111 73.5s56.667 67.333 75 109s27.5 86.167 27.5 133.5s-9.16699 91.833 -27.5 133.5s-43.166 78.167 -74.499 109.5s-67.833 56.166 -109.5 74.499s-86.167 27.5 -133.5 27.5
s-91.833 -9.16699 -133.5 -27.5s-78 -43.166 -109 -74.499s-55.5 -68 -73.5 -110s-27 -86.667 -27 -134zM396 823.999c-10.667 12 -20 20 -28 24s-16.667 6 -26 6c-5.33301 0 -11.5 -0.833008 -18.5 -2.5s-13.833 -4.5 -20.5 -8.5s-12.5 -9.5 -17.5 -16.5
s-8.16699 -16.167 -9.5 -27.5c-2 0.666992 -4.16699 1 -6.5 1s-4.5 0.333008 -6.5 1c0.666992 12 3.66699 22.333 9 31s11.833 15.667 19.5 21s16.167 9.16602 25.5 11.499s18.666 3.5 27.999 3.5c13.333 0 25.5 -3.5 36.5 -10.5s21.833 -16.167 32.5 -27.5
c10.667 -12 20 -20 28 -24s16.667 -6 26 -6c5.33301 0 11.5 0.833008 18.5 2.5s13.833 4.5 20.5 8.5s12.5 9.5 17.5 16.5s8.16699 16.167 9.5 27.5c2 -0.666992 4.16699 -1 6.5 -1s4.5 -0.333008 6.5 -1c-0.666992 -12 -3.66699 -22.333 -9 -31s-11.833 -15.667 -19.5 -21
s-16.167 -9.16602 -25.5 -11.499s-18.666 -3.5 -27.999 -3.5c-13.333 0 -25.5 3.5 -36.5 10.5s-21.833 16.167 -32.5 27.5z" />
    <glyph glyph-name="Odieresis" unicode="&#xd6;" horiz-adv-x="838" 
d="M61 349c0 49.333 9.33301 95.833 28 139.5s44.167 81.667 76.5 114s70.166 58 113.499 77s89.666 28.5 138.999 28.5s95.833 -9.5 139.5 -28.5s81.667 -44.667 114 -77s58 -70.333 77 -114s28.5 -90.167 28.5 -139.5s-9.5 -95.666 -28.5 -138.999
s-44.667 -81.166 -77 -113.499s-70.333 -57.833 -114 -76.5s-90.167 -28 -139.5 -28s-95.666 9.33301 -138.999 28s-81.166 44.167 -113.499 76.5s-57.833 70.166 -76.5 113.499s-28 89.666 -28 138.999zM75 348c0 -47.333 9 -91.667 27 -133s42.333 -77.5 73 -108.5
s66.667 -55.5 108 -73.5s85.333 -27 132 -27c47.333 0 92.166 9 134.499 27s79.333 42.5 111 73.5s56.667 67.333 75 109s27.5 86.167 27.5 133.5s-9.16699 91.833 -27.5 133.5s-43.166 78.167 -74.499 109.5s-67.833 56.166 -109.5 74.499s-86.167 27.5 -133.5 27.5
s-91.833 -9.16699 -133.5 -27.5s-78 -43.166 -109 -74.499s-55.5 -68 -73.5 -110s-27 -86.667 -27 -134zM472 789.999c0 5.33301 2 10 6 14s8.66699 6 14 6s10 -2 14 -6s6 -8.66699 6 -14s-2 -10 -6 -14s-8.66699 -6 -14 -6s-10 2 -14 6s-6 8.66699 -6 14zM307 789.999
c0 5.33301 2 10 6 14s8.66699 6 14 6s10 -2 14 -6s6 -8.66699 6 -14s-2 -10 -6 -14s-8.66699 -6 -14 -6s-10 2 -14 6s-6 8.66699 -6 14z" />
    <glyph glyph-name="multiply" unicode="&#xd7;" horiz-adv-x="426" 
d="M335 0l-123 123l-61 -61.5l-61 -61.5l-10 10l61 61.5l61 61.5l-121 121l10 10l121 -121l61.5 61l61.5 61l10 -10l-61.5 -61l-61.5 -61l123 -123z" />
    <glyph glyph-name="Oslash" unicode="&#xd8;" horiz-adv-x="837" 
d="M101 8l82.5 99l102 121.5l111.5 133l111.5 133l102 122l82.5 99.5l8 -8l-82.5 -99l-102 -122l-111.5 -133l-111.5 -133l-102 -122l-82.5 -99zM59 349c0 49.333 9.33301 95.833 28 139.5s44.167 81.667 76.5 114s70.166 58 113.499 77s89.666 28.5 138.999 28.5
s95.833 -9.5 139.5 -28.5s81.667 -44.667 114 -77s58 -70.333 77 -114s28.5 -90.167 28.5 -139.5s-9.5 -95.666 -28.5 -138.999s-44.667 -81.166 -77 -113.499s-70.333 -57.833 -114 -76.5s-90.167 -28 -139.5 -28s-95.666 9.33301 -138.999 28
s-81.166 44.167 -113.499 76.5s-57.833 70.166 -76.5 113.499s-28 89.666 -28 138.999zM73 348c0 -47.333 9 -91.667 27 -133s42.333 -77.5 73 -108.5s66.667 -55.5 108 -73.5s85.333 -27 132 -27c47.333 0 92.166 9 134.499 27s79.333 42.5 111 73.5s56.667 67.333 75 109
s27.5 86.167 27.5 133.5s-9.16699 91.833 -27.5 133.5s-43.166 78.167 -74.499 109.5s-67.833 56.166 -109.5 74.499s-86.167 27.5 -133.5 27.5s-91.833 -9.16699 -133.5 -27.5s-78 -43.166 -109 -74.499s-55.5 -68 -73.5 -110s-27 -86.667 -27 -134z" />
    <glyph glyph-name="Ugrave" unicode="&#xd9;" horiz-adv-x="668" 
d="M334 -8c-32 0 -61.834 5 -89.501 15s-51.5 24.833 -71.5 44.5s-35.667 44.167 -47 73.5s-17 63 -17 101v474h14v-471c0 -36 5.16699 -67.833 15.5 -95.5s24.833 -51 43.5 -70s41 -33.333 67 -43s54.333 -14.5 85 -14.5c30 0 58 4.83301 84 14.5s48.333 24 67 43
s33.334 42.333 44.001 70s16 59.5 16 95.5v471h14v-474c0 -38 -5.83301 -71.667 -17.5 -101s-27.5 -53.833 -47.5 -73.5s-43.667 -34.5 -71 -44.5s-57 -15 -89 -15zM265.999 883l45 -66.5l45 -66.5h-16l-45 66.5l-45 66.5h16z" />
    <glyph glyph-name="Uacute" unicode="&#xda;" horiz-adv-x="668" 
d="M334 -8c-32 0 -61.834 5 -89.501 15s-51.5 24.833 -71.5 44.5s-35.667 44.167 -47 73.5s-17 63 -17 101v474h14v-471c0 -36 5.16699 -67.833 15.5 -95.5s24.833 -51 43.5 -70s41 -33.333 67 -43s54.333 -14.5 85 -14.5c30 0 58 4.83301 84 14.5s48.333 24 67 43
s33.334 42.333 44.001 70s16 59.5 16 95.5v471h14v-474c0 -38 -5.83301 -71.667 -17.5 -101s-27.5 -53.833 -47.5 -73.5s-43.667 -34.5 -71 -44.5s-57 -15 -89 -15zM316.999 750l45 66.5l45 66.5h16l-45 -66.5l-45 -66.5h-16z" />
    <glyph glyph-name="Ucircumflex" unicode="&#xdb;" horiz-adv-x="668" 
d="M334 -8c-32 0 -61.834 5 -89.501 15s-51.5 24.833 -71.5 44.5s-35.667 44.167 -47 73.5s-17 63 -17 101v474h14v-471c0 -36 5.16699 -67.833 15.5 -95.5s24.833 -51 43.5 -70s41 -33.333 67 -43s54.333 -14.5 85 -14.5c30 0 58 4.83301 84 14.5s48.333 24 67 43
s33.334 42.333 44.001 70s16 59.5 16 95.5v471h14v-474c0 -38 -5.83301 -71.667 -17.5 -101s-27.5 -53.833 -47.5 -73.5s-43.667 -34.5 -71 -44.5s-57 -15 -89 -15zM342.999 931l60 -90.5l60 -90.5h-16l-52 77l-52 77l-52 -77l-52 -77h-16l60 90.5z" />
    <glyph glyph-name="Udieresis" unicode="&#xdc;" horiz-adv-x="668" 
d="M334 -8c-32 0 -61.834 5 -89.501 15s-51.5 24.833 -71.5 44.5s-35.667 44.167 -47 73.5s-17 63 -17 101v474h14v-471c0 -36 5.16699 -67.833 15.5 -95.5s24.833 -51 43.5 -70s41 -33.333 67 -43s54.333 -14.5 85 -14.5c30 0 58 4.83301 84 14.5s48.333 24 67 43
s33.334 42.333 44.001 70s16 59.5 16 95.5v471h14v-474c0 -38 -5.83301 -71.667 -17.5 -101s-27.5 -53.833 -47.5 -73.5s-43.667 -34.5 -71 -44.5s-57 -15 -89 -15zM408.999 790c0 5.33301 2 10 6 14s8.66699 6 14 6s10 -2 14 -6s6 -8.66699 6 -14s-2 -10 -6 -14
s-8.66699 -6 -14 -6s-10 2 -14 6s-6 8.66699 -6 14zM243.999 790c0 5.33301 2 10 6 14s8.66699 6 14 6s10 -2 14 -6s6 -8.66699 6 -14s-2 -10 -6 -14s-8.66699 -6 -14 -6s-10 2 -14 6s-6 8.66699 -6 14z" />
    <glyph glyph-name="Yacute" unicode="&#xdd;" horiz-adv-x="594" 
d="M304 262v-262h-14v262l-131.5 219l-131.5 219h17l121 -200.5l120 -201.5l13 -26l5.5 13l5.5 13l240 402h17zM291 750l45 66.5l45 66.5h16l-45 -66.5l-45 -66.5h-16z" />
    <glyph glyph-name="Thorn" unicode="&#xde;" horiz-adv-x="500" 
d="M119 0v699.997h14v-165h126c19.333 0 40.666 -3.16699 63.999 -9.5s45 -16.666 65 -30.999s36.833 -33.166 50.5 -56.499s20.5 -52.333 20.5 -87c0 -25.333 -4.16699 -49.666 -12.5 -72.999s-21.166 -44 -38.499 -62s-39.5 -32.5 -66.5 -43.5s-59.167 -16.5 -96.5 -16.5
h-112v-156h-14zM133 169.997l115.001 0.000976562c38.667 0 70.667 6.16699 96 18.5s45.5 27.666 60.5 45.999s25.5 38.166 31.5 59.499s9 41 9 59c0 25.333 -5 48.333 -15 69s-23.833 38.334 -41.5 53.001s-38.334 26 -62.001 34s-49.5 12 -77.5 12h-116v-351z" />
    <glyph glyph-name="germandbls" unicode="&#xdf;" horiz-adv-x="528" 
d="M172 22c1.33301 2 2.33594 3.83594 3.00293 5.50293s1.66699 3.5 3 5.5c29.333 -18.667 62 -28 98 -28c26.667 0 51.667 5.16699 75 15.5s43.666 24.166 60.999 41.499s31.166 37.5 41.499 60.5s15.5 47.167 15.5 72.5s-5 49.166 -15 71.499s-23.5 42 -40.5 59
s-37.167 30.5 -60.5 40.5s-48 15 -74 15v7v8c17.333 0 33.666 2.83301 48.999 8.5s28.666 13.667 39.999 24s20.333 22.833 27 37.5s10 31 10 49c0 16 -2.83301 31.833 -8.5 47.5s-14 29.5 -25 41.5s-25.167 21.667 -42.5 29s-37.333 11 -60 11
c-53.333 0 -93.5 -19.5 -120.5 -58.5s-40.5 -90.833 -40.5 -155.5v-430h-14v370h-65v14h65v42c0 74.667 14.833 131.5 44.5 170.5s69.834 59.5 120.501 61.5c31.333 -0.666992 57.333 -5 78 -13s37 -18.5 49 -31.5s20.5 -27.667 25.5 -44s7.5 -32.833 7.5 -49.5
c0 -34 -8.33301 -61.667 -25 -83s-39 -37.333 -67 -48c22 -5.33301 42.5 -14 61.5 -26s35.5 -26.5 49.5 -43.5s25 -36 33 -57s12 -43.5 12 -67.5c0 -28 -5.5 -54.333 -16.5 -79s-25.667 -46.167 -44 -64.5s-40 -32.833 -65 -43.5s-51.5 -16 -79.5 -16
c-19.333 0 -38 2.66699 -56 8s-34.667 12.666 -50 21.999z" />
    <glyph glyph-name="agrave" unicode="&#xe0;" 
d="M59 188c0 -25.333 4.66699 -48.833 14 -70.5s22.166 -40.667 38.499 -57s35.333 -29.166 57 -38.499s45.167 -14 70.5 -14c24.667 0 48 4.66699 70 14s41.333 22.166 58 38.499s29.667 35.333 39 57s14 45.167 14 70.5c0 24.667 -4.66699 48 -14 70
s-22.333 41.333 -39 58s-36 29.667 -58 39s-45.333 14 -70 14c-25.333 0 -48.833 -4.66699 -70.5 -14s-40.667 -22.333 -57 -39s-29.166 -36 -38.499 -58s-14 -45.333 -14 -70zM45 188c0 26.667 5.00098 52.002 15.001 76.002s23.833 44.667 41.5 62
s38.167 31.166 61.5 41.499s48.666 15.5 75.999 15.5c41.333 0 78.166 -11.5 110.499 -34.5s55.833 -52.5 70.5 -88.5c0 19.333 0.333008 38.5 1 57.5s1.66699 38.167 3 57.5h10v-375h-14v54c0 10.667 0.166992 21.167 0.5 31.5s0.5 20.833 0.5 31.5
c-7.33301 -18 -17 -34.5 -29 -49.5s-25.833 -28 -41.5 -39s-33 -19.5 -52 -25.5s-38.833 -9 -59.5 -9c-27.333 0 -52.666 5 -75.999 15s-43.833 23.833 -61.5 41.5s-31.5 38.167 -41.5 61.5s-15 48.666 -15 75.999zM185.001 612.002l45 -66.5l45 -66.5h-16l-45 66.5
l-45 66.5h16z" />
    <glyph glyph-name="aacute" unicode="&#xe1;" 
d="M59 188c0 -25.333 4.66699 -48.833 14 -70.5s22.166 -40.667 38.499 -57s35.333 -29.166 57 -38.499s45.167 -14 70.5 -14c24.667 0 48 4.66699 70 14s41.333 22.166 58 38.499s29.667 35.333 39 57s14 45.167 14 70.5c0 24.667 -4.66699 48 -14 70
s-22.333 41.333 -39 58s-36 29.667 -58 39s-45.333 14 -70 14c-25.333 0 -48.833 -4.66699 -70.5 -14s-40.667 -22.333 -57 -39s-29.166 -36 -38.499 -58s-14 -45.333 -14 -70zM45 188c0 26.667 5.00098 52.002 15.001 76.002s23.833 44.667 41.5 62
s38.167 31.166 61.5 41.499s48.666 15.5 75.999 15.5c41.333 0 78.166 -11.5 110.499 -34.5s55.833 -52.5 70.5 -88.5c0 19.333 0.333008 38.5 1 57.5s1.66699 38.167 3 57.5h10v-375h-14v54c0 10.667 0.166992 21.167 0.5 31.5s0.5 20.833 0.5 31.5
c-7.33301 -18 -17 -34.5 -29 -49.5s-25.833 -28 -41.5 -39s-33 -19.5 -52 -25.5s-38.833 -9 -59.5 -9c-27.333 0 -52.666 5 -75.999 15s-43.833 23.833 -61.5 41.5s-31.5 38.167 -41.5 61.5s-15 48.666 -15 75.999zM247.001 479.002l45 66.5l45 66.5h16l-45 -66.5l-45 -66.5
h-16z" />
    <glyph glyph-name="acircumflex" unicode="&#xe2;" 
d="M59 188c0 -25.333 4.66699 -48.833 14 -70.5s22.166 -40.667 38.499 -57s35.333 -29.166 57 -38.499s45.167 -14 70.5 -14c24.667 0 48 4.66699 70 14s41.333 22.166 58 38.499s29.667 35.333 39 57s14 45.167 14 70.5c0 24.667 -4.66699 48 -14 70
s-22.333 41.333 -39 58s-36 29.667 -58 39s-45.333 14 -70 14c-25.333 0 -48.833 -4.66699 -70.5 -14s-40.667 -22.333 -57 -39s-29.166 -36 -38.499 -58s-14 -45.333 -14 -70zM45 188c0 26.667 5.00098 52.002 15.001 76.002s23.833 44.667 41.5 62
s38.167 31.166 61.5 41.499s48.666 15.5 75.999 15.5c41.333 0 78.166 -11.5 110.499 -34.5s55.833 -52.5 70.5 -88.5c0 19.333 0.333008 38.5 1 57.5s1.66699 38.167 3 57.5h10v-375h-14v54c0 10.667 0.166992 21.167 0.5 31.5s0.5 20.833 0.5 31.5
c-7.33301 -18 -17 -34.5 -29 -49.5s-25.833 -28 -41.5 -39s-33 -19.5 -52 -25.5s-38.833 -9 -59.5 -9c-27.333 0 -52.666 5 -75.999 15s-43.833 23.833 -61.5 41.5s-31.5 38.167 -41.5 61.5s-15 48.666 -15 75.999zM276.001 659.002l60 -90.5l60 -90.5h-16l-52 77l-52 77
l-52 -77l-52 -77h-16l60 90.5z" />
    <glyph glyph-name="atilde" unicode="&#xe3;" 
d="M59 188c0 -25.333 4.66699 -48.833 14 -70.5s22.166 -40.667 38.499 -57s35.333 -29.166 57 -38.499s45.167 -14 70.5 -14c24.667 0 48 4.66699 70 14s41.333 22.166 58 38.499s29.667 35.333 39 57s14 45.167 14 70.5c0 24.667 -4.66699 48 -14 70
s-22.333 41.333 -39 58s-36 29.667 -58 39s-45.333 14 -70 14c-25.333 0 -48.833 -4.66699 -70.5 -14s-40.667 -22.333 -57 -39s-29.166 -36 -38.499 -58s-14 -45.333 -14 -70zM45 188c0 26.667 5.00098 52.002 15.001 76.002s23.833 44.667 41.5 62
s38.167 31.166 61.5 41.499s48.666 15.5 75.999 15.5c41.333 0 78.166 -11.5 110.499 -34.5s55.833 -52.5 70.5 -88.5c0 19.333 0.333008 38.5 1 57.5s1.66699 38.167 3 57.5h10v-375h-14v54c0 10.667 0.166992 21.167 0.5 31.5s0.5 20.833 0.5 31.5
c-7.33301 -18 -17 -34.5 -29 -49.5s-25.833 -28 -41.5 -39s-33 -19.5 -52 -25.5s-38.833 -9 -59.5 -9c-27.333 0 -52.666 5 -75.999 15s-43.833 23.833 -61.5 41.5s-31.5 38.167 -41.5 61.5s-15 48.666 -15 75.999zM274.001 497.002c-10.667 12 -20 20 -28 24
s-16.667 6 -26 6c-5.33301 0 -11.5 -0.833008 -18.5 -2.5s-13.833 -4.5 -20.5 -8.5s-12.5 -9.5 -17.5 -16.5s-8.16699 -16.167 -9.5 -27.5c-2 0.666992 -4.16699 1 -6.5 1s-4.5 0.333008 -6.5 1c0.666992 12 3.66699 22.333 9 31s11.833 15.667 19.5 21
s16.167 9.16602 25.5 11.499s18.666 3.5 27.999 3.5c13.333 0 25.5 -3.5 36.5 -10.5s21.833 -16.167 32.5 -27.5c10.667 -12 20 -20 28 -24s16.667 -6 26 -6c5.33301 0 11.5 0.833008 18.5 2.5s13.833 4.5 20.5 8.5s12.5 9.5 17.5 16.5s8.16699 16.167 9.5 27.5
c2 -0.666992 4.16699 -1 6.5 -1s4.5 -0.333008 6.5 -1c-0.666992 -12 -3.66699 -22.333 -9 -31s-11.833 -15.667 -19.5 -21s-16.167 -9.16602 -25.5 -11.499s-18.666 -3.5 -27.999 -3.5c-13.333 0 -25.5 3.5 -36.5 10.5s-21.833 16.167 -32.5 27.5z" />
    <glyph glyph-name="adieresis" unicode="&#xe4;" 
d="M59 188c0 -25.333 4.66699 -48.833 14 -70.5s22.166 -40.667 38.499 -57s35.333 -29.166 57 -38.499s45.167 -14 70.5 -14c24.667 0 48 4.66699 70 14s41.333 22.166 58 38.499s29.667 35.333 39 57s14 45.167 14 70.5c0 24.667 -4.66699 48 -14 70
s-22.333 41.333 -39 58s-36 29.667 -58 39s-45.333 14 -70 14c-25.333 0 -48.833 -4.66699 -70.5 -14s-40.667 -22.333 -57 -39s-29.166 -36 -38.499 -58s-14 -45.333 -14 -70zM45 188c0 26.667 5.00098 52.002 15.001 76.002s23.833 44.667 41.5 62
s38.167 31.166 61.5 41.499s48.666 15.5 75.999 15.5c41.333 0 78.166 -11.5 110.499 -34.5s55.833 -52.5 70.5 -88.5c0 19.333 0.333008 38.5 1 57.5s1.66699 38.167 3 57.5h10v-375h-14v54c0 10.667 0.166992 21.167 0.5 31.5s0.5 20.833 0.5 31.5
c-7.33301 -18 -17 -34.5 -29 -49.5s-25.833 -28 -41.5 -39s-33 -19.5 -52 -25.5s-38.833 -9 -59.5 -9c-27.333 0 -52.666 5 -75.999 15s-43.833 23.833 -61.5 41.5s-31.5 38.167 -41.5 61.5s-15 48.666 -15 75.999zM341.001 500.002c0 5.33301 2 10 6 14s8.66699 6 14 6
s10 -2 14 -6s6 -8.66699 6 -14s-2 -10 -6 -14s-8.66699 -6 -14 -6s-10 2 -14 6s-6 8.66699 -6 14zM176.001 500.002c0 5.33301 2 10 6 14s8.66699 6 14 6s10 -2 14 -6s6 -8.66699 6 -14s-2 -10 -6 -14s-8.66699 -6 -14 -6s-10 2 -14 6s-6 8.66699 -6 14z" />
    <glyph glyph-name="aring" unicode="&#xe5;" 
d="M197 469c0 -13.333 4.83301 -24.833 14.5 -34.5s21.167 -14.5 34.5 -14.5s24.833 4.83301 34.5 14.5s14.5 21.167 14.5 34.5s-4.83301 24.833 -14.5 34.5s-21.167 14.5 -34.5 14.5s-24.833 -4.83301 -34.5 -14.5s-14.5 -21.167 -14.5 -34.5zM183 469c0 18 6 33 18 45
s27 18 45 18s33 -6 45 -18s18 -27 18 -45s-6 -33 -18 -45s-27 -18 -45 -18s-33 6 -45 18s-18 27 -18 45zM59 188c0 -25.333 4.66699 -48.833 14 -70.5s22.166 -40.667 38.499 -57s35.333 -29.166 57 -38.499s45.167 -14 70.5 -14c24.667 0 48 4.66699 70 14
s41.333 22.166 58 38.499s29.667 35.333 39 57s14 45.167 14 70.5c0 24.667 -4.66699 48 -14 70s-22.333 41.333 -39 58s-36 29.667 -58 39s-45.333 14 -70 14c-25.333 0 -48.833 -4.66699 -70.5 -14s-40.667 -22.333 -57 -39s-29.166 -36 -38.499 -58s-14 -45.333 -14 -70z
M45 188c0 26.667 5.00098 52.002 15.001 76.002s23.833 44.667 41.5 62s38.167 31.166 61.5 41.499s48.666 15.5 75.999 15.5c41.333 0 78.166 -11.5 110.499 -34.5s55.833 -52.5 70.5 -88.5c0 19.333 0.333008 38.5 1 57.5s1.66699 38.167 3 57.5h10v-375h-14v54
c0 10.667 0.166992 21.167 0.5 31.5s0.5 20.833 0.5 31.5c-7.33301 -18 -17 -34.5 -29 -49.5s-25.833 -28 -41.5 -39s-33 -19.5 -52 -25.5s-38.833 -9 -59.5 -9c-27.333 0 -52.666 5 -75.999 15s-43.833 23.833 -61.5 41.5s-31.5 38.167 -41.5 61.5s-15 48.666 -15 75.999z
" />
    <glyph glyph-name="ae" unicode="&#xe6;" horiz-adv-x="622" 
d="M302 324c-9.33301 14 -23.166 24.667 -41.499 32s-43.5 11 -75.5 11c-32.667 0 -57.667 -3.33301 -75 -10s-33 -15 -47 -25l-8 14c13.333 10.667 31.166 19.5 53.499 26.5s49.5 10.5 81.5 10.5c33.333 0 59.833 -4.33301 79.5 -13s34.5 -20.667 44.5 -36zM330 75
c-8 -30 -25.6689 -51.334 -53.002 -64.001s-58.666 -19 -93.999 -19c-22 0 -41.667 3 -59 9s-32 14.167 -44 24.5s-21.167 22.333 -27.5 36s-9.5 27.834 -9.5 42.501c0 15.333 3.5 28.666 10.5 39.999s16.333 20.833 28 28.5s24.5 13.334 38.5 17.001s28 5.5 42 5.5h78
l-1 -17h-60c-23.333 0 -42.666 -2.33301 -57.999 -7s-27.5 -10.5 -36.5 -17.5s-15.333 -14.833 -19 -23.5s-5.5 -17 -5.5 -25c0 -18 3.83301 -33.167 11.5 -45.5s17.667 -22.333 30 -30s26.333 -13.167 42 -16.5s31.167 -5 46.5 -5c39.333 0 69.833 8.5 91.5 25.5
s34.167 36.833 37.5 59.5zM557.998 45.999c-17.333 -16 -37.499 -28.665 -60.499 -37.998s-47.5 -14 -73.5 -14c-27.333 0 -52.666 5 -75.999 15s-43.833 23.833 -61.5 41.5s-31.5 38.167 -41.5 61.5s-15 48.666 -15 75.999c0 26.667 5 52 15 76s23.833 44.833 41.5 62.5
s38.167 31.667 61.5 42s48.666 15.5 75.999 15.5c41.333 0 76.166 -11.833 104.499 -35.5s49.833 -53.5 64.5 -89.5l-81 -32.5l-87 -35.5l-87.5 -35.5l-81.5 -33.5c13.333 -34 35 -61.5 65 -82.5s64.333 -31.5 103 -31.5c24 0 46.5 4.16699 67.5 12.5
s39.5 20.166 55.5 35.499zM573.999 266.001c-14 30 -33.501 54.667 -58.501 74s-55.5 29 -91.5 29c-25.333 0 -48.833 -4.66699 -70.5 -14s-40.667 -22.333 -57 -39s-29.166 -36 -38.499 -58s-14 -45.333 -14 -70c0 -19.333 2.33301 -37 7 -53l78 32l83 33.5l83.5 33.5z" />
    <glyph glyph-name="ccedilla" unicode="&#xe7;" horiz-adv-x="403" 
d="M352 47l10 -9.99902c-17.333 -13.333 -36.333 -23.833 -57 -31.5s-42.667 -11.5 -66 -11.5c-27.333 0 -52.666 5 -75.999 15s-43.833 23.833 -61.5 41.5s-31.5 38.167 -41.5 61.5s-15 48.666 -15 75.999c0 26.667 5 52 15 76s23.833 44.667 41.5 62
s38.167 31.166 61.5 41.499s48.666 15.5 75.999 15.5c23.333 0 45.5 -3.83301 66.5 -11.5s39.833 -18.167 56.5 -31.5c-1.33301 -2 -3 -3.83301 -5 -5.5s-3.66699 -3.5 -5 -5.5c-15.333 12.667 -32.666 22.5 -51.999 29.5s-39.666 10.5 -60.999 10.5
c-25.333 0 -48.833 -4.66699 -70.5 -14s-40.667 -22.333 -57 -39s-29.166 -36 -38.499 -58s-14 -45.333 -14 -70c0 -25.333 4.66699 -48.833 14 -70.5s22.166 -40.667 38.499 -57s35.333 -29.166 57 -38.499s45.167 -14 70.5 -14c21.333 0 41.666 3.5 60.999 10.5
s36.666 16.5 51.999 28.5zM222 0.000976562l14 -0.00292969v-6c0 -17.333 4.66699 -29.5 14 -36.5s18.333 -13.167 27 -18.5c15.333 -10 26.166 -21.167 32.499 -33.5s9.5 -23.166 9.5 -32.499c0 -34 -8.5 -58.5 -25.5 -73.5s-36.5 -22.5 -58.5 -22.5
c-17.333 0 -33.5 4.83301 -48.5 14.5s-25.833 24.167 -32.5 43.5c2.66699 0.666992 5.16699 1.33398 7.5 2.00098s4.83301 1.33398 7.5 2.00098c4 -14 11.833 -25.5 23.5 -34.5s25.834 -13.5 42.501 -13.5c20.667 0 37.5 6.83301 50.5 20.5s19.5 30.834 19.5 51.501
c0 18.667 -4.33301 33 -13 43s-18.167 18.5 -28.5 25.5s-19.833 14.167 -28.5 21.5s-13 17.666 -13 30.999v16z" />
    <glyph glyph-name="egrave" unicode="&#xe8;" horiz-adv-x="437" 
d="M373 46c-17.333 -16 -37.499 -28.665 -60.499 -37.998s-47.5 -14 -73.5 -14c-27.333 0 -52.666 5 -75.999 15s-43.833 23.833 -61.5 41.5s-31.5 38.167 -41.5 61.5s-15 48.666 -15 75.999c0 26.667 5 52 15 76s23.833 44.833 41.5 62.5s38.167 31.667 61.5 42
s48.666 15.5 75.999 15.5c41.333 0 76.166 -11.833 104.499 -35.5s49.833 -53.5 64.5 -89.5l-81 -32.5l-87 -35.5l-87.5 -35.5l-81.5 -33.5c13.333 -34 35 -61.5 65 -82.5s64.333 -31.5 103 -31.5c24 0 46.5 4.16699 67.5 12.5s39.5 20.166 55.5 35.499zM389.001 266.002
c-14 30 -33.501 54.667 -58.501 74s-55.5 29 -91.5 29c-25.333 0 -48.833 -4.66699 -70.5 -14s-40.667 -22.333 -57 -39s-29.166 -36 -38.499 -58s-14 -45.333 -14 -70c0 -19.333 2.33301 -37 7 -53l78 32l83 33.5l83.5 33.5zM151 612.002l45 -66.5l45 -66.5h-16l-45 66.5
l-45 66.5h16z" />
    <glyph glyph-name="eacute" unicode="&#xe9;" horiz-adv-x="437" 
d="M373 46c-17.333 -16 -37.499 -28.665 -60.499 -37.998s-47.5 -14 -73.5 -14c-27.333 0 -52.666 5 -75.999 15s-43.833 23.833 -61.5 41.5s-31.5 38.167 -41.5 61.5s-15 48.666 -15 75.999c0 26.667 5 52 15 76s23.833 44.833 41.5 62.5s38.167 31.667 61.5 42
s48.666 15.5 75.999 15.5c41.333 0 76.166 -11.833 104.499 -35.5s49.833 -53.5 64.5 -89.5l-81 -32.5l-87 -35.5l-87.5 -35.5l-81.5 -33.5c13.333 -34 35 -61.5 65 -82.5s64.333 -31.5 103 -31.5c24 0 46.5 4.16699 67.5 12.5s39.5 20.166 55.5 35.499zM389.001 266.002
c-14 30 -33.501 54.667 -58.501 74s-55.5 29 -91.5 29c-25.333 0 -48.833 -4.66699 -70.5 -14s-40.667 -22.333 -57 -39s-29.166 -36 -38.499 -58s-14 -45.333 -14 -70c0 -19.333 2.33301 -37 7 -53l78 32l83 33.5l83.5 33.5zM242 479.002l45 66.5l45 66.5h16l-45 -66.5
l-45 -66.5h-16z" />
    <glyph glyph-name="ecircumflex" unicode="&#xea;" horiz-adv-x="437" 
d="M373 46c-17.333 -16 -37.499 -28.665 -60.499 -37.998s-47.5 -14 -73.5 -14c-27.333 0 -52.666 5 -75.999 15s-43.833 23.833 -61.5 41.5s-31.5 38.167 -41.5 61.5s-15 48.666 -15 75.999c0 26.667 5 52 15 76s23.833 44.833 41.5 62.5s38.167 31.667 61.5 42
s48.666 15.5 75.999 15.5c41.333 0 76.166 -11.833 104.499 -35.5s49.833 -53.5 64.5 -89.5l-81 -32.5l-87 -35.5l-87.5 -35.5l-81.5 -33.5c13.333 -34 35 -61.5 65 -82.5s64.333 -31.5 103 -31.5c24 0 46.5 4.16699 67.5 12.5s39.5 20.166 55.5 35.499zM389.001 266.002
c-14 30 -33.501 54.667 -58.501 74s-55.5 29 -91.5 29c-25.333 0 -48.833 -4.66699 -70.5 -14s-40.667 -22.333 -57 -39s-29.166 -36 -38.499 -58s-14 -45.333 -14 -70c0 -19.333 2.33301 -37 7 -53l78 32l83 33.5l83.5 33.5zM241 660.002l60 -90.5l60 -90.5h-16l-52 77
l-52 77l-52 -77l-52 -77h-16l60 90.5z" />
    <glyph glyph-name="edieresis" unicode="&#xeb;" horiz-adv-x="437" 
d="M373 46c-17.333 -16 -37.499 -28.665 -60.499 -37.998s-47.5 -14 -73.5 -14c-27.333 0 -52.666 5 -75.999 15s-43.833 23.833 -61.5 41.5s-31.5 38.167 -41.5 61.5s-15 48.666 -15 75.999c0 26.667 5 52 15 76s23.833 44.833 41.5 62.5s38.167 31.667 61.5 42
s48.666 15.5 75.999 15.5c41.333 0 76.166 -11.833 104.499 -35.5s49.833 -53.5 64.5 -89.5l-81 -32.5l-87 -35.5l-87.5 -35.5l-81.5 -33.5c13.333 -34 35 -61.5 65 -82.5s64.333 -31.5 103 -31.5c24 0 46.5 4.16699 67.5 12.5s39.5 20.166 55.5 35.499zM389.001 266.002
c-14 30 -33.501 54.667 -58.501 74s-55.5 29 -91.5 29c-25.333 0 -48.833 -4.66699 -70.5 -14s-40.667 -22.333 -57 -39s-29.166 -36 -38.499 -58s-14 -45.333 -14 -70c0 -19.333 2.33301 -37 7 -53l78 32l83 33.5l83.5 33.5zM301 500.002c0 5.33301 2 10 6 14
s8.66699 6 14 6s10 -2 14 -6s6 -8.66699 6 -14s-2 -10 -6 -14s-8.66699 -6 -14 -6s-10 2 -14 6s-6 8.66699 -6 14zM136 500.002c0 5.33301 2 10 6 14s8.66699 6 14 6s10 -2 14 -6s6 -8.66699 6 -14s-2 -10 -6 -14s-8.66699 -6 -14 -6s-10 2 -14 6s-6 8.66699 -6 14z" />
    <glyph glyph-name="igrave" unicode="&#xec;" horiz-adv-x="166" 
d="M90 0h-14v375h14v-375zM12 612l45 -66.5l45 -66.5h-16l-45 66.5l-45 66.5h16z" />
    <glyph glyph-name="iacute" unicode="&#xed;" horiz-adv-x="166" 
d="M90 0h-14v375h14v-375zM76 479l45 66.5l45 66.5h16l-45 -66.5l-45 -66.5h-16z" />
    <glyph glyph-name="icircumflex" unicode="&#xee;" horiz-adv-x="166" 
d="M90 0h-14v375h14v-375zM84 660l60 -90.5l60 -90.5h-16l-52 77l-52 77l-52 -77l-52 -77h-16l60 90.5z" />
    <glyph glyph-name="idieresis" unicode="&#xef;" horiz-adv-x="166" 
d="M90 0h-14v375h14v-375zM146 500c0 5.33301 2 10 6 14s8.66699 6 14 6s10 -2 14 -6s6 -8.66699 6 -14s-2 -10 -6 -14s-8.66699 -6 -14 -6s-10 2 -14 6s-6 8.66699 -6 14zM-19 500c0 5.33301 2 10 6 14s8.66699 6 14 6s10 -2 14 -6s6 -8.66699 6 -14s-2 -10 -6 -14
s-8.66699 -6 -14 -6s-10 2 -14 6s-6 8.66699 -6 14z" />
    <glyph glyph-name="eth" unicode="&#xf0;" horiz-adv-x="488" 
d="M142 547l38.001 41l38 41l-45 45.5c-15.333 15 -31.666 29.167 -48.999 42.5l6 9c32 -24 64 -53.667 96 -89c11.333 13.333 23 26.166 35 38.499s23.667 25.166 35 38.499c1.33301 -1.33301 2.66602 -2.5 3.99902 -3.5s2.66602 -2.16699 3.99902 -3.5l-35.5 -39
l-35.5 -39c27.333 -32 53.333 -66.333 78 -103s46.334 -74 65.001 -112s33.5 -76.167 44.5 -114.5s16.5 -75.5 16.5 -111.5c0 -18 -0.833008 -26.667 -2.5 -26s-4 7.33398 -7 20.001s-6.33301 29.334 -10 50.001s-7.83398 41.667 -12.501 63
c-4 18.667 -10.5 40.167 -19.5 64.5s-20.833 50.5 -35.5 78.5s-32.167 57.333 -52.5 88s-44.5 62 -72.5 94l-75 -81zM45.001 188c0 26.667 5 52 15 76s23.833 44.833 41.5 62.5s38.167 31.667 61.5 42s48.666 15.5 75.999 15.5c26.667 0 52 -5.16699 76 -15.5
s44.833 -24.333 62.5 -42s31.667 -38.5 42 -62.5s15.5 -49.333 15.5 -76c0 -27.333 -5.16699 -52.666 -15.5 -75.999s-24.333 -43.833 -42 -61.5s-38.5 -31.5 -62.5 -41.5s-49.333 -15 -76 -15c-27.333 0 -52.666 5 -75.999 15s-43.833 23.833 -61.5 41.5
s-31.5 38.167 -41.5 61.5s-15 48.666 -15 75.999zM59.001 188c0 -25.333 4.66699 -48.833 14 -70.5s22.166 -40.667 38.499 -57s35.333 -29.166 57 -38.499s45.167 -14 70.5 -14c24.667 0 48 4.66699 70 14s41.333 22.166 58 38.499s29.667 35.333 39 57s14 45.167 14 70.5
c0 24.667 -4.66699 48 -14 70s-22.333 41.333 -39 58s-36 29.667 -58 39s-45.333 14 -70 14c-25.333 0 -48.833 -4.66699 -70.5 -14s-40.667 -22.333 -57 -39s-29.166 -36 -38.499 -58s-14 -45.333 -14 -70z" />
    <glyph glyph-name="ntilde" unicode="&#xf1;" horiz-adv-x="440" 
d="M76 375h10.001l1 -98c13.333 31.333 34.666 56.666 63.999 75.999s63 29 101 29c35.333 0 63.166 -10.333 83.499 -31s31.166 -47.667 32.499 -81v-270h-14v277c-1.33301 24 -10.166 44.833 -26.499 62.5s-39.166 27.167 -68.499 28.5
c-22.667 0 -44.167 -3.66699 -64.5 -11s-38.333 -17.5 -54 -30.5s-28 -28.667 -37 -47s-13.5 -38.166 -13.5 -59.499v-220h-14v375zM218.001 485c-10.667 12 -20 20 -28 24s-16.667 6 -26 6c-5.33301 0 -11.5 -0.833008 -18.5 -2.5s-13.833 -4.5 -20.5 -8.5
s-12.5 -9.5 -17.5 -16.5s-8.16699 -16.167 -9.5 -27.5c-2 0.666992 -4.16699 1 -6.5 1s-4.5 0.333008 -6.5 1c0.666992 12 3.66699 22.333 9 31s11.833 15.667 19.5 21s16.167 9.16602 25.5 11.499s18.666 3.5 27.999 3.5c13.333 0 25.5 -3.5 36.5 -10.5
s21.833 -16.167 32.5 -27.5c10.667 -12 20 -20 28 -24s16.667 -6 26 -6c5.33301 0 11.5 0.833008 18.5 2.5s13.833 4.5 20.5 8.5s12.5 9.5 17.5 16.5s8.16699 16.167 9.5 27.5c2 -0.666992 4.16699 -1 6.5 -1s4.5 -0.333008 6.5 -1c-0.666992 -12 -3.66699 -22.333 -9 -31
s-11.833 -15.667 -19.5 -21s-16.167 -9.16602 -25.5 -11.499s-18.666 -3.5 -27.999 -3.5c-13.333 0 -25.5 3.5 -36.5 10.5s-21.833 16.167 -32.5 27.5z" />
    <glyph glyph-name="ograve" unicode="&#xf2;" horiz-adv-x="480" 
d="M45 188c0 26.667 5 52 15 76s23.833 44.833 41.5 62.5s38.167 31.667 61.5 42s48.666 15.5 75.999 15.5c26.667 0 52 -5.16699 76 -15.5s44.833 -24.333 62.5 -42s31.667 -38.5 42 -62.5s15.5 -49.333 15.5 -76c0 -27.333 -5.16699 -52.666 -15.5 -75.999
s-24.333 -43.833 -42 -61.5s-38.5 -31.5 -62.5 -41.5s-49.333 -15 -76 -15c-27.333 0 -52.666 5 -75.999 15s-43.833 23.833 -61.5 41.5s-31.5 38.167 -41.5 61.5s-15 48.666 -15 75.999zM59 188c0 -25.333 4.66699 -48.833 14 -70.5s22.166 -40.667 38.499 -57
s35.333 -29.166 57 -38.499s45.167 -14 70.5 -14c24.667 0 48 4.66699 70 14s41.333 22.166 58 38.499s29.667 35.333 39 57s14 45.167 14 70.5c0 24.667 -4.66699 48 -14 70s-22.333 41.333 -39 58s-36 29.667 -58 39s-45.333 14 -70 14
c-25.333 0 -48.833 -4.66699 -70.5 -14s-40.667 -22.333 -57 -39s-29.166 -36 -38.499 -58s-14 -45.333 -14 -70zM149 612l45 -66.5l45 -66.5h-16l-45 66.5l-45 66.5h16z" />
    <glyph glyph-name="oacute" unicode="&#xf3;" horiz-adv-x="480" 
d="M45 188c0 26.667 5 52 15 76s23.833 44.833 41.5 62.5s38.167 31.667 61.5 42s48.666 15.5 75.999 15.5c26.667 0 52 -5.16699 76 -15.5s44.833 -24.333 62.5 -42s31.667 -38.5 42 -62.5s15.5 -49.333 15.5 -76c0 -27.333 -5.16699 -52.666 -15.5 -75.999
s-24.333 -43.833 -42 -61.5s-38.5 -31.5 -62.5 -41.5s-49.333 -15 -76 -15c-27.333 0 -52.666 5 -75.999 15s-43.833 23.833 -61.5 41.5s-31.5 38.167 -41.5 61.5s-15 48.666 -15 75.999zM59 188c0 -25.333 4.66699 -48.833 14 -70.5s22.166 -40.667 38.499 -57
s35.333 -29.166 57 -38.499s45.167 -14 70.5 -14c24.667 0 48 4.66699 70 14s41.333 22.166 58 38.499s29.667 35.333 39 57s14 45.167 14 70.5c0 24.667 -4.66699 48 -14 70s-22.333 41.333 -39 58s-36 29.667 -58 39s-45.333 14 -70 14
c-25.333 0 -48.833 -4.66699 -70.5 -14s-40.667 -22.333 -57 -39s-29.166 -36 -38.499 -58s-14 -45.333 -14 -70zM240 479l45 66.5l45 66.5h16l-45 -66.5l-45 -66.5h-16z" />
    <glyph glyph-name="ocircumflex" unicode="&#xf4;" horiz-adv-x="480" 
d="M45 188c0 26.667 5 52 15 76s23.833 44.833 41.5 62.5s38.167 31.667 61.5 42s48.666 15.5 75.999 15.5c26.667 0 52 -5.16699 76 -15.5s44.833 -24.333 62.5 -42s31.667 -38.5 42 -62.5s15.5 -49.333 15.5 -76c0 -27.333 -5.16699 -52.666 -15.5 -75.999
s-24.333 -43.833 -42 -61.5s-38.5 -31.5 -62.5 -41.5s-49.333 -15 -76 -15c-27.333 0 -52.666 5 -75.999 15s-43.833 23.833 -61.5 41.5s-31.5 38.167 -41.5 61.5s-15 48.666 -15 75.999zM59 188c0 -25.333 4.66699 -48.833 14 -70.5s22.166 -40.667 38.499 -57
s35.333 -29.166 57 -38.499s45.167 -14 70.5 -14c24.667 0 48 4.66699 70 14s41.333 22.166 58 38.499s29.667 35.333 39 57s14 45.167 14 70.5c0 24.667 -4.66699 48 -14 70s-22.333 41.333 -39 58s-36 29.667 -58 39s-45.333 14 -70 14
c-25.333 0 -48.833 -4.66699 -70.5 -14s-40.667 -22.333 -57 -39s-29.166 -36 -38.499 -58s-14 -45.333 -14 -70zM239 660l60 -90.5l60 -90.5h-16l-52 77l-52 77l-52 -77l-52 -77h-16l60 90.5z" />
    <glyph glyph-name="otilde" unicode="&#xf5;" horiz-adv-x="480" 
d="M45 188c0 26.667 5 52 15 76s23.833 44.833 41.5 62.5s38.167 31.667 61.5 42s48.666 15.5 75.999 15.5c26.667 0 52 -5.16699 76 -15.5s44.833 -24.333 62.5 -42s31.667 -38.5 42 -62.5s15.5 -49.333 15.5 -76c0 -27.333 -5.16699 -52.666 -15.5 -75.999
s-24.333 -43.833 -42 -61.5s-38.5 -31.5 -62.5 -41.5s-49.333 -15 -76 -15c-27.333 0 -52.666 5 -75.999 15s-43.833 23.833 -61.5 41.5s-31.5 38.167 -41.5 61.5s-15 48.666 -15 75.999zM59 188c0 -25.333 4.66699 -48.833 14 -70.5s22.166 -40.667 38.499 -57
s35.333 -29.166 57 -38.499s45.167 -14 70.5 -14c24.667 0 48 4.66699 70 14s41.333 22.166 58 38.499s29.667 35.333 39 57s14 45.167 14 70.5c0 24.667 -4.66699 48 -14 70s-22.333 41.333 -39 58s-36 29.667 -58 39s-45.333 14 -70 14
c-25.333 0 -48.833 -4.66699 -70.5 -14s-40.667 -22.333 -57 -39s-29.166 -36 -38.499 -58s-14 -45.333 -14 -70zM233 497c-10.667 12 -20 20 -28 24s-16.667 6 -26 6c-5.33301 0 -11.5 -0.833008 -18.5 -2.5s-13.833 -4.5 -20.5 -8.5s-12.5 -9.5 -17.5 -16.5
s-8.16699 -16.167 -9.5 -27.5c-2 0.666992 -4.16699 1 -6.5 1s-4.5 0.333008 -6.5 1c0.666992 12 3.66699 22.333 9 31s11.833 15.667 19.5 21s16.167 9.16602 25.5 11.499s18.666 3.5 27.999 3.5c13.333 0 25.5 -3.5 36.5 -10.5s21.833 -16.167 32.5 -27.5
c10.667 -12 20 -20 28 -24s16.667 -6 26 -6c5.33301 0 11.5 0.833008 18.5 2.5s13.833 4.5 20.5 8.5s12.5 9.5 17.5 16.5s8.16699 16.167 9.5 27.5c2 -0.666992 4.16699 -1 6.5 -1s4.5 -0.333008 6.5 -1c-0.666992 -12 -3.66699 -22.333 -9 -31s-11.833 -15.667 -19.5 -21
s-16.167 -9.16602 -25.5 -11.499s-18.666 -3.5 -27.999 -3.5c-13.333 0 -25.5 3.5 -36.5 10.5s-21.833 16.167 -32.5 27.5z" />
    <glyph glyph-name="odieresis" unicode="&#xf6;" horiz-adv-x="480" 
d="M45 188c0 26.667 5 52 15 76s23.833 44.833 41.5 62.5s38.167 31.667 61.5 42s48.666 15.5 75.999 15.5c26.667 0 52 -5.16699 76 -15.5s44.833 -24.333 62.5 -42s31.667 -38.5 42 -62.5s15.5 -49.333 15.5 -76c0 -27.333 -5.16699 -52.666 -15.5 -75.999
s-24.333 -43.833 -42 -61.5s-38.5 -31.5 -62.5 -41.5s-49.333 -15 -76 -15c-27.333 0 -52.666 5 -75.999 15s-43.833 23.833 -61.5 41.5s-31.5 38.167 -41.5 61.5s-15 48.666 -15 75.999zM59 188c0 -25.333 4.66699 -48.833 14 -70.5s22.166 -40.667 38.499 -57
s35.333 -29.166 57 -38.499s45.167 -14 70.5 -14c24.667 0 48 4.66699 70 14s41.333 22.166 58 38.499s29.667 35.333 39 57s14 45.167 14 70.5c0 24.667 -4.66699 48 -14 70s-22.333 41.333 -39 58s-36 29.667 -58 39s-45.333 14 -70 14
c-25.333 0 -48.833 -4.66699 -70.5 -14s-40.667 -22.333 -57 -39s-29.166 -36 -38.499 -58s-14 -45.333 -14 -70zM306 500c0 5.33301 2 10 6 14s8.66699 6 14 6s10 -2 14 -6s6 -8.66699 6 -14s-2 -10 -6 -14s-8.66699 -6 -14 -6s-10 2 -14 6s-6 8.66699 -6 14zM141 500
c0 5.33301 2 10 6 14s8.66699 6 14 6s10 -2 14 -6s6 -8.66699 6 -14s-2 -10 -6 -14s-8.66699 -6 -14 -6s-10 2 -14 6s-6 8.66699 -6 14z" />
    <glyph glyph-name="divide" unicode="&#xf7;" horiz-adv-x="523" 
d="M442 210h-360v14h360v-14zM245 341c0 5.33301 2 10 6 14s8.66699 6 14 6s10 -2 14 -6s6 -8.66699 6 -14s-2 -10 -6 -14s-8.66699 -6 -14 -6s-10 2 -14 6s-6 8.66699 -6 14zM245 91c0 5.33301 2 10 6 14s8.66699 6 14 6s10 -2 14 -6s6 -8.66699 6 -14s-2 -10 -6 -14
s-8.66699 -6 -14 -6s-10 2 -14 6s-6 8.66699 -6 14z" />
    <glyph glyph-name="oslash" unicode="&#xf8;" horiz-adv-x="480" 
d="M72 10l67.5 80l85.5 102.5l85.5 102.5l67.5 80l9 -9l-67.5 -80.5l-86 -102.5l-86 -102.5l-67.5 -80.5zM45 188c0 26.667 5 52 15 76s23.833 44.833 41.5 62.5s38.167 31.667 61.5 42s48.666 15.5 75.999 15.5c26.667 0 52 -5.16699 76 -15.5s44.833 -24.333 62.5 -42
s31.667 -38.5 42 -62.5s15.5 -49.333 15.5 -76c0 -27.333 -5.16699 -52.666 -15.5 -75.999s-24.333 -43.833 -42 -61.5s-38.5 -31.5 -62.5 -41.5s-49.333 -15 -76 -15c-27.333 0 -52.666 5 -75.999 15s-43.833 23.833 -61.5 41.5s-31.5 38.167 -41.5 61.5
s-15 48.666 -15 75.999zM59 188c0 -25.333 4.66699 -48.833 14 -70.5s22.166 -40.667 38.499 -57s35.333 -29.166 57 -38.499s45.167 -14 70.5 -14c24.667 0 48 4.66699 70 14s41.333 22.166 58 38.499s29.667 35.333 39 57s14 45.167 14 70.5c0 24.667 -4.66699 48 -14 70
s-22.333 41.333 -39 58s-36 29.667 -58 39s-45.333 14 -70 14c-25.333 0 -48.833 -4.66699 -70.5 -14s-40.667 -22.333 -57 -39s-29.166 -36 -38.499 -58s-14 -45.333 -14 -70z" />
    <glyph glyph-name="ugrave" unicode="&#xf9;" horiz-adv-x="440" 
d="M364 0l-9.99805 0.000976562l-1 98c-13.333 -32 -34.833 -57.5 -64.5 -76.5s-63.167 -28.5 -100.5 -28.5c-35.333 0 -63.166 10.333 -83.499 31s-31.166 47.667 -32.499 81v270h14v-277c1.33301 -24 10.166 -44.833 26.499 -62.5s39.166 -27.167 68.499 -28.5
c22.667 0 44.167 3.66699 64.5 11s38.166 17.5 53.499 30.5s27.666 28.667 36.999 47s14 38.166 14 59.499v220h14v-375zM204.002 612.001l45 -66.5l45 -66.5h-16l-45 66.5l-45 66.5h16z" />
    <glyph glyph-name="uacute" unicode="&#xfa;" horiz-adv-x="440" 
d="M364 0l-9.99805 0.000976562l-1 98c-13.333 -32 -34.833 -57.5 -64.5 -76.5s-63.167 -28.5 -100.5 -28.5c-35.333 0 -63.166 10.333 -83.499 31s-31.166 47.667 -32.499 81v270h14v-277c1.33301 -24 10.166 -44.833 26.499 -62.5s39.166 -27.167 68.499 -28.5
c22.667 0 44.167 3.66699 64.5 11s38.166 17.5 53.499 30.5s27.666 28.667 36.999 47s14 38.166 14 59.499v220h14v-375zM243.002 479.001l45 66.5l45 66.5h16l-45 -66.5l-45 -66.5h-16z" />
    <glyph glyph-name="ucircumflex" unicode="&#xfb;" horiz-adv-x="440" 
d="M364 0l-9.99805 0.000976562l-1 98c-13.333 -32 -34.833 -57.5 -64.5 -76.5s-63.167 -28.5 -100.5 -28.5c-35.333 0 -63.166 10.333 -83.499 31s-31.166 47.667 -32.499 81v270h14v-277c1.33301 -24 10.166 -44.833 26.499 -62.5s39.166 -27.167 68.499 -28.5
c22.667 0 44.167 3.66699 64.5 11s38.166 17.5 53.499 30.5s27.666 28.667 36.999 47s14 38.166 14 59.499v220h14v-375zM278.002 660.001l60 -90.5l60 -90.5h-16l-52 77l-52 77l-52 -77l-52 -77h-16l60 90.5z" />
    <glyph glyph-name="udieresis" unicode="&#xfc;" horiz-adv-x="440" 
d="M364 0l-9.99805 0.000976562l-1 98c-13.333 -32 -34.833 -57.5 -64.5 -76.5s-63.167 -28.5 -100.5 -28.5c-35.333 0 -63.166 10.333 -83.499 31s-31.166 47.667 -32.499 81v270h14v-277c1.33301 -24 10.166 -44.833 26.499 -62.5s39.166 -27.167 68.499 -28.5
c22.667 0 44.167 3.66699 64.5 11s38.166 17.5 53.499 30.5s27.666 28.667 36.999 47s14 38.166 14 59.499v220h14v-375zM334.002 500.001c0 5.33301 2 10 6 14s8.66699 6 14 6s10 -2 14 -6s6 -8.66699 6 -14s-2 -10 -6 -14s-8.66699 -6 -14 -6s-10 2 -14 6
s-6 8.66699 -6 14zM169.002 500.001c0 5.33301 2 10 6 14s8.66699 6 14 6s10 -2 14 -6s6 -8.66699 6 -14s-2 -10 -6 -14s-8.66699 -6 -14 -6s-10 2 -14 6s-6 8.66699 -6 14z" />
    <glyph glyph-name="yacute" unicode="&#xfd;" horiz-adv-x="403" 
d="M138 -180l-19.0049 0.000976562c7.33301 16 13.5 30.333 18.5 43l15 38.5l16 42.5c5.66699 15.333 12.834 33.666 21.501 54.999c-30.667 62.667 -58.5 125.167 -83.5 187.5s-52.833 125.166 -83.5 188.499h15c30.667 -60.667 57.834 -121.667 81.501 -183
s50.834 -122.666 81.501 -183.999c30.667 61.333 57.834 122.5 81.501 183.5s50.834 122.167 81.501 183.5h15zM213.995 479.001l45 66.5l45 66.5h16l-45 -66.5l-45 -66.5h-16z" />
    <glyph glyph-name="thorn" unicode="&#xfe;" 
d="M451 188c0 24.667 -4.66699 48 -14 70s-22.166 41.333 -38.499 58s-35.5 29.667 -57.5 39s-45.333 14 -70 14c-25.333 0 -48.833 -4.66699 -70.5 -14s-40.834 -22.333 -57.501 -39s-29.667 -36 -39 -58s-14 -45.333 -14 -70c0 -25.333 4.66699 -48.833 14 -70.5
s22.333 -40.667 39 -57s35.834 -29.166 57.501 -38.499s45.167 -14 70.5 -14c24.667 0 48 4.66699 70 14s41.167 22.166 57.5 38.499s29.166 35.333 38.499 57s14 45.167 14 70.5zM465 188c0 -27.333 -4.99902 -52.668 -14.999 -76.001s-23.833 -43.833 -41.5 -61.5
s-38.334 -31.5 -62.001 -41.5s-48.834 -15 -75.501 -15c-20.667 0 -40.5 3 -59.5 9s-36.333 14.5 -52 25.5s-29.667 24 -42 39s-21.833 31.5 -28.5 49.5c0 -10.667 0.166992 -21.167 0.5 -31.5s0.5 -20.833 0.5 -31.5v-234h-14v930h14v-490c14.667 36 38.167 65.5 70.5 88.5
s69.166 34.5 110.499 34.5c26.667 0 51.834 -5.16699 75.501 -15.5s44.334 -24.166 62.001 -41.499s31.5 -38 41.5 -62s15 -49.333 15 -76z" />
    <glyph glyph-name="ydieresis" unicode="&#xff;" horiz-adv-x="403" 
d="M138 -180l-19.0049 0.000976562c7.33301 16 13.5 30.333 18.5 43l15 38.5l16 42.5c5.66699 15.333 12.834 33.666 21.501 54.999c-30.667 62.667 -58.5 125.167 -83.5 187.5s-52.833 125.166 -83.5 188.499h15c30.667 -60.667 57.834 -121.667 81.501 -183
s50.834 -122.666 81.501 -183.999c30.667 61.333 57.834 122.5 81.501 183.5s50.834 122.167 81.501 183.5h15zM290.995 500.001c0 5.33301 2 10 6 14s8.66699 6 14 6s10 -2 14 -6s6 -8.66699 6 -14s-2 -10 -6 -14s-8.66699 -6 -14 -6s-10 2 -14 6s-6 8.66699 -6 14z
M125.995 500.001c0 5.33301 2 10 6 14s8.66699 6 14 6s10 -2 14 -6s6 -8.66699 6 -14s-2 -10 -6 -14s-8.66699 -6 -14 -6s-10 2 -14 6s-6 8.66699 -6 14z" />
    <glyph glyph-name="Amacron" unicode="&#x100;" horiz-adv-x="640" 
d="M166 318h309v14h-309v-14zM610 0c-51.333 122 -99.666 244 -144.999 366s-93.666 244 -144.999 366c-51.333 -122 -99.666 -244 -144.999 -366s-93.666 -244 -144.999 -366h15c47.333 112.667 91.666 225.167 132.999 337.5s85.666 224.833 132.999 337.5
c1.33301 4 2.83301 8.16699 4.5 12.5s3.16699 8.5 4.5 12.5c1.33301 -4 2.83301 -8.16699 4.5 -12.5s3.16699 -8.5 4.5 -12.5c47.333 -112.667 91.666 -225.167 132.999 -337.5s85.666 -224.833 132.999 -337.5h15zM205 752v14h230v-14h-230z" />
    <glyph glyph-name="amacron" unicode="&#x101;" 
d="M59 188c0 -25.333 4.66699 -48.833 14 -70.5s22.166 -40.667 38.499 -57s35.333 -29.166 57 -38.499s45.167 -14 70.5 -14c24.667 0 48 4.66699 70 14s41.333 22.166 58 38.499s29.667 35.333 39 57s14 45.167 14 70.5c0 24.667 -4.66699 48 -14 70
s-22.333 41.333 -39 58s-36 29.667 -58 39s-45.333 14 -70 14c-25.333 0 -48.833 -4.66699 -70.5 -14s-40.667 -22.333 -57 -39s-29.166 -36 -38.499 -58s-14 -45.333 -14 -70zM45 188c0 26.667 5.00098 52.002 15.001 76.002s23.833 44.667 41.5 62
s38.167 31.166 61.5 41.499s48.666 15.5 75.999 15.5c41.333 0 78.166 -11.5 110.499 -34.5s55.833 -52.5 70.5 -88.5c0 19.333 0.333008 38.5 1 57.5s1.66699 38.167 3 57.5h10v-375h-14v54c0 10.667 0.166992 21.167 0.5 31.5s0.5 20.833 0.5 31.5
c-7.33301 -18 -17 -34.5 -29 -49.5s-25.833 -28 -41.5 -39s-33 -19.5 -52 -25.5s-38.833 -9 -59.5 -9c-27.333 0 -52.666 5 -75.999 15s-43.833 23.833 -61.5 41.5s-31.5 38.167 -41.5 61.5s-15 48.666 -15 75.999zM149.001 492.002v14h230v-14h-230z" />
    <glyph glyph-name="Abreve" unicode="&#x102;" horiz-adv-x="640" 
d="M166 318h309v14h-309v-14zM610 0c-51.333 122 -99.666 244 -144.999 366s-93.666 244 -144.999 366c-51.333 -122 -99.666 -244 -144.999 -366s-93.666 -244 -144.999 -366h15c47.333 112.667 91.666 225.167 132.999 337.5s85.666 224.833 132.999 337.5
c1.33301 4 2.83301 8.16699 4.5 12.5s3.16699 8.5 4.5 12.5c1.33301 -4 2.83301 -8.16699 4.5 -12.5s3.16699 -8.5 4.5 -12.5c47.333 -112.667 91.666 -225.167 132.999 -337.5s85.666 -224.833 132.999 -337.5h15zM321 750c-22 0 -42.8311 4 -62.498 12
s-36.834 19 -51.501 33s-26.334 30.667 -35.001 50s-13.334 40 -14.001 62h15c0.666992 -19.333 4.83398 -37.5 12.501 -54.5s18 -32.167 31 -45.5s28.333 -23.833 46 -31.5s37.167 -11.5 58.5 -11.5s40.833 3.83301 58.5 11.5s32.834 18.167 45.501 31.5
s22.5 28.5 29.5 45.5s10.833 35.167 11.5 54.5h16c0 -22 -4.33301 -42.667 -13 -62s-20.334 -36 -35.001 -50s-31.667 -25 -51 -33s-40 -12 -62 -12z" />
    <glyph glyph-name="abreve" unicode="&#x103;" 
d="M59 188c0 -25.333 4.66699 -48.833 14 -70.5s22.166 -40.667 38.499 -57s35.333 -29.166 57 -38.499s45.167 -14 70.5 -14c24.667 0 48 4.66699 70 14s41.333 22.166 58 38.499s29.667 35.333 39 57s14 45.167 14 70.5c0 24.667 -4.66699 48 -14 70
s-22.333 41.333 -39 58s-36 29.667 -58 39s-45.333 14 -70 14c-25.333 0 -48.833 -4.66699 -70.5 -14s-40.667 -22.333 -57 -39s-29.166 -36 -38.499 -58s-14 -45.333 -14 -70zM45 188c0 26.667 5.00098 52.002 15.001 76.002s23.833 44.667 41.5 62
s38.167 31.166 61.5 41.499s48.666 15.5 75.999 15.5c41.333 0 78.166 -11.5 110.499 -34.5s55.833 -52.5 70.5 -88.5c0 19.333 0.333008 38.5 1 57.5s1.66699 38.167 3 57.5h10v-375h-14v54c0 10.667 0.166992 21.167 0.5 31.5s0.5 20.833 0.5 31.5
c-7.33301 -18 -17 -34.5 -29 -49.5s-25.833 -28 -41.5 -39s-33 -19.5 -52 -25.5s-38.833 -9 -59.5 -9c-27.333 0 -52.666 5 -75.999 15s-43.833 23.833 -61.5 41.5s-31.5 38.167 -41.5 61.5s-15 48.666 -15 75.999zM266.001 500.002c-22 0 -42.8311 4 -62.498 12
s-36.834 19 -51.501 33s-26.334 30.667 -35.001 50s-13.334 40 -14.001 62h15c0.666992 -19.333 4.83398 -37.5 12.501 -54.5s18 -32.167 31 -45.5s28.333 -23.833 46 -31.5s37.167 -11.5 58.5 -11.5s40.833 3.83301 58.5 11.5s32.834 18.167 45.501 31.5
s22.5 28.5 29.5 45.5s10.833 35.167 11.5 54.5h16c0 -22 -4.33301 -42.667 -13 -62s-20.334 -36 -35.001 -50s-31.667 -25 -51 -33s-40 -12 -62 -12z" />
    <glyph glyph-name="Aogonek" unicode="&#x104;" horiz-adv-x="640" 
d="M166 318h309v14h-309v-14zM595 0c-47.333 112.667 -91.666 225.167 -132.999 337.5s-85.666 224.833 -132.999 337.5c-1.33301 4 -2.83301 8.16699 -4.5 12.5s-3.16699 8.5 -4.5 12.5c-1.33301 -4 -2.83301 -8.16699 -4.5 -12.5s-3.16699 -8.5 -4.5 -12.5
c-47.333 -112.667 -91.666 -225.167 -132.999 -337.5s-85.666 -224.833 -132.999 -337.5h-15c51.333 122 99.666 244 144.999 366s93.666 244 144.999 366c51.333 -122 99.666 -244 144.999 -366s93.666 -244 144.999 -366h-15zM609 -16
c0 -13.333 -4.33301 -23.6631 -13 -30.9961s-18.167 -14.5 -28.5 -21.5s-19.833 -15.5 -28.5 -25.5s-13 -24.333 -13 -43c0 -20.667 6.5 -37.834 19.5 -51.501s29.833 -20.5 50.5 -20.5c16.667 0 30.834 4.5 42.501 13.5s19.5 20.5 23.5 34.5
c2.66699 -0.666992 5.16699 -1.33398 7.5 -2.00098s4.83301 -1.33398 7.5 -2.00098c-6.66699 -19.333 -17.5 -33.833 -32.5 -43.5s-31.167 -14.5 -48.5 -14.5c-22 0 -41.5 7.5 -58.5 22.5s-25.5 39.5 -25.5 73.5c0 9.33301 3.16699 20.166 9.5 32.499
s17.166 23.5 32.499 33.5c8.66699 5.33301 17.667 11.5 27 18.5s14 19.167 14 36.5v6h14v-16z" />
    <glyph glyph-name="aogonek" unicode="&#x105;" 
d="M59 188c0 -25.333 4.66699 -48.833 14 -70.5s22.166 -40.667 38.499 -57s35.333 -29.166 57 -38.499s45.167 -14 70.5 -14c24.667 0 48 4.66699 70 14s41.333 22.166 58 38.499s29.667 35.333 39 57s14 45.167 14 70.5c0 24.667 -4.66699 48 -14 70
s-22.333 41.333 -39 58s-36 29.667 -58 39s-45.333 14 -70 14c-25.333 0 -48.833 -4.66699 -70.5 -14s-40.667 -22.333 -57 -39s-29.166 -36 -38.499 -58s-14 -45.333 -14 -70zM45 188c0 26.667 5.00098 52.002 15.001 76.002s23.833 44.667 41.5 62
s38.167 31.166 61.5 41.499s48.666 15.5 75.999 15.5c41.333 0 78.166 -11.5 110.499 -34.5s55.833 -52.5 70.5 -88.5c0 19.333 0.333008 38.5 1 57.5s1.66699 38.167 3 57.5h10v-375h-14v54c0 10.667 0.166992 21.167 0.5 31.5s0.5 20.833 0.5 31.5
c-7.33301 -18 -17 -34.5 -29 -49.5s-25.833 -28 -41.5 -39s-33 -19.5 -52 -25.5s-38.833 -9 -59.5 -9c-27.333 0 -52.666 5 -75.999 15s-43.833 23.833 -61.5 41.5s-31.5 38.167 -41.5 61.5s-15 48.666 -15 75.999zM435.001 0.00195312l-14 -0.00292969v-6
c0 -17.333 -4.66699 -29.5 -14 -36.5s-18.333 -13.167 -27 -18.5c-15.333 -10 -26.166 -21.167 -32.499 -33.5s-9.5 -23.166 -9.5 -32.499c0 -34 8.5 -58.5 25.5 -73.5s36.5 -22.5 58.5 -22.5c17.333 0 33.5 4.83301 48.5 14.5s25.833 24.167 32.5 43.5
c-2.66699 0.666992 -5.16699 1.33398 -7.5 2.00098s-4.83301 1.33398 -7.5 2.00098c-4 -14 -11.833 -25.5 -23.5 -34.5s-25.834 -13.5 -42.501 -13.5c-20.667 0 -37.5 6.83301 -50.5 20.5s-19.5 30.834 -19.5 51.501c0 18.667 4.33301 33 13 43s18.167 18.5 28.5 25.5
s19.833 14.167 28.5 21.5s13 17.666 13 30.999v16z" />
    <glyph glyph-name="Cacute" unicode="&#x106;" horiz-adv-x="649" 
d="M600 42c-26.667 -15.333 -55.165 -27.499 -85.498 -36.499s-63.5 -13.5 -99.5 -13.5c-53.333 0 -101.666 9.5 -144.999 28.5s-80.5 44.5 -111.5 76.5s-55 69.5 -72 112.5s-25.5 88.5 -25.5 136.5c0 50.667 9.33301 98 28 142s44.167 82.333 76.5 115
s70.166 58.334 113.499 77.001s89.666 28 138.999 28c34 0 66.167 -4.33301 96.5 -13s59.166 -21 86.499 -37l-4 -6l-4 -6c-25.333 15.333 -52.833 27.166 -82.5 35.499s-60.5 12.5 -92.5 12.5c-47.333 0 -91.833 -9 -133.5 -27s-78 -42.833 -109 -74.5
s-55.5 -68.667 -73.5 -111s-27 -87.833 -27 -136.5c0 -45.333 8 -88.5 24 -129.5s38.667 -77 68 -108s64.666 -55.667 105.999 -74s87.333 -27.5 138 -27.5c34.667 0 66.834 4.16699 96.501 12.5s57.5 20.166 83.5 35.499zM363.002 750.001l45 66.5l45 66.5h16l-45 -66.5
l-45 -66.5h-16z" />
    <glyph glyph-name="cacute" unicode="&#x107;" horiz-adv-x="403" 
d="M352 47l10 -9.99902c-17.333 -13.333 -36.333 -23.833 -57 -31.5s-42.667 -11.5 -66 -11.5c-27.333 0 -52.666 5 -75.999 15s-43.833 23.833 -61.5 41.5s-31.5 38.167 -41.5 61.5s-15 48.666 -15 75.999c0 26.667 5 52 15 76s23.833 44.667 41.5 62
s38.167 31.166 61.5 41.499s48.666 15.5 75.999 15.5c23.333 0 45.5 -3.83301 66.5 -11.5s39.833 -18.167 56.5 -31.5c-1.33301 -2 -3 -3.83301 -5 -5.5s-3.66699 -3.5 -5 -5.5c-15.333 12.667 -32.666 22.5 -51.999 29.5s-39.666 10.5 -60.999 10.5
c-25.333 0 -48.833 -4.66699 -70.5 -14s-40.667 -22.333 -57 -39s-29.166 -36 -38.499 -58s-14 -45.333 -14 -70c0 -25.333 4.66699 -48.833 14 -70.5s22.166 -40.667 38.499 -57s35.333 -29.166 57 -38.499s45.167 -14 70.5 -14c21.333 0 41.666 3.5 60.999 10.5
s36.666 16.5 51.999 28.5zM205 479.001l45 66.5l45 66.5h16l-45 -66.5l-45 -66.5h-16z" />
    <glyph glyph-name="Ccircumflex" unicode="&#x108;" horiz-adv-x="649" 
d="M600 42c-26.667 -15.333 -55.165 -27.499 -85.498 -36.499s-63.5 -13.5 -99.5 -13.5c-53.333 0 -101.666 9.5 -144.999 28.5s-80.5 44.5 -111.5 76.5s-55 69.5 -72 112.5s-25.5 88.5 -25.5 136.5c0 50.667 9.33301 98 28 142s44.167 82.333 76.5 115
s70.166 58.334 113.499 77.001s89.666 28 138.999 28c34 0 66.167 -4.33301 96.5 -13s59.166 -21 86.499 -37l-4 -6l-4 -6c-25.333 15.333 -52.833 27.166 -82.5 35.499s-60.5 12.5 -92.5 12.5c-47.333 0 -91.833 -9 -133.5 -27s-78 -42.833 -109 -74.5
s-55.5 -68.667 -73.5 -111s-27 -87.833 -27 -136.5c0 -45.333 8 -88.5 24 -129.5s38.667 -77 68 -108s64.666 -55.667 105.999 -74s87.333 -27.5 138 -27.5c34.667 0 66.834 4.16699 96.501 12.5s57.5 20.166 83.5 35.499zM412.002 931.001l60 -90.5l60 -90.5h-16l-52 77
l-52 77l-52 -77l-52 -77h-16l60 90.5z" />
    <glyph glyph-name="ccircumflex" unicode="&#x109;" horiz-adv-x="403" 
d="M352 47l10 -9.99902c-17.333 -13.333 -36.333 -23.833 -57 -31.5s-42.667 -11.5 -66 -11.5c-27.333 0 -52.666 5 -75.999 15s-43.833 23.833 -61.5 41.5s-31.5 38.167 -41.5 61.5s-15 48.666 -15 75.999c0 26.667 5 52 15 76s23.833 44.667 41.5 62
s38.167 31.166 61.5 41.499s48.666 15.5 75.999 15.5c23.333 0 45.5 -3.83301 66.5 -11.5s39.833 -18.167 56.5 -31.5c-1.33301 -2 -3 -3.83301 -5 -5.5s-3.66699 -3.5 -5 -5.5c-15.333 12.667 -32.666 22.5 -51.999 29.5s-39.666 10.5 -60.999 10.5
c-25.333 0 -48.833 -4.66699 -70.5 -14s-40.667 -22.333 -57 -39s-29.166 -36 -38.499 -58s-14 -45.333 -14 -70c0 -25.333 4.66699 -48.833 14 -70.5s22.166 -40.667 38.499 -57s35.333 -29.166 57 -38.499s45.167 -14 70.5 -14c21.333 0 41.666 3.5 60.999 10.5
s36.666 16.5 51.999 28.5zM230 659.001l60 -90.5l60 -90.5h-16l-52 77l-52 77l-52 -77l-52 -77h-16l60 90.5z" />
    <glyph glyph-name="Cdotaccent" unicode="&#x10a;" horiz-adv-x="649" 
d="M600 42c-26.667 -15.333 -55.165 -27.499 -85.498 -36.499s-63.5 -13.5 -99.5 -13.5c-53.333 0 -101.666 9.5 -144.999 28.5s-80.5 44.5 -111.5 76.5s-55 69.5 -72 112.5s-25.5 88.5 -25.5 136.5c0 50.667 9.33301 98 28 142s44.167 82.333 76.5 115
s70.166 58.334 113.499 77.001s89.666 28 138.999 28c34 0 66.167 -4.33301 96.5 -13s59.166 -21 86.499 -37l-4 -6l-4 -6c-25.333 15.333 -52.833 27.166 -82.5 35.499s-60.5 12.5 -92.5 12.5c-47.333 0 -91.833 -9 -133.5 -27s-78 -42.833 -109 -74.5
s-55.5 -68.667 -73.5 -111s-27 -87.833 -27 -136.5c0 -45.333 8 -88.5 24 -129.5s38.667 -77 68 -108s64.666 -55.667 105.999 -74s87.333 -27.5 138 -27.5c34.667 0 66.834 4.16699 96.501 12.5s57.5 20.166 83.5 35.499zM378.002 770.001c0 5.33301 2 10 6 14
s8.66699 6 14 6s10 -2 14 -6s6 -8.66699 6 -14s-2 -10 -6 -14s-8.66699 -6 -14 -6s-10 2 -14 6s-6 8.66699 -6 14z" />
    <glyph glyph-name="cdotaccent" unicode="&#x10b;" horiz-adv-x="403" 
d="M352 47l10 -9.99902c-17.333 -13.333 -36.333 -23.833 -57 -31.5s-42.667 -11.5 -66 -11.5c-27.333 0 -52.666 5 -75.999 15s-43.833 23.833 -61.5 41.5s-31.5 38.167 -41.5 61.5s-15 48.666 -15 75.999c0 26.667 5 52 15 76s23.833 44.667 41.5 62
s38.167 31.166 61.5 41.499s48.666 15.5 75.999 15.5c23.333 0 45.5 -3.83301 66.5 -11.5s39.833 -18.167 56.5 -31.5c-1.33301 -2 -3 -3.83301 -5 -5.5s-3.66699 -3.5 -5 -5.5c-15.333 12.667 -32.666 22.5 -51.999 29.5s-39.666 10.5 -60.999 10.5
c-25.333 0 -48.833 -4.66699 -70.5 -14s-40.667 -22.333 -57 -39s-29.166 -36 -38.499 -58s-14 -45.333 -14 -70c0 -25.333 4.66699 -48.833 14 -70.5s22.166 -40.667 38.499 -57s35.333 -29.166 57 -38.499s45.167 -14 70.5 -14c21.333 0 41.666 3.5 60.999 10.5
s36.666 16.5 51.999 28.5zM218 500.001c0 5.33301 2 10 6 14s8.66699 6 14 6s10 -2 14 -6s6 -8.66699 6 -14s-2 -10 -6 -14s-8.66699 -6 -14 -6s-10 2 -14 6s-6 8.66699 -6 14z" />
    <glyph glyph-name="Ccaron" unicode="&#x10c;" horiz-adv-x="649" 
d="M600 42c-26.667 -15.333 -55.165 -27.499 -85.498 -36.499s-63.5 -13.5 -99.5 -13.5c-53.333 0 -101.666 9.5 -144.999 28.5s-80.5 44.5 -111.5 76.5s-55 69.5 -72 112.5s-25.5 88.5 -25.5 136.5c0 50.667 9.33301 98 28 142s44.167 82.333 76.5 115
s70.166 58.334 113.499 77.001s89.666 28 138.999 28c34 0 66.167 -4.33301 96.5 -13s59.166 -21 86.499 -37l-4 -6l-4 -6c-25.333 15.333 -52.833 27.166 -82.5 35.499s-60.5 12.5 -92.5 12.5c-47.333 0 -91.833 -9 -133.5 -27s-78 -42.833 -109 -74.5
s-55.5 -68.667 -73.5 -111s-27 -87.833 -27 -136.5c0 -45.333 8 -88.5 24 -129.5s38.667 -77 68 -108s64.666 -55.667 105.999 -74s87.333 -27.5 138 -27.5c34.667 0 66.834 4.16699 96.501 12.5s57.5 20.166 83.5 35.499zM409.002 729.001l60 90.5l60 90.5h-16l-52 -77
l-52 -77l-52 77l-52 77h-16l60 -90.5z" />
    <glyph glyph-name="ccaron" unicode="&#x10d;" horiz-adv-x="403" 
d="M352 47l10 -9.99902c-17.333 -13.333 -36.333 -23.833 -57 -31.5s-42.667 -11.5 -66 -11.5c-27.333 0 -52.666 5 -75.999 15s-43.833 23.833 -61.5 41.5s-31.5 38.167 -41.5 61.5s-15 48.666 -15 75.999c0 26.667 5 52 15 76s23.833 44.667 41.5 62
s38.167 31.166 61.5 41.499s48.666 15.5 75.999 15.5c23.333 0 45.5 -3.83301 66.5 -11.5s39.833 -18.167 56.5 -31.5c-1.33301 -2 -3 -3.83301 -5 -5.5s-3.66699 -3.5 -5 -5.5c-15.333 12.667 -32.666 22.5 -51.999 29.5s-39.666 10.5 -60.999 10.5
c-25.333 0 -48.833 -4.66699 -70.5 -14s-40.667 -22.333 -57 -39s-29.166 -36 -38.499 -58s-14 -45.333 -14 -70c0 -25.333 4.66699 -48.833 14 -70.5s22.166 -40.667 38.499 -57s35.333 -29.166 57 -38.499s45.167 -14 70.5 -14c21.333 0 41.666 3.5 60.999 10.5
s36.666 16.5 51.999 28.5zM239 479.001l60 90.5l60 90.5h-16l-52 -77l-52 -77l-52 77l-52 77h-16l60 -90.5z" />
    <glyph glyph-name="Dcaron" unicode="&#x10e;" horiz-adv-x="711" 
d="M119 700l142.999 -0.00390625c70.667 0 130.5 -10.833 179.5 -32.5s88.833 -49.5 119.5 -83.5s52.834 -71.667 66.501 -113s20.5 -81.666 20.5 -120.999c0 -53.333 -9.33301 -101.666 -28 -144.999s-44 -80.166 -76 -110.499s-69.333 -53.666 -112 -69.999
s-88 -24.5 -136 -24.5h-177v700zM301.999 13.9961c44.667 0 87.166 7.83203 127.499 23.499s75.833 38 106.5 67s54.834 64.333 72.501 106s26.5 88.167 26.5 139.5c0 38 -6.5 76.667 -19.5 116s-34 75.333 -63 108s-66.667 59.334 -113 80.001s-102.5 31 -168.5 31h-138
v-671h169zM326.998 728.995l-60 90.5l-60 90.5h16l52 -77l52 -77l52 77l52 77h16l-60 -90.5z" />
    <glyph glyph-name="dcaron" unicode="&#x10f;" 
d="M59 188c0 -25.333 4.66699 -48.833 14 -70.5s22.166 -40.667 38.499 -57s35.333 -29.166 57 -38.499s45.167 -14 70.5 -14c24.667 0 48 4.66699 70 14s41.333 22.166 58 38.499s29.667 35.333 39 57s14 45.167 14 70.5c0 24.667 -4.66699 48 -14 70
s-22.333 41.333 -39 58s-36 29.667 -58 39s-45.333 14 -70 14c-25.333 0 -48.833 -4.66699 -70.5 -14s-40.667 -22.333 -57 -39s-29.166 -36 -38.499 -58s-14 -45.333 -14 -70zM45 188c0 26.667 5.00098 52.002 15.001 76.002s23.833 44.667 41.5 62
s38.167 31.166 61.5 41.499s48.666 15.5 75.999 15.5c41.333 0 78.166 -11.5 110.499 -34.5s55.833 -52.5 70.5 -88.5v490h14v-750h-14v54c0 10.667 0.166992 21.167 0.5 31.5s0.5 20.833 0.5 31.5c-7.33301 -18 -17 -34.5 -29 -49.5s-25.833 -28 -41.5 -39
s-33 -19.5 -52 -25.5s-38.833 -9 -59.5 -9c-27.333 0 -52.666 5 -75.999 15s-43.833 23.833 -61.5 41.5s-31.5 38.167 -41.5 61.5s-15 48.666 -15 75.999zM500.001 572.002l-6 17.999c14 13.333 24.167 29.833 30.5 49.5s7.16602 41.167 2.49902 64.5
c3.33301 1.33301 6.5 2.5 9.5 3.5s6.16699 2.16699 9.5 3.5c5.33301 -26.667 3.83301 -52.167 -4.5 -76.5s-22.166 -45.166 -41.499 -62.499z" />
    <glyph glyph-name="Dcroat" unicode="&#x110;" horiz-adv-x="718" 
d="M68 400h281v-14h-281v14zM126 700l142.999 -0.00390625c70.667 0 130.5 -10.833 179.5 -32.5s88.833 -49.5 119.5 -83.5s52.834 -71.667 66.501 -113s20.5 -81.666 20.5 -120.999c0 -53.333 -9.33301 -101.666 -28 -144.999s-44 -80.166 -76 -110.499
s-69.333 -53.666 -112 -69.999s-88 -24.5 -136 -24.5h-177v700zM308.999 13.9961c44.667 0 87.166 7.83203 127.499 23.499s75.833 38 106.5 67s54.834 64.333 72.501 106s26.5 88.167 26.5 139.5c0 38 -6.5 76.667 -19.5 116s-34 75.333 -63 108
s-66.667 59.334 -113 80.001s-102.5 31 -168.5 31h-138v-671h169z" />
    <glyph glyph-name="dcroat" unicode="&#x111;" 
d="M220 616h281v14h-281v-14zM59 188c0 -25.333 4.66699 -48.833 14 -70.5s22.166 -40.667 38.499 -57s35.333 -29.166 57 -38.499s45.167 -14 70.5 -14c24.667 0 48 4.66699 70 14s41.333 22.166 58 38.499s29.667 35.333 39 57s14 45.167 14 70.5
c0 24.667 -4.66699 48 -14 70s-22.333 41.333 -39 58s-36 29.667 -58 39s-45.333 14 -70 14c-25.333 0 -48.833 -4.66699 -70.5 -14s-40.667 -22.333 -57 -39s-29.166 -36 -38.499 -58s-14 -45.333 -14 -70zM45 188c0 26.667 5.00098 52.002 15.001 76.002
s23.833 44.667 41.5 62s38.167 31.166 61.5 41.499s48.666 15.5 75.999 15.5c41.333 0 78.166 -11.5 110.499 -34.5s55.833 -52.5 70.5 -88.5v490h14v-750h-14v54c0 10.667 0.166992 21.167 0.5 31.5s0.5 20.833 0.5 31.5c-7.33301 -18 -17 -34.5 -29 -49.5
s-25.833 -28 -41.5 -39s-33 -19.5 -52 -25.5s-38.833 -9 -59.5 -9c-27.333 0 -52.666 5 -75.999 15s-43.833 23.833 -61.5 41.5s-31.5 38.167 -41.5 61.5s-15 48.666 -15 75.999z" />
    <glyph glyph-name="Emacron" unicode="&#x112;" horiz-adv-x="608" 
d="M119 0v700h415v-14h-401v-326h362v-14h-362v-332h415v-14h-429zM209 750v14h230v-14h-230z" />
    <glyph glyph-name="emacron" unicode="&#x113;" horiz-adv-x="437" 
d="M373 46c-17.333 -16 -37.499 -28.665 -60.499 -37.998s-47.5 -14 -73.5 -14c-27.333 0 -52.666 5 -75.999 15s-43.833 23.833 -61.5 41.5s-31.5 38.167 -41.5 61.5s-15 48.666 -15 75.999c0 26.667 5 52 15 76s23.833 44.833 41.5 62.5s38.167 31.667 61.5 42
s48.666 15.5 75.999 15.5c41.333 0 76.166 -11.833 104.499 -35.5s49.833 -53.5 64.5 -89.5l-81 -32.5l-87 -35.5l-87.5 -35.5l-81.5 -33.5c13.333 -34 35 -61.5 65 -82.5s64.333 -31.5 103 -31.5c24 0 46.5 4.16699 67.5 12.5s39.5 20.166 55.5 35.499zM389.001 266.002
c-14 30 -33.501 54.667 -58.501 74s-55.5 29 -91.5 29c-25.333 0 -48.833 -4.66699 -70.5 -14s-40.667 -22.333 -57 -39s-29.166 -36 -38.499 -58s-14 -45.333 -14 -70c0 -19.333 2.33301 -37 7 -53l78 32l83 33.5l83.5 33.5zM118 492.002v14h230v-14h-230z" />
    <glyph glyph-name="Edotaccent" unicode="&#x116;" horiz-adv-x="608" 
d="M119 0v700h415v-14h-401v-326h362v-14h-362v-332h415v-14h-429zM326 770c0 5.33301 2 10 6 14s8.66699 6 14 6s10 -2 14 -6s6 -8.66699 6 -14s-2 -10 -6 -14s-8.66699 -6 -14 -6s-10 2 -14 6s-6 8.66699 -6 14z" />
    <glyph glyph-name="edotaccent" unicode="&#x117;" horiz-adv-x="437" 
d="M373 46c-17.333 -16 -37.499 -28.665 -60.499 -37.998s-47.5 -14 -73.5 -14c-27.333 0 -52.666 5 -75.999 15s-43.833 23.833 -61.5 41.5s-31.5 38.167 -41.5 61.5s-15 48.666 -15 75.999c0 26.667 5 52 15 76s23.833 44.833 41.5 62.5s38.167 31.667 61.5 42
s48.666 15.5 75.999 15.5c41.333 0 76.166 -11.833 104.499 -35.5s49.833 -53.5 64.5 -89.5l-81 -32.5l-87 -35.5l-87.5 -35.5l-81.5 -33.5c13.333 -34 35 -61.5 65 -82.5s64.333 -31.5 103 -31.5c24 0 46.5 4.16699 67.5 12.5s39.5 20.166 55.5 35.499zM389.001 266.002
c-14 30 -33.501 54.667 -58.501 74s-55.5 29 -91.5 29c-25.333 0 -48.833 -4.66699 -70.5 -14s-40.667 -22.333 -57 -39s-29.166 -36 -38.499 -58s-14 -45.333 -14 -70c0 -19.333 2.33301 -37 7 -53l78 32l83 33.5l83.5 33.5zM213 500.002c0 5.33301 2 10 6 14
s8.66699 6 14 6s10 -2 14 -6s6 -8.66699 6 -14s-2 -10 -6 -14s-8.66699 -6 -14 -6s-10 2 -14 6s-6 8.66699 -6 14z" />
    <glyph glyph-name="Eogonek" unicode="&#x118;" horiz-adv-x="608" 
d="M119 0v700h415v-14h-401v-326h362v-14h-362v-332h415v-14h-429zM547 0l-14 -0.00292969v-6c0 -17.333 -4.66699 -29.5 -14 -36.5s-18.333 -13.167 -27 -18.5c-15.333 -10 -26.166 -21.167 -32.499 -33.5s-9.5 -23.166 -9.5 -32.499c0 -34 8.5 -58.5 25.5 -73.5
s36.5 -22.5 58.5 -22.5c17.333 0 33.5 4.83301 48.5 14.5s25.833 24.167 32.5 43.5c-2.66699 0.666992 -5.16699 1.33398 -7.5 2.00098s-4.83301 1.33398 -7.5 2.00098c-4 -14 -11.833 -25.5 -23.5 -34.5s-25.834 -13.5 -42.501 -13.5c-20.667 0 -37.5 6.83301 -50.5 20.5
s-19.5 30.834 -19.5 51.501c0 18.667 4.33301 33 13 43s18.167 18.5 28.5 25.5s19.833 14.167 28.5 21.5s13 17.666 13 30.999v16z" />
    <glyph glyph-name="eogonek" unicode="&#x119;" horiz-adv-x="437" 
d="M373 46c-17.333 -16 -37.499 -28.665 -60.499 -37.998s-47.5 -14 -73.5 -14c-27.333 0 -52.666 5 -75.999 15s-43.833 23.833 -61.5 41.5s-31.5 38.167 -41.5 61.5s-15 48.666 -15 75.999c0 26.667 5 52 15 76s23.833 44.833 41.5 62.5s38.167 31.667 61.5 42
s48.666 15.5 75.999 15.5c41.333 0 76.166 -11.833 104.499 -35.5s49.833 -53.5 64.5 -89.5l-81 -32.5l-87 -35.5l-87.5 -35.5l-81.5 -33.5c13.333 -34 35 -61.5 65 -82.5s64.333 -31.5 103 -31.5c24 0 46.5 4.16699 67.5 12.5s39.5 20.166 55.5 35.499zM389.001 266.002
c-14 30 -33.501 54.667 -58.501 74s-55.5 29 -91.5 29c-25.333 0 -48.833 -4.66699 -70.5 -14s-40.667 -22.333 -57 -39s-29.166 -36 -38.499 -58s-14 -45.333 -14 -70c0 -19.333 2.33301 -37 7 -53l78 32l83 33.5l83.5 33.5zM250 0.00195312l-14 -0.00292969v-6
c0 -17.333 -4.66699 -29.5 -14 -36.5s-18.333 -13.167 -27 -18.5c-15.333 -10 -26.166 -21.167 -32.499 -33.5s-9.5 -23.166 -9.5 -32.499c0 -34 8.5 -58.5 25.5 -73.5s36.5 -22.5 58.5 -22.5c17.333 0 33.5 4.83301 48.5 14.5s25.833 24.167 32.5 43.5
c-2.66699 0.666992 -5.16699 1.33398 -7.5 2.00098s-4.83301 1.33398 -7.5 2.00098c-4 -14 -11.833 -25.5 -23.5 -34.5s-25.834 -13.5 -42.501 -13.5c-20.667 0 -37.5 6.83301 -50.5 20.5s-19.5 30.834 -19.5 51.501c0 18.667 4.33301 33 13 43s18.167 18.5 28.5 25.5
s19.833 14.167 28.5 21.5s13 17.666 13 30.999v16z" />
    <glyph glyph-name="Ecaron" unicode="&#x11a;" horiz-adv-x="608" 
d="M119 0v700h415v-14h-401v-326h362v-14h-362v-332h415v-14h-429zM366 729l-60 90.5l-60 90.5h16l52 -77l52 -77l52 77l52 77h16l-60 -90.5z" />
    <glyph glyph-name="ecaron" unicode="&#x11b;" horiz-adv-x="437" 
d="M373 46c-17.333 -16 -37.499 -28.665 -60.499 -37.998s-47.5 -14 -73.5 -14c-27.333 0 -52.666 5 -75.999 15s-43.833 23.833 -61.5 41.5s-31.5 38.167 -41.5 61.5s-15 48.666 -15 75.999c0 26.667 5 52 15 76s23.833 44.833 41.5 62.5s38.167 31.667 61.5 42
s48.666 15.5 75.999 15.5c41.333 0 76.166 -11.833 104.499 -35.5s49.833 -53.5 64.5 -89.5l-81 -32.5l-87 -35.5l-87.5 -35.5l-81.5 -33.5c13.333 -34 35 -61.5 65 -82.5s64.333 -31.5 103 -31.5c24 0 46.5 4.16699 67.5 12.5s39.5 20.166 55.5 35.499zM389.001 266.002
c-14 30 -33.501 54.667 -58.501 74s-55.5 29 -91.5 29c-25.333 0 -48.833 -4.66699 -70.5 -14s-40.667 -22.333 -57 -39s-29.166 -36 -38.499 -58s-14 -45.333 -14 -70c0 -19.333 2.33301 -37 7 -53l78 32l83 33.5l83.5 33.5zM233 479.002l-60 90.5l-60 90.5h16l52 -77
l52 -77l52 77l52 77h16l-60 -90.5z" />
    <glyph glyph-name="Gcircumflex" unicode="&#x11c;" horiz-adv-x="678" 
d="M600 300l0.00195312 -258c-26.667 -15.333 -55.167 -27.5 -85.5 -36.5s-62.5 -13.5 -96.5 -13.5c-54 0 -103 9.33301 -147 28s-81.5 44.167 -112.5 76.5s-55 70.166 -72 113.499s-25.5 89.666 -25.5 138.999s9.33301 95.833 28 139.5s44.167 81.667 76.5 114
s70.166 58 113.499 77s89.666 28.5 138.999 28.5c34 0 66.167 -4.33301 96.5 -13s59.166 -21 86.499 -37l-8 -12c-25.333 15.333 -52.833 27.166 -82.5 35.499s-60.5 12.5 -92.5 12.5c-47.333 0 -91.833 -9.16699 -133.5 -27.5s-78 -43.166 -109 -74.499
s-55.5 -68 -73.5 -110s-27 -86.667 -27 -134s8 -91.666 24 -132.999s38.833 -77.5 68.5 -108.5s65.334 -55.5 107.001 -73.5s88.5 -27 140.5 -27c31.333 0 61.333 3.83301 90 11.5s55.667 18.834 81 33.501v235h-172v14h186zM406.002 931l60 -90.5l60 -90.5h-16l-52 77
l-52 77l-52 -77l-52 -77h-16l60 90.5z" />
    <glyph glyph-name="gcircumflex" unicode="&#x11d;" 
d="M45 188c0 26.667 5 52.0029 15 76.0029s23.833 44.667 41.5 62s38.167 31.166 61.5 41.499s48.666 15.5 75.999 15.5c41.333 0 78.166 -11.5 110.499 -34.5s55.833 -52.5 70.5 -88.5c0 19.333 0.333008 38.5 1 57.5s1.66699 38.167 3 57.5h10v-383
c0 -21.333 -2.83301 -42.333 -8.5 -63s-15.834 -39 -30.501 -55s-34.5 -29 -59.5 -39s-56.833 -15 -95.5 -15c-12 0 -24.167 0.833008 -36.5 2.5s-25.5 5.33398 -39.5 11.001s-28.667 13.5 -44 23.5s-31.333 23.333 -48 40l9 10c16.667 -16 32.334 -28.833 47.001 -38.5
s28.5 -17 41.5 -22s25.333 -8.33301 37 -10s22.5 -2.5 32.5 -2.5c35.333 0 64.5 4.33301 87.5 13s41.167 20.667 54.5 36s22.833 33.5 28.5 54.5s8.83398 43.833 9.50098 68.5v7.5v7c0 3 0.166992 7 0.5 12s0.5 12.167 0.5 21.5v10.5c0 6.33301 0.166992 13.166 0.5 20.499
s0.5 14.166 0.5 20.499v11.5c-7.33301 -18 -17 -34.5 -29 -49.5s-25.833 -28 -41.5 -39s-33 -19.5 -52 -25.5s-38.833 -9 -59.5 -9c-27.333 0 -52.666 5 -75.999 15s-43.833 23.833 -61.5 41.5s-31.5 38.167 -41.5 61.5s-15 48.666 -15 75.999zM59 188.003
c0 -25.333 4.66699 -48.833 14 -70.5s22.166 -40.667 38.499 -57s35.333 -29.166 57 -38.499s45.167 -14 70.5 -14c24.667 0 48 4.66699 70 14s41.333 22.166 58 38.499s29.667 35.333 39 57s14 45.167 14 70.5c0 24.667 -4.66699 48 -14 70s-22.333 41.333 -39 58
s-36 29.667 -58 39s-45.333 14 -70 14c-25.333 0 -48.833 -4.66699 -70.5 -14s-40.667 -22.333 -57 -39s-29.166 -36 -38.499 -58s-14 -45.333 -14 -70zM259 660.003l60 -90.5l60 -90.5h-16l-52 77l-52 77l-52 -77l-52 -77h-16l60 90.5z" />
    <glyph glyph-name="Gbreve" unicode="&#x11e;" horiz-adv-x="678" 
d="M600 300l0.00195312 -258c-26.667 -15.333 -55.167 -27.5 -85.5 -36.5s-62.5 -13.5 -96.5 -13.5c-54 0 -103 9.33301 -147 28s-81.5 44.167 -112.5 76.5s-55 70.166 -72 113.499s-25.5 89.666 -25.5 138.999s9.33301 95.833 28 139.5s44.167 81.667 76.5 114
s70.166 58 113.499 77s89.666 28.5 138.999 28.5c34 0 66.167 -4.33301 96.5 -13s59.166 -21 86.499 -37l-8 -12c-25.333 15.333 -52.833 27.166 -82.5 35.499s-60.5 12.5 -92.5 12.5c-47.333 0 -91.833 -9.16699 -133.5 -27.5s-78 -43.166 -109 -74.499
s-55.5 -68 -73.5 -110s-27 -86.667 -27 -134s8 -91.666 24 -132.999s38.833 -77.5 68.5 -108.5s65.334 -55.5 107.001 -73.5s88.5 -27 140.5 -27c31.333 0 61.333 3.83301 90 11.5s55.667 18.834 81 33.501v235h-172v14h186zM395.002 749c-22 0 -42.8311 4 -62.498 12
s-36.834 19 -51.501 33s-26.334 30.667 -35.001 50s-13.334 40 -14.001 62h15c0.666992 -19.333 4.83398 -37.5 12.501 -54.5s18 -32.167 31 -45.5s28.333 -23.833 46 -31.5s37.167 -11.5 58.5 -11.5s40.833 3.83301 58.5 11.5s32.834 18.167 45.501 31.5
s22.5 28.5 29.5 45.5s10.833 35.167 11.5 54.5h16c0 -22 -4.33301 -42.667 -13 -62s-20.334 -36 -35.001 -50s-31.667 -25 -51 -33s-40 -12 -62 -12z" />
    <glyph glyph-name="gbreve" unicode="&#x11f;" 
d="M45 188c0 26.667 5 52.0029 15 76.0029s23.833 44.667 41.5 62s38.167 31.166 61.5 41.499s48.666 15.5 75.999 15.5c41.333 0 78.166 -11.5 110.499 -34.5s55.833 -52.5 70.5 -88.5c0 19.333 0.333008 38.5 1 57.5s1.66699 38.167 3 57.5h10v-383
c0 -21.333 -2.83301 -42.333 -8.5 -63s-15.834 -39 -30.501 -55s-34.5 -29 -59.5 -39s-56.833 -15 -95.5 -15c-12 0 -24.167 0.833008 -36.5 2.5s-25.5 5.33398 -39.5 11.001s-28.667 13.5 -44 23.5s-31.333 23.333 -48 40l9 10c16.667 -16 32.334 -28.833 47.001 -38.5
s28.5 -17 41.5 -22s25.333 -8.33301 37 -10s22.5 -2.5 32.5 -2.5c35.333 0 64.5 4.33301 87.5 13s41.167 20.667 54.5 36s22.833 33.5 28.5 54.5s8.83398 43.833 9.50098 68.5v7.5v7c0 3 0.166992 7 0.5 12s0.5 12.167 0.5 21.5v10.5c0 6.33301 0.166992 13.166 0.5 20.499
s0.5 14.166 0.5 20.499v11.5c-7.33301 -18 -17 -34.5 -29 -49.5s-25.833 -28 -41.5 -39s-33 -19.5 -52 -25.5s-38.833 -9 -59.5 -9c-27.333 0 -52.666 5 -75.999 15s-43.833 23.833 -61.5 41.5s-31.5 38.167 -41.5 61.5s-15 48.666 -15 75.999zM59 188.003
c0 -25.333 4.66699 -48.833 14 -70.5s22.166 -40.667 38.499 -57s35.333 -29.166 57 -38.499s45.167 -14 70.5 -14c24.667 0 48 4.66699 70 14s41.333 22.166 58 38.499s29.667 35.333 39 57s14 45.167 14 70.5c0 24.667 -4.66699 48 -14 70s-22.333 41.333 -39 58
s-36 29.667 -58 39s-45.333 14 -70 14c-25.333 0 -48.833 -4.66699 -70.5 -14s-40.667 -22.333 -57 -39s-29.166 -36 -38.499 -58s-14 -45.333 -14 -70zM263 500.003c-22 0 -42.8311 4 -62.498 12s-36.834 19 -51.501 33s-26.334 30.667 -35.001 50s-13.334 40 -14.001 62
h15c0.666992 -19.333 4.83398 -37.5 12.501 -54.5s18 -32.167 31 -45.5s28.333 -23.833 46 -31.5s37.167 -11.5 58.5 -11.5s40.833 3.83301 58.5 11.5s32.834 18.167 45.501 31.5s22.5 28.5 29.5 45.5s10.833 35.167 11.5 54.5h16c0 -22 -4.33301 -42.667 -13 -62
s-20.334 -36 -35.001 -50s-31.667 -25 -51 -33s-40 -12 -62 -12z" />
    <glyph glyph-name="Gdotaccent" unicode="&#x120;" horiz-adv-x="678" 
d="M600 300l0.00195312 -258c-26.667 -15.333 -55.167 -27.5 -85.5 -36.5s-62.5 -13.5 -96.5 -13.5c-54 0 -103 9.33301 -147 28s-81.5 44.167 -112.5 76.5s-55 70.166 -72 113.499s-25.5 89.666 -25.5 138.999s9.33301 95.833 28 139.5s44.167 81.667 76.5 114
s70.166 58 113.499 77s89.666 28.5 138.999 28.5c34 0 66.167 -4.33301 96.5 -13s59.166 -21 86.499 -37l-8 -12c-25.333 15.333 -52.833 27.166 -82.5 35.499s-60.5 12.5 -92.5 12.5c-47.333 0 -91.833 -9.16699 -133.5 -27.5s-78 -43.166 -109 -74.499
s-55.5 -68 -73.5 -110s-27 -86.667 -27 -134s8 -91.666 24 -132.999s38.833 -77.5 68.5 -108.5s65.334 -55.5 107.001 -73.5s88.5 -27 140.5 -27c31.333 0 61.333 3.83301 90 11.5s55.667 18.834 81 33.501v235h-172v14h186zM378.002 770c0 5.33301 2 10 6 14
s8.66699 6 14 6s10 -2 14 -6s6 -8.66699 6 -14s-2 -10 -6 -14s-8.66699 -6 -14 -6s-10 2 -14 6s-6 8.66699 -6 14z" />
    <glyph glyph-name="gdotaccent" unicode="&#x121;" 
d="M45 188c0 26.667 5 52.0029 15 76.0029s23.833 44.667 41.5 62s38.167 31.166 61.5 41.499s48.666 15.5 75.999 15.5c41.333 0 78.166 -11.5 110.499 -34.5s55.833 -52.5 70.5 -88.5c0 19.333 0.333008 38.5 1 57.5s1.66699 38.167 3 57.5h10v-383
c0 -21.333 -2.83301 -42.333 -8.5 -63s-15.834 -39 -30.501 -55s-34.5 -29 -59.5 -39s-56.833 -15 -95.5 -15c-12 0 -24.167 0.833008 -36.5 2.5s-25.5 5.33398 -39.5 11.001s-28.667 13.5 -44 23.5s-31.333 23.333 -48 40l9 10c16.667 -16 32.334 -28.833 47.001 -38.5
s28.5 -17 41.5 -22s25.333 -8.33301 37 -10s22.5 -2.5 32.5 -2.5c35.333 0 64.5 4.33301 87.5 13s41.167 20.667 54.5 36s22.833 33.5 28.5 54.5s8.83398 43.833 9.50098 68.5v7.5v7c0 3 0.166992 7 0.5 12s0.5 12.167 0.5 21.5v10.5c0 6.33301 0.166992 13.166 0.5 20.499
s0.5 14.166 0.5 20.499v11.5c-7.33301 -18 -17 -34.5 -29 -49.5s-25.833 -28 -41.5 -39s-33 -19.5 -52 -25.5s-38.833 -9 -59.5 -9c-27.333 0 -52.666 5 -75.999 15s-43.833 23.833 -61.5 41.5s-31.5 38.167 -41.5 61.5s-15 48.666 -15 75.999zM59 188.003
c0 -25.333 4.66699 -48.833 14 -70.5s22.166 -40.667 38.499 -57s35.333 -29.166 57 -38.499s45.167 -14 70.5 -14c24.667 0 48 4.66699 70 14s41.333 22.166 58 38.499s29.667 35.333 39 57s14 45.167 14 70.5c0 24.667 -4.66699 48 -14 70s-22.333 41.333 -39 58
s-36 29.667 -58 39s-45.333 14 -70 14c-25.333 0 -48.833 -4.66699 -70.5 -14s-40.667 -22.333 -57 -39s-29.166 -36 -38.499 -58s-14 -45.333 -14 -70zM241 500.003c0 5.33301 2 10 6 14s8.66699 6 14 6s10 -2 14 -6s6 -8.66699 6 -14s-2 -10 -6 -14s-8.66699 -6 -14 -6
s-10 2 -14 6s-6 8.66699 -6 14z" />
    <glyph glyph-name="uni0122" unicode="&#x122;" horiz-adv-x="678" 
d="M600 300l0.00195312 -258c-26.667 -15.333 -55.167 -27.5 -85.5 -36.5s-62.5 -13.5 -96.5 -13.5c-54 0 -103 9.33301 -147 28s-81.5 44.167 -112.5 76.5s-55 70.166 -72 113.499s-25.5 89.666 -25.5 138.999s9.33301 95.833 28 139.5s44.167 81.667 76.5 114
s70.166 58 113.499 77s89.666 28.5 138.999 28.5c34 0 66.167 -4.33301 96.5 -13s59.166 -21 86.499 -37l-8 -12c-25.333 15.333 -52.833 27.166 -82.5 35.499s-60.5 12.5 -92.5 12.5c-47.333 0 -91.833 -9.16699 -133.5 -27.5s-78 -43.166 -109 -74.499
s-55.5 -68 -73.5 -110s-27 -86.667 -27 -134s8 -91.666 24 -132.999s38.833 -77.5 68.5 -108.5s65.334 -55.5 107.001 -73.5s88.5 -27 140.5 -27c31.333 0 61.333 3.83301 90 11.5s55.667 18.834 81 33.501v235h-172v14h186zM409.002 -21l-43 -103l-43 -103h-14l38.5 103
l38.5 103h23z" />
    <glyph glyph-name="uni0123" unicode="&#x123;" 
d="M45 188c0 26.667 5 52.0029 15 76.0029s23.833 44.667 41.5 62s38.167 31.166 61.5 41.499s48.666 15.5 75.999 15.5c41.333 0 78.166 -11.5 110.499 -34.5s55.833 -52.5 70.5 -88.5c0 19.333 0.333008 38.5 1 57.5s1.66699 38.167 3 57.5h10v-383
c0 -21.333 -2.83301 -42.333 -8.5 -63s-15.834 -39 -30.501 -55s-34.5 -29 -59.5 -39s-56.833 -15 -95.5 -15c-12 0 -24.167 0.833008 -36.5 2.5s-25.5 5.33398 -39.5 11.001s-28.667 13.5 -44 23.5s-31.333 23.333 -48 40l9 10c16.667 -16 32.334 -28.833 47.001 -38.5
s28.5 -17 41.5 -22s25.333 -8.33301 37 -10s22.5 -2.5 32.5 -2.5c35.333 0 64.5 4.33301 87.5 13s41.167 20.667 54.5 36s22.833 33.5 28.5 54.5s8.83398 43.833 9.50098 68.5v7.5v7c0 3 0.166992 7 0.5 12s0.5 12.167 0.5 21.5v10.5c0 6.33301 0.166992 13.166 0.5 20.499
s0.5 14.166 0.5 20.499v11.5c-7.33301 -18 -17 -34.5 -29 -49.5s-25.833 -28 -41.5 -39s-33 -19.5 -52 -25.5s-38.833 -9 -59.5 -9c-27.333 0 -52.666 5 -75.999 15s-43.833 23.833 -61.5 41.5s-31.5 38.167 -41.5 61.5s-15 48.666 -15 75.999zM59 188.003
c0 -25.333 4.66699 -48.833 14 -70.5s22.166 -40.667 38.499 -57s35.333 -29.166 57 -38.499s45.167 -14 70.5 -14c24.667 0 48 4.66699 70 14s41.333 22.166 58 38.499s29.667 35.333 39 57s14 45.167 14 70.5c0 24.667 -4.66699 48 -14 70s-22.333 41.333 -39 58
s-36 29.667 -58 39s-45.333 14 -70 14c-25.333 0 -48.833 -4.66699 -70.5 -14s-40.667 -22.333 -57 -39s-29.166 -36 -38.499 -58s-14 -45.333 -14 -70zM244 507.003l43 103l43 103h14l-38.5 -103l-38.5 -103h-23z" />
    <glyph glyph-name="Hcircumflex" unicode="&#x124;" horiz-adv-x="732" 
d="M119 0v700h14v-340h464v340h18l-2 -350l-2 -350h-14v346h-464v-346h-14zM369 931l60 -90.5l60 -90.5h-16l-52 77l-52 77l-52 -77l-52 -77h-16l60 90.5z" />
    <glyph glyph-name="hcircumflex" unicode="&#x125;" horiz-adv-x="440" 
d="M76 750l14 -0.000976562v-467c12 28 32.5 51.5 61.5 70.5s62.5 28.5 100.5 28.5c35.333 0 63.166 -10.333 83.499 -31s31.166 -47.667 32.499 -81v-270h-14v277c-1.33301 24 -10.166 44.833 -26.499 62.5s-39.166 27.167 -68.499 28.5
c-22.667 0 -44.167 -3.66699 -64.5 -11s-38.333 -17.5 -54 -30.5s-28 -28.667 -37 -47s-13.5 -38.166 -13.5 -59.499v-220h-14v750zM246 930.999l60 -90.5l60 -90.5h-16l-52 77l-52 77l-52 -77l-52 -77h-16l60 90.5z" />
    <glyph glyph-name="Hbar" unicode="&#x126;" horiz-adv-x="750" 
d="M50 492v14h650v-14h-650zM128 0v700h14v-340h464v340h18l-2 -350l-2 -350h-14v346h-464v-346h-14z" />
    <glyph glyph-name="hbar" unicode="&#x127;" horiz-adv-x="440" 
d="M21 571v14h230v-14h-230zM76 750l14 -0.000976562v-467c12 28 32.5 51.5 61.5 70.5s62.5 28.5 100.5 28.5c35.333 0 63.166 -10.333 83.499 -31s31.166 -47.667 32.499 -81v-270h-14v277c-1.33301 24 -10.166 44.833 -26.499 62.5s-39.166 27.167 -68.499 28.5
c-22.667 0 -44.167 -3.66699 -64.5 -11s-38.333 -17.5 -54 -30.5s-28 -28.667 -37 -47s-13.5 -38.166 -13.5 -59.499v-220h-14v750z" />
    <glyph glyph-name="Itilde" unicode="&#x128;" horiz-adv-x="252" 
d="M119 700h14v-700h-14v700zM117 785c-10.667 12 -20 20 -28 24s-16.667 6 -26 6c-5.33301 0 -11.5 -0.833008 -18.5 -2.5s-13.833 -4.5 -20.5 -8.5s-12.5 -9.5 -17.5 -16.5s-8.16699 -16.167 -9.5 -27.5c-2 0.666992 -4.16699 1 -6.5 1s-4.5 0.333008 -6.5 1
c0.666992 12 3.66699 22.333 9 31s11.833 15.667 19.5 21s16.167 9.16602 25.5 11.499s18.666 3.5 27.999 3.5c13.333 0 25.5 -3.5 36.5 -10.5s21.833 -16.167 32.5 -27.5c10.667 -12 20 -20 28 -24s16.667 -6 26 -6c5.33301 0 11.5 0.833008 18.5 2.5s13.833 4.5 20.5 8.5
s12.5 9.5 17.5 16.5s8.16699 16.167 9.5 27.5c2 -0.666992 4.16699 -1 6.5 -1s4.5 -0.333008 6.5 -1c-0.666992 -12 -3.66699 -22.333 -9 -31s-11.833 -15.667 -19.5 -21s-16.167 -9.16602 -25.5 -11.499s-18.666 -3.5 -27.999 -3.5c-13.333 0 -25.5 3.5 -36.5 10.5
s-21.833 16.167 -32.5 27.5z" />
    <glyph glyph-name="itilde" unicode="&#x129;" horiz-adv-x="166" 
d="M90 0h-14v375h14v-375zM74 485c-10.667 12 -20 20 -28 24s-16.667 6 -26 6c-5.33301 0 -11.5 -0.833008 -18.5 -2.5s-13.833 -4.5 -20.5 -8.5s-12.5 -9.5 -17.5 -16.5s-8.16699 -16.167 -9.5 -27.5c-2 0.666992 -4.16699 1 -6.5 1s-4.5 0.333008 -6.5 1
c0.666992 12 3.66699 22.333 9 31s11.833 15.667 19.5 21s16.167 9.16602 25.5 11.499s18.666 3.5 27.999 3.5c13.333 0 25.5 -3.5 36.5 -10.5s21.833 -16.167 32.5 -27.5c10.667 -12 20 -20 28 -24s16.667 -6 26 -6c5.33301 0 11.5 0.833008 18.5 2.5s13.833 4.5 20.5 8.5
s12.5 9.5 17.5 16.5s8.16699 16.167 9.5 27.5c2 -0.666992 4.16699 -1 6.5 -1s4.5 -0.333008 6.5 -1c-0.666992 -12 -3.66699 -22.333 -9 -31s-11.833 -15.667 -19.5 -21s-16.167 -9.16602 -25.5 -11.499s-18.666 -3.5 -27.999 -3.5c-13.333 0 -25.5 3.5 -36.5 10.5
s-21.833 16.167 -32.5 27.5z" />
    <glyph glyph-name="Imacron" unicode="&#x12a;" horiz-adv-x="252" 
d="M119 700h14v-700h-14v700zM12 752v14h230v-14h-230z" />
    <glyph glyph-name="imacron" unicode="&#x12b;" horiz-adv-x="166" 
d="M90 0h-14v375h14v-375zM-32 492v14h230v-14h-230z" />
    <glyph glyph-name="Iogonek" unicode="&#x12e;" horiz-adv-x="252" 
d="M119 700h14v-700h-14v700zM135 0l-14 -0.00292969v-6c0 -17.333 -4.66699 -29.5 -14 -36.5s-18.333 -13.167 -27 -18.5c-15.333 -10 -26.166 -21.167 -32.499 -33.5s-9.5 -23.166 -9.5 -32.499c0 -34 8.5 -58.5 25.5 -73.5s36.5 -22.5 58.5 -22.5
c17.333 0 33.5 4.83301 48.5 14.5s25.833 24.167 32.5 43.5c-2.66699 0.666992 -5.16699 1.33398 -7.5 2.00098s-4.83301 1.33398 -7.5 2.00098c-4 -14 -11.833 -25.5 -23.5 -34.5s-25.834 -13.5 -42.501 -13.5c-20.667 0 -37.5 6.83301 -50.5 20.5
s-19.5 30.834 -19.5 51.501c0 18.667 4.33301 33 13 43s18.167 18.5 28.5 25.5s19.833 14.167 28.5 21.5s13 17.666 13 30.999v16z" />
    <glyph glyph-name="iogonek" unicode="&#x12f;" horiz-adv-x="166" 
d="M63 500c0 5.33301 2 10 6 14s8.66699 6 14 6s10 -2 14 -6s6 -8.66699 6 -14s-2 -10 -6 -14s-8.66699 -6 -14 -6s-10 2 -14 6s-6 8.66699 -6 14zM90 0h-14v375h14v-375zM90 0l-14 -0.00292969v-6c0 -17.333 -4.66699 -29.5 -14 -36.5s-18.333 -13.167 -27 -18.5
c-15.333 -10 -26.166 -21.167 -32.499 -33.5s-9.5 -23.166 -9.5 -32.499c0 -34 8.5 -58.5 25.5 -73.5s36.5 -22.5 58.5 -22.5c17.333 0 33.5 4.83301 48.5 14.5s25.833 24.167 32.5 43.5c-2.66699 0.666992 -5.16699 1.33398 -7.5 2.00098s-4.83301 1.33398 -7.5 2.00098
c-4 -14 -11.833 -25.5 -23.5 -34.5s-25.834 -13.5 -42.501 -13.5c-20.667 0 -37.5 6.83301 -50.5 20.5s-19.5 30.834 -19.5 51.501c0 18.667 4.33301 33 13 43s18.167 18.5 28.5 25.5s19.833 14.167 28.5 21.5s13 17.666 13 30.999v16z" />
    <glyph glyph-name="Idotaccent" unicode="&#x130;" horiz-adv-x="252" 
d="M119 700h14v-700h-14v700zM106 770c0 5.33301 2 10 6 14s8.66699 6 14 6s10 -2 14 -6s6 -8.66699 6 -14s-2 -10 -6 -14s-8.66699 -6 -14 -6s-10 2 -14 6s-6 8.66699 -6 14z" />
    <glyph glyph-name="dotlessi" unicode="&#x131;" horiz-adv-x="166" 
d="M90 0h-14v375h14v-375z" />
    <glyph glyph-name="Jcircumflex" unicode="&#x134;" horiz-adv-x="254" 
d="M-49 -142l-0.00195312 14c24.667 1.33301 47.334 7.16602 68.001 17.499s38.667 25 54 44s27.333 41.833 36 68.5s13 57 13 91v607h14v-610c0 -37.333 -4.83301 -70.166 -14.5 -98.499s-23 -52.166 -40 -71.499s-36.667 -34.333 -59 -45s-46.166 -16.334 -71.499 -17.001
zM128.998 931l60 -90.5l60 -90.5h-16l-52 77l-52 77l-52 -77l-52 -77h-16l60 90.5z" />
    <glyph glyph-name="jcircumflex" unicode="&#x135;" horiz-adv-x="166" 
d="M33 -180l-12.001 9c16.667 18.667 30 41.5 40 68.5s15 57.5 15 91.5v386h14v-382c0 -38 -5.16699 -71.5 -15.5 -100.5s-24.166 -53.167 -41.499 -72.5zM83.999 659l60 -90.5l60 -90.5h-16l-52 77l-52 77l-52 -77l-52 -77h-16l60 90.5z" />
    <glyph glyph-name="uni0136" unicode="&#x136;" horiz-adv-x="589" 
d="M562 0l-162.998 207.002l-163 207l-52 -49l-52 -49c0 -52.667 0.166992 -105.334 0.5 -158.001s0.5 -105.334 0.5 -158.001h-14v700h14v-340c0 -5.33301 -0.166992 -10.166 -0.5 -14.499s-0.5 -9.16602 -0.5 -14.499c3.33301 3.33301 6.16602 6.66602 8.49902 9.99902
s5.16602 6.66602 8.49902 9.99902l183 174.5l183 174.5h22l-145 -138l-145 -138l167.5 -212l167.5 -212h-20zM350.002 -20.998l-43 -103l-43 -103h-14l38.5 103l38.5 103h23z" />
    <glyph glyph-name="uni0137" unicode="&#x137;" horiz-adv-x="366" 
d="M313 384c1.33301 -1.33301 2.83301 -3 4.5 -5s3.16699 -3.66699 4.5 -5l-73 -69.5l-73 -69.5l86 -117.5l86 -117.5h-18l-83 112.5l-83 112.5c-12.667 -11.333 -25 -23 -37 -35s-24.333 -23.667 -37 -35v-155h-14v750h14v-574l111.5 104zM244 -21l-43 -103l-43 -103h-14
l38.5 103l38.5 103h23z" />
    <glyph glyph-name="Lacute" unicode="&#x139;" horiz-adv-x="553" 
d="M119 0v700h14v-686h405v-14h-419zM281 750l45 66.5l45 66.5h16l-45 -66.5l-45 -66.5h-16z" />
    <glyph glyph-name="lacute" unicode="&#x13a;" horiz-adv-x="174" 
d="M94 0h-14v750h14v-750zM52 770l45 66.5l45 66.5h16l-45 -66.5l-45 -66.5h-16z" />
    <glyph glyph-name="uni013B" unicode="&#x13b;" horiz-adv-x="553" 
d="M119 0v700h14v-686h405v-14h-419zM367 -21l-43 -103l-43 -103h-14l38.5 103l38.5 103h23z" />
    <glyph glyph-name="uni013C" unicode="&#x13c;" horiz-adv-x="174" 
d="M94 0h-14v750h14v-750zM118 -21l-43 -103l-43 -103h-14l38.5 103l38.5 103h23z" />
    <glyph glyph-name="Lcaron" unicode="&#x13d;" horiz-adv-x="553" 
d="M119 0v700h14v-686h405v-14h-419zM278 572l-6 17.999c14 13.333 24.167 29.833 30.5 49.5s7.16602 41.167 2.49902 64.5c3.33301 1.33301 6.5 2.5 9.5 3.5s6.16699 2.16699 9.5 3.5c5.33301 -26.667 3.83301 -52.167 -4.5 -76.5s-22.166 -45.166 -41.499 -62.499z" />
    <glyph glyph-name="lcaron" unicode="&#x13e;" horiz-adv-x="174" 
d="M94 0h-14v750h14v-750zM160 572l-6 17.999c14 13.333 24.167 29.833 30.5 49.5s7.16602 41.167 2.49902 64.5c3.33301 1.33301 6.5 2.5 9.5 3.5s6.16699 2.16699 9.5 3.5c5.33301 -26.667 3.83301 -52.167 -4.5 -76.5s-22.166 -45.166 -41.499 -62.499z" />
    <glyph glyph-name="Lslash" unicode="&#x141;" horiz-adv-x="561" 
d="M60 279v14l314 115v-14zM127 0v700h14v-686h405v-14h-419z" />
    <glyph glyph-name="lslash" unicode="&#x142;" horiz-adv-x="189" 
d="M29 279v14l151 56v-14zM100 0h-14v750h14v-750z" />
    <glyph glyph-name="Nacute" unicode="&#x143;" horiz-adv-x="808" 
d="M689 700v-732l-276.5 353.5l-264.5 348.5l-9.5 13l-9.5 13c0.666992 -5.33301 1.16699 -10.666 1.5 -15.999s0.833008 -10.666 1.5 -15.999v-664h-14v732l140 -179.5l134 -176l132 -174l135 -174.5l9.5 -13l9.5 -13c-0.666992 5.33301 -1.16699 10.666 -1.5 15.999
s-0.833008 10.666 -1.5 15.999v666h14zM399 750l45 66.5l45 66.5h16l-45 -66.5l-45 -66.5h-16z" />
    <glyph glyph-name="nacute" unicode="&#x144;" horiz-adv-x="440" 
d="M76 375h10.001l1 -98c13.333 31.333 34.666 56.666 63.999 75.999s63 29 101 29c35.333 0 63.166 -10.333 83.499 -31s31.166 -47.667 32.499 -81v-270h-14v277c-1.33301 24 -10.166 44.833 -26.499 62.5s-39.166 27.167 -68.499 28.5
c-22.667 0 -44.167 -3.66699 -64.5 -11s-38.333 -17.5 -54 -30.5s-28 -28.667 -37 -47s-13.5 -38.166 -13.5 -59.499v-220h-14v375zM199.001 479l45 66.5l45 66.5h16l-45 -66.5l-45 -66.5h-16z" />
    <glyph glyph-name="uni0145" unicode="&#x145;" horiz-adv-x="808" 
d="M690 700v-732l-276.5 353.5l-264.5 348.5l-9.5 13l-9.5 13c0.666992 -5.33301 1.16699 -10.666 1.5 -15.999s0.833008 -10.666 1.5 -15.999v-664h-14v732l140 -179.5l134 -176l132 -174l135 -174.5l9.5 -13l9.5 -13c-0.666992 5.33301 -1.16699 10.666 -1.5 15.999
s-0.833008 10.666 -1.5 15.999v666h14zM396 -21l-43 -103l-43 -103h-14l38.5 103l38.5 103h23z" />
    <glyph glyph-name="uni0146" unicode="&#x146;" horiz-adv-x="440" 
d="M76 375h10.001l1 -98c13.333 31.333 34.666 56.666 63.999 75.999s63 29 101 29c35.333 0 63.166 -10.333 83.499 -31s31.166 -47.667 32.499 -81v-270h-14v277c-1.33301 24 -10.166 44.833 -26.499 62.5s-39.166 27.167 -68.499 28.5
c-22.667 0 -44.167 -3.66699 -64.5 -11s-38.333 -17.5 -54 -30.5s-28 -28.667 -37 -47s-13.5 -38.166 -13.5 -59.499v-220h-14v375zM244.001 -21l-43 -103l-43 -103h-14l38.5 103l38.5 103h23z" />
    <glyph glyph-name="Ncaron" unicode="&#x147;" horiz-adv-x="808" 
d="M689 700v-732l-276.5 353.5l-264.5 348.5l-9.5 13l-9.5 13c0.666992 -5.33301 1.16699 -10.666 1.5 -15.999s0.833008 -10.666 1.5 -15.999v-664h-14v732l140 -179.5l134 -176l132 -174l135 -174.5l9.5 -13l9.5 -13c-0.666992 5.33301 -1.16699 10.666 -1.5 15.999
s-0.833008 10.666 -1.5 15.999v666h14zM414 729l60 90.5l60 90.5h-16l-52 -77l-52 -77l-52 77l-52 77h-16l60 -90.5z" />
    <glyph glyph-name="ncaron" unicode="&#x148;" horiz-adv-x="440" 
d="M76 375h10.001l1 -98c13.333 31.333 34.666 56.666 63.999 75.999s63 29 101 29c35.333 0 63.166 -10.333 83.499 -31s31.166 -47.667 32.499 -81v-270h-14v277c-1.33301 24 -10.166 44.833 -26.499 62.5s-39.166 27.167 -68.499 28.5
c-22.667 0 -44.167 -3.66699 -64.5 -11s-38.333 -17.5 -54 -30.5s-28 -28.667 -37 -47s-13.5 -38.166 -13.5 -59.499v-220h-14v375zM223.001 479l-60 90.5l-60 90.5h16l52 -77l52 -77l52 77l52 77h16l-60 -90.5z" />
    <glyph glyph-name="Omacron" unicode="&#x14c;" horiz-adv-x="838" 
d="M61 349c0 49.333 9.33301 95.833 28 139.5s44.167 81.667 76.5 114s70.166 58 113.499 77s89.666 28.5 138.999 28.5s95.833 -9.5 139.5 -28.5s81.667 -44.667 114 -77s58 -70.333 77 -114s28.5 -90.167 28.5 -139.5s-9.5 -95.666 -28.5 -138.999
s-44.667 -81.166 -77 -113.499s-70.333 -57.833 -114 -76.5s-90.167 -28 -139.5 -28s-95.666 9.33301 -138.999 28s-81.166 44.167 -113.499 76.5s-57.833 70.166 -76.5 113.499s-28 89.666 -28 138.999zM75 348c0 -47.333 9 -91.667 27 -133s42.333 -77.5 73 -108.5
s66.667 -55.5 108 -73.5s85.333 -27 132 -27c47.333 0 92.166 9 134.499 27s79.333 42.5 111 73.5s56.667 67.333 75 109s27.5 86.167 27.5 133.5s-9.16699 91.833 -27.5 133.5s-43.166 78.167 -74.499 109.5s-67.833 56.166 -109.5 74.499s-86.167 27.5 -133.5 27.5
s-91.833 -9.16699 -133.5 -27.5s-78 -43.166 -109 -74.499s-55.5 -68 -73.5 -110s-27 -86.667 -27 -134zM306 751.999v14h230v-14h-230z" />
    <glyph glyph-name="omacron" unicode="&#x14d;" horiz-adv-x="480" 
d="M45 188c0 26.667 5 52 15 76s23.833 44.833 41.5 62.5s38.167 31.667 61.5 42s48.666 15.5 75.999 15.5c26.667 0 52 -5.16699 76 -15.5s44.833 -24.333 62.5 -42s31.667 -38.5 42 -62.5s15.5 -49.333 15.5 -76c0 -27.333 -5.16699 -52.666 -15.5 -75.999
s-24.333 -43.833 -42 -61.5s-38.5 -31.5 -62.5 -41.5s-49.333 -15 -76 -15c-27.333 0 -52.666 5 -75.999 15s-43.833 23.833 -61.5 41.5s-31.5 38.167 -41.5 61.5s-15 48.666 -15 75.999zM59 188c0 -25.333 4.66699 -48.833 14 -70.5s22.166 -40.667 38.499 -57
s35.333 -29.166 57 -38.499s45.167 -14 70.5 -14c24.667 0 48 4.66699 70 14s41.333 22.166 58 38.499s29.667 35.333 39 57s14 45.167 14 70.5c0 24.667 -4.66699 48 -14 70s-22.333 41.333 -39 58s-36 29.667 -58 39s-45.333 14 -70 14
c-25.333 0 -48.833 -4.66699 -70.5 -14s-40.667 -22.333 -57 -39s-29.166 -36 -38.499 -58s-14 -45.333 -14 -70zM125 492v14h230v-14h-230z" />
    <glyph glyph-name="Ohungarumlaut" unicode="&#x150;" horiz-adv-x="838" 
d="M61 349c0 49.333 9.33301 95.833 28 139.5s44.167 81.667 76.5 114s70.166 58 113.499 77s89.666 28.5 138.999 28.5s95.833 -9.5 139.5 -28.5s81.667 -44.667 114 -77s58 -70.333 77 -114s28.5 -90.167 28.5 -139.5s-9.5 -95.666 -28.5 -138.999
s-44.667 -81.166 -77 -113.499s-70.333 -57.833 -114 -76.5s-90.167 -28 -139.5 -28s-95.666 9.33301 -138.999 28s-81.166 44.167 -113.499 76.5s-57.833 70.166 -76.5 113.499s-28 89.666 -28 138.999zM75 348c0 -47.333 9 -91.667 27 -133s42.333 -77.5 73 -108.5
s66.667 -55.5 108 -73.5s85.333 -27 132 -27c47.333 0 92.166 9 134.499 27s79.333 42.5 111 73.5s56.667 67.333 75 109s27.5 86.167 27.5 133.5s-9.16699 91.833 -27.5 133.5s-43.166 78.167 -74.499 109.5s-67.833 56.166 -109.5 74.499s-86.167 27.5 -133.5 27.5
s-91.833 -9.16699 -133.5 -27.5s-78 -43.166 -109 -74.499s-55.5 -68 -73.5 -110s-27 -86.667 -27 -134zM297 749.999l45 66.5l45 66.5h16l-45 -66.5l-45 -66.5h-16zM515 749.999l45 66.5l45 66.5h16l-45 -66.5l-45 -66.5h-16z" />
    <glyph glyph-name="ohungarumlaut" unicode="&#x151;" horiz-adv-x="480" 
d="M45 188c0 26.667 5 52 15 76s23.833 44.833 41.5 62.5s38.167 31.667 61.5 42s48.666 15.5 75.999 15.5c26.667 0 52 -5.16699 76 -15.5s44.833 -24.333 62.5 -42s31.667 -38.5 42 -62.5s15.5 -49.333 15.5 -76c0 -27.333 -5.16699 -52.666 -15.5 -75.999
s-24.333 -43.833 -42 -61.5s-38.5 -31.5 -62.5 -41.5s-49.333 -15 -76 -15c-27.333 0 -52.666 5 -75.999 15s-43.833 23.833 -61.5 41.5s-31.5 38.167 -41.5 61.5s-15 48.666 -15 75.999zM59 188c0 -25.333 4.66699 -48.833 14 -70.5s22.166 -40.667 38.499 -57
s35.333 -29.166 57 -38.499s45.167 -14 70.5 -14c24.667 0 48 4.66699 70 14s41.333 22.166 58 38.499s29.667 35.333 39 57s14 45.167 14 70.5c0 24.667 -4.66699 48 -14 70s-22.333 41.333 -39 58s-36 29.667 -58 39s-45.333 14 -70 14
c-25.333 0 -48.833 -4.66699 -70.5 -14s-40.667 -22.333 -57 -39s-29.166 -36 -38.499 -58s-14 -45.333 -14 -70zM118 479l45 66.5l45 66.5h16l-45 -66.5l-45 -66.5h-16zM336 479l45 66.5l45 66.5h16l-45 -66.5l-45 -66.5h-16z" />
    <glyph glyph-name="OE" unicode="&#x152;" horiz-adv-x="946" 
d="M507 3c-29.333 -7.33301 -58.999 -11 -88.999 -11c-49.333 0 -95.666 9.33301 -138.999 28s-81.166 44.167 -113.499 76.5s-57.833 70.166 -76.5 113.499s-28 89.666 -28 138.999s9.33301 95.833 28 139.5s44.167 81.667 76.5 114s70.166 58 113.499 77
s89.666 28.5 138.999 28.5c31.333 0 61.666 -4 90.999 -12l-16 -10c-25.333 5.33301 -50.333 8 -75 8c-47.333 0 -91.833 -9.16699 -133.5 -27.5s-78 -43.166 -109 -74.499s-55.5 -68 -73.5 -110s-27 -86.667 -27 -134s9 -91.666 27 -132.999s42.333 -77.5 73 -108.5
s66.667 -55.5 108 -73.5s85.333 -27 132 -27c26 0 51.667 3 77 9zM487.001 0v700h385v-14h-371v-326h332v-14h-332v-332h385v-14h-399z" />
    <glyph glyph-name="oe" unicode="&#x153;" horiz-adv-x="657" 
d="M356 32c-16.667 -12 -34.833 -21.333 -54.5 -28s-40.5 -10 -62.5 -10c-27.333 0 -52.666 5 -75.999 15s-43.833 23.833 -61.5 41.5s-31.5 38.167 -41.5 61.5s-15 48.666 -15 75.999c0 26.667 5 52 15 76s23.833 44.833 41.5 62.5s38.167 31.667 61.5 42
s48.666 15.5 75.999 15.5c21.333 0 41.833 -3.33301 61.5 -10s37.5 -15.667 53.5 -27l-12 -10c-14.667 10 -30.667 17.833 -48 23.5s-35.666 8.5 -54.999 8.5c-25.333 0 -48.833 -4.66699 -70.5 -14s-40.667 -22.333 -57 -39s-29.166 -36 -38.499 -58s-14 -45.333 -14 -70
c0 -25.333 4.66699 -48.833 14 -70.5s22.166 -40.667 38.499 -57s35.333 -29.166 57 -38.499s45.167 -14 70.5 -14c19.333 0 37.666 2.83301 54.999 8.5s33.333 13.5 48 23.5zM593.001 46c-17.333 -16 -37.499 -28.665 -60.499 -37.998s-47.5 -14 -73.5 -14
c-27.333 0 -52.666 5 -75.999 15s-43.833 23.833 -61.5 41.5s-31.5 38.167 -41.5 61.5s-15 48.666 -15 75.999c0 26.667 5 52 15 76s23.833 44.833 41.5 62.5s38.167 31.667 61.5 42s48.666 15.5 75.999 15.5c41.333 0 76.166 -11.833 104.499 -35.5
s49.833 -53.5 64.5 -89.5l-81 -32.5l-87 -35.5l-87.5 -35.5l-81.5 -33.5c13.333 -34 35 -61.5 65 -82.5s64.333 -31.5 103 -31.5c24 0 46.5 4.16699 67.5 12.5s39.5 20.166 55.5 35.499zM609.002 266.002c-14 30 -33.501 54.667 -58.501 74s-55.5 29 -91.5 29
c-25.333 0 -48.833 -4.66699 -70.5 -14s-40.667 -22.333 -57 -39s-29.166 -36 -38.499 -58s-14 -45.333 -14 -70c0 -19.333 2.33301 -37 7 -53l78 32l83 33.5l83.5 33.5z" />
    <glyph glyph-name="Racute" unicode="&#x154;" horiz-adv-x="567" 
d="M331 337l202 -337h-18l-200 337h16zM133 335l115.001 0.000976562c38.667 0 70.667 6.33301 96 19s45.5 28.5 60.5 47.5s25.5 39.167 31.5 60.5s9 40.666 9 57.999c0 24.667 -5 47.167 -15 67.5s-23.833 37.833 -41.5 52.5s-38.334 26 -62.001 34s-49.5 12 -77.5 12h-116
v-351zM119.001 0.000976562v699.997h140c19.333 0 40.666 -3.16699 63.999 -9.5s45 -16.666 65 -30.999s36.833 -33.166 50.5 -56.499s20.5 -52.333 20.5 -87c0 -25.333 -4.16699 -49.666 -12.5 -72.999s-21.166 -44 -38.499 -62s-39.5 -32.5 -66.5 -43.5
s-59.167 -16.5 -96.5 -16.5h-112v-321h-14zM271.001 749.998l45 66.5l45 66.5h16l-45 -66.5l-45 -66.5h-16z" />
    <glyph glyph-name="racute" unicode="&#x155;" horiz-adv-x="261" 
d="M253 368c-22 -0.666992 -42.833 -4.83203 -62.5 -12.499s-37 -18 -52 -31s-26.833 -28.5 -35.5 -46.5s-13 -37.333 -13 -58v-220h-14v375h10l1 -98c14 32 35.667 57.167 65 75.5s63 28.166 101 29.499v-14zM138 479.002l45 66.5l45 66.5h16l-45 -66.5l-45 -66.5h-16z" />
    <glyph glyph-name="uni0156" unicode="&#x156;" horiz-adv-x="567" 
d="M331 337l202 -337h-18l-200 337h16zM133 335l115.001 0.000976562c38.667 0 70.667 6.33301 96 19s45.5 28.5 60.5 47.5s25.5 39.167 31.5 60.5s9 40.666 9 57.999c0 24.667 -5 47.167 -15 67.5s-23.833 37.833 -41.5 52.5s-38.334 26 -62.001 34s-49.5 12 -77.5 12h-116
v-351zM119.001 0.000976562v699.997h140c19.333 0 40.666 -3.16699 63.999 -9.5s45 -16.666 65 -30.999s36.833 -33.166 50.5 -56.499s20.5 -52.333 20.5 -87c0 -25.333 -4.16699 -49.666 -12.5 -72.999s-21.166 -44 -38.499 -62s-39.5 -32.5 -66.5 -43.5
s-59.167 -16.5 -96.5 -16.5h-112v-321h-14zM287.001 -21.002l-43 -103l-43 -103h-14l38.5 103l38.5 103h23z" />
    <glyph glyph-name="uni0157" unicode="&#x157;" horiz-adv-x="261" 
d="M253 368c-22 -0.666992 -42.833 -4.83203 -62.5 -12.499s-37 -18 -52 -31s-26.833 -28.5 -35.5 -46.5s-13 -37.333 -13 -58v-220h-14v375h10l1 -98c14 32 35.667 57.167 65 75.5s63 28.166 101 29.499v-14zM154 -20.998l-43 -103l-43 -103h-14l38.5 103l38.5 103h23z" />
    <glyph glyph-name="Rcaron" unicode="&#x158;" horiz-adv-x="567" 
d="M331 337l202 -337h-18l-200 337h16zM133 335l115.001 0.000976562c38.667 0 70.667 6.33301 96 19s45.5 28.5 60.5 47.5s25.5 39.167 31.5 60.5s9 40.666 9 57.999c0 24.667 -5 47.167 -15 67.5s-23.833 37.833 -41.5 52.5s-38.334 26 -62.001 34s-49.5 12 -77.5 12h-116
v-351zM119.001 0.000976562v699.997h140c19.333 0 40.666 -3.16699 63.999 -9.5s45 -16.666 65 -30.999s36.833 -33.166 50.5 -56.499s20.5 -52.333 20.5 -87c0 -25.333 -4.16699 -49.666 -12.5 -72.999s-21.166 -44 -38.499 -62s-39.5 -32.5 -66.5 -43.5
s-59.167 -16.5 -96.5 -16.5h-112v-321h-14zM276.001 728.998l-60 90.5l-60 90.5h16l52 -77l52 -77l52 77l52 77h16l-60 -90.5z" />
    <glyph glyph-name="rcaron" unicode="&#x159;" horiz-adv-x="261" 
d="M253 368c-22 -0.666992 -42.833 -4.83203 -62.5 -12.499s-37 -18 -52 -31s-26.833 -28.5 -35.5 -46.5s-13 -37.333 -13 -58v-220h-14v375h10l1 -98c14 32 35.667 57.167 65 75.5s63 28.166 101 29.499v-14zM151 479.002l-60 90.5l-60 90.5h16l52 -77l52 -77l52 77l52 77
h16l-60 -90.5z" />
    <glyph glyph-name="Sacute" unicode="&#x15a;" horiz-adv-x="531" 
d="M440 667l-6.00781 -11.0049c-9.33301 4 -20.166 8 -32.499 12s-25.5 7.83301 -39.5 11.5s-28.5 6.5 -43.5 8.5s-29.833 3 -44.5 3c-27.333 0 -52 -3.83301 -74 -11.5s-40.667 -18.167 -56 -31.5s-27.166 -28.833 -35.499 -46.5s-12.5 -36.167 -12.5 -55.5
c0 -31.333 9.33301 -56 28 -74s42.167 -33.333 70.5 -46s58.833 -24.5 91.5 -35.5s63.167 -24.5 91.5 -40.5s51.833 -36.667 70.5 -62s28 -58.666 28 -99.999c0 -30.667 -5.5 -58 -16.5 -82s-26.167 -44.5 -45.5 -61.5s-42.166 -30 -68.499 -39s-55.166 -13.5 -86.499 -13.5
c-27.333 0 -52.5 3 -75.5 9s-43.333 13 -61 21s-32.5 16 -44.5 24s-21 13.667 -27 17l8 13c10 -7.33301 22.333 -15 37 -23s30.834 -15.5 48.501 -22.5s36.5 -12.833 56.5 -17.5s40.333 -7 61 -7c24.667 0 49 3.66699 73 11s45.333 18.5 64 33.5s33.834 33.833 45.501 56.5
s17.5 49.334 17.5 80.001c0 39.333 -9.33301 71 -28 95s-42.167 43.667 -70.5 59s-58.833 28.333 -91.5 39s-63.167 22.5 -91.5 35.5s-51.833 29.333 -70.5 49s-28 45.834 -28 78.501c0 22.667 4.83301 43.834 14.5 63.501s22.834 36.834 39.501 51.501s36.334 26 59.001 34
s47 12 73 12c12 0 25.5 -0.833008 40.5 -2.5s30.167 -4.16699 45.5 -7.5s30.5 -7.33301 45.5 -12s28.5 -9.66699 40.5 -15zM228.992 749.995l45 66.5l45 66.5h16l-45 -66.5l-45 -66.5h-16z" />
    <glyph glyph-name="sacute" unicode="&#x15b;" horiz-adv-x="316" 
d="M256 336l-9.99902 -9.99805c-11.333 13.333 -25.833 23.166 -43.5 29.499s-33.167 9.5 -46.5 9.5c-8.66699 0 -18 -1.5 -28 -4.5s-19.333 -7.5 -28 -13.5s-15.834 -14 -21.501 -24s-8.5 -22 -8.5 -36c0 -18.667 5 -33.334 15 -44.001s22.333 -19.5 37 -26.5
s30.834 -13.167 48.501 -18.5s33.834 -11.833 48.501 -19.5s27 -17.5 37 -29.5s15 -28.333 15 -49c0 -14 -2.5 -27.5 -7.5 -40.5s-12.333 -24.5 -22 -34.5s-21.667 -18 -36 -24s-30.833 -9 -49.5 -9c-18 0 -38 3.5 -60 10.5s-40 19.167 -54 36.5
c2 1.33301 3.83301 2.83301 5.5 4.5s3.5 3.16699 5.5 4.5c4 -6 10.333 -11.667 19 -17s18 -9.83301 28 -13.5s20 -6.5 30 -8.5s19 -3 27 -3s17.833 1.5 29.5 4.5s22.667 8 33 15s19.166 16.167 26.499 27.5s11 25.666 11 42.999c0 20 -5 35.667 -15 47
s-22.333 20.5 -37 27.5s-30.834 13.167 -48.501 18.5s-33.834 11.666 -48.501 18.999s-27 17 -37 29s-15 28.333 -15 49c0 16 2.83301 29.833 8.5 41.5s13.334 21.334 23.001 29.001s20.5 13.334 32.5 17.001s24 5.5 36 5.5c14.667 0 31.5 -3.16699 50.5 -9.5
s35.5 -17.5 49.5 -33.5zM155.001 479.002l45 66.5l45 66.5h16l-45 -66.5l-45 -66.5h-16z" />
    <glyph glyph-name="Scircumflex" unicode="&#x15c;" horiz-adv-x="531" 
d="M440 667l-6.00781 -11.0049c-9.33301 4 -20.166 8 -32.499 12s-25.5 7.83301 -39.5 11.5s-28.5 6.5 -43.5 8.5s-29.833 3 -44.5 3c-27.333 0 -52 -3.83301 -74 -11.5s-40.667 -18.167 -56 -31.5s-27.166 -28.833 -35.499 -46.5s-12.5 -36.167 -12.5 -55.5
c0 -31.333 9.33301 -56 28 -74s42.167 -33.333 70.5 -46s58.833 -24.5 91.5 -35.5s63.167 -24.5 91.5 -40.5s51.833 -36.667 70.5 -62s28 -58.666 28 -99.999c0 -30.667 -5.5 -58 -16.5 -82s-26.167 -44.5 -45.5 -61.5s-42.166 -30 -68.499 -39s-55.166 -13.5 -86.499 -13.5
c-27.333 0 -52.5 3 -75.5 9s-43.333 13 -61 21s-32.5 16 -44.5 24s-21 13.667 -27 17l8 13c10 -7.33301 22.333 -15 37 -23s30.834 -15.5 48.501 -22.5s36.5 -12.833 56.5 -17.5s40.333 -7 61 -7c24.667 0 49 3.66699 73 11s45.333 18.5 64 33.5s33.834 33.833 45.501 56.5
s17.5 49.334 17.5 80.001c0 39.333 -9.33301 71 -28 95s-42.167 43.667 -70.5 59s-58.833 28.333 -91.5 39s-63.167 22.5 -91.5 35.5s-51.833 29.333 -70.5 49s-28 45.834 -28 78.501c0 22.667 4.83301 43.834 14.5 63.501s22.834 36.834 39.501 51.501s36.334 26 59.001 34
s47 12 73 12c12 0 25.5 -0.833008 40.5 -2.5s30.167 -4.16699 45.5 -7.5s30.5 -7.33301 45.5 -12s28.5 -9.66699 40.5 -15zM271.992 930.995l60 -90.5l60 -90.5h-16l-52 77l-52 77l-52 -77l-52 -77h-16l60 90.5z" />
    <glyph glyph-name="scircumflex" unicode="&#x15d;" horiz-adv-x="316" 
d="M256 336l-9.99902 -9.99805c-11.333 13.333 -25.833 23.166 -43.5 29.499s-33.167 9.5 -46.5 9.5c-8.66699 0 -18 -1.5 -28 -4.5s-19.333 -7.5 -28 -13.5s-15.834 -14 -21.501 -24s-8.5 -22 -8.5 -36c0 -18.667 5 -33.334 15 -44.001s22.333 -19.5 37 -26.5
s30.834 -13.167 48.501 -18.5s33.834 -11.833 48.501 -19.5s27 -17.5 37 -29.5s15 -28.333 15 -49c0 -14 -2.5 -27.5 -7.5 -40.5s-12.333 -24.5 -22 -34.5s-21.667 -18 -36 -24s-30.833 -9 -49.5 -9c-18 0 -38 3.5 -60 10.5s-40 19.167 -54 36.5
c2 1.33301 3.83301 2.83301 5.5 4.5s3.5 3.16699 5.5 4.5c4 -6 10.333 -11.667 19 -17s18 -9.83301 28 -13.5s20 -6.5 30 -8.5s19 -3 27 -3s17.833 1.5 29.5 4.5s22.667 8 33 15s19.166 16.167 26.499 27.5s11 25.666 11 42.999c0 20 -5 35.667 -15 47
s-22.333 20.5 -37 27.5s-30.834 13.167 -48.501 18.5s-33.834 11.666 -48.501 18.999s-27 17 -37 29s-15 28.333 -15 49c0 16 2.83301 29.833 8.5 41.5s13.334 21.334 23.001 29.001s20.5 13.334 32.5 17.001s24 5.5 36 5.5c14.667 0 31.5 -3.16699 50.5 -9.5
s35.5 -17.5 49.5 -33.5zM148.001 660.002l60 -90.5l60 -90.5h-16l-52 77l-52 77l-52 -77l-52 -77h-16l60 90.5z" />
    <glyph glyph-name="Scedilla" unicode="&#x15e;" horiz-adv-x="531" 
d="M440 667l-6.00781 -11.0049c-9.33301 4 -20.166 8 -32.499 12s-25.5 7.83301 -39.5 11.5s-28.5 6.5 -43.5 8.5s-29.833 3 -44.5 3c-27.333 0 -52 -3.83301 -74 -11.5s-40.667 -18.167 -56 -31.5s-27.166 -28.833 -35.499 -46.5s-12.5 -36.167 -12.5 -55.5
c0 -31.333 9.33301 -56 28 -74s42.167 -33.333 70.5 -46s58.833 -24.5 91.5 -35.5s63.167 -24.5 91.5 -40.5s51.833 -36.667 70.5 -62s28 -58.666 28 -99.999c0 -30.667 -5.5 -58 -16.5 -82s-26.167 -44.5 -45.5 -61.5s-42.166 -30 -68.499 -39s-55.166 -13.5 -86.499 -13.5
c-27.333 0 -52.5 3 -75.5 9s-43.333 13 -61 21s-32.5 16 -44.5 24s-21 13.667 -27 17l8 13c10 -7.33301 22.333 -15 37 -23s30.834 -15.5 48.501 -22.5s36.5 -12.833 56.5 -17.5s40.333 -7 61 -7c24.667 0 49 3.66699 73 11s45.333 18.5 64 33.5s33.834 33.833 45.501 56.5
s17.5 49.334 17.5 80.001c0 39.333 -9.33301 71 -28 95s-42.167 43.667 -70.5 59s-58.833 28.333 -91.5 39s-63.167 22.5 -91.5 35.5s-51.833 29.333 -70.5 49s-28 45.834 -28 78.501c0 22.667 4.83301 43.834 14.5 63.501s22.834 36.834 39.501 51.501s36.334 26 59.001 34
s47 12 73 12c12 0 25.5 -0.833008 40.5 -2.5s30.167 -4.16699 45.5 -7.5s30.5 -7.33301 45.5 -12s28.5 -9.66699 40.5 -15zM249.992 -0.00488281l14 -0.00292969v-6c0 -17.333 4.66699 -29.5 14 -36.5s18.333 -13.167 27 -18.5c15.333 -10 26.166 -21.167 32.499 -33.5
s9.5 -23.166 9.5 -32.499c0 -34 -8.5 -58.5 -25.5 -73.5s-36.5 -22.5 -58.5 -22.5c-17.333 0 -33.5 4.83301 -48.5 14.5s-25.833 24.167 -32.5 43.5c2.66699 0.666992 5.16699 1.33398 7.5 2.00098s4.83301 1.33398 7.5 2.00098c4 -14 11.833 -25.5 23.5 -34.5
s25.834 -13.5 42.501 -13.5c20.667 0 37.5 6.83301 50.5 20.5s19.5 30.834 19.5 51.501c0 18.667 -4.33301 33 -13 43s-18.167 18.5 -28.5 25.5s-19.833 14.167 -28.5 21.5s-13 17.666 -13 30.999v16z" />
    <glyph glyph-name="scedilla" unicode="&#x15f;" horiz-adv-x="316" 
d="M256 336l-9.99902 -9.99805c-11.333 13.333 -25.833 23.166 -43.5 29.499s-33.167 9.5 -46.5 9.5c-8.66699 0 -18 -1.5 -28 -4.5s-19.333 -7.5 -28 -13.5s-15.834 -14 -21.501 -24s-8.5 -22 -8.5 -36c0 -18.667 5 -33.334 15 -44.001s22.333 -19.5 37 -26.5
s30.834 -13.167 48.501 -18.5s33.834 -11.833 48.501 -19.5s27 -17.5 37 -29.5s15 -28.333 15 -49c0 -14 -2.5 -27.5 -7.5 -40.5s-12.333 -24.5 -22 -34.5s-21.667 -18 -36 -24s-30.833 -9 -49.5 -9c-18 0 -38 3.5 -60 10.5s-40 19.167 -54 36.5
c2 1.33301 3.83301 2.83301 5.5 4.5s3.5 3.16699 5.5 4.5c4 -6 10.333 -11.667 19 -17s18 -9.83301 28 -13.5s20 -6.5 30 -8.5s19 -3 27 -3s17.833 1.5 29.5 4.5s22.667 8 33 15s19.166 16.167 26.499 27.5s11 25.666 11 42.999c0 20 -5 35.667 -15 47
s-22.333 20.5 -37 27.5s-30.834 13.167 -48.501 18.5s-33.834 11.666 -48.501 18.999s-27 17 -37 29s-15 28.333 -15 49c0 16 2.83301 29.833 8.5 41.5s13.334 21.334 23.001 29.001s20.5 13.334 32.5 17.001s24 5.5 36 5.5c14.667 0 31.5 -3.16699 50.5 -9.5
s35.5 -17.5 49.5 -33.5zM142.001 0.00195312l14 -0.00292969v-6c0 -17.333 4.66699 -29.5 14 -36.5s18.333 -13.167 27 -18.5c15.333 -10 26.166 -21.167 32.499 -33.5s9.5 -23.166 9.5 -32.499c0 -34 -8.5 -58.5 -25.5 -73.5s-36.5 -22.5 -58.5 -22.5
c-17.333 0 -33.5 4.83301 -48.5 14.5s-25.833 24.167 -32.5 43.5c2.66699 0.666992 5.16699 1.33398 7.5 2.00098s4.83301 1.33398 7.5 2.00098c4 -14 11.833 -25.5 23.5 -34.5s25.834 -13.5 42.501 -13.5c20.667 0 37.5 6.83301 50.5 20.5s19.5 30.834 19.5 51.501
c0 18.667 -4.33301 33 -13 43s-18.167 18.5 -28.5 25.5s-19.833 14.167 -28.5 21.5s-13 17.666 -13 30.999v16z" />
    <glyph glyph-name="Scaron" unicode="&#x160;" horiz-adv-x="531" 
d="M440 667l-6.00781 -11.0049c-9.33301 4 -20.166 8 -32.499 12s-25.5 7.83301 -39.5 11.5s-28.5 6.5 -43.5 8.5s-29.833 3 -44.5 3c-27.333 0 -52 -3.83301 -74 -11.5s-40.667 -18.167 -56 -31.5s-27.166 -28.833 -35.499 -46.5s-12.5 -36.167 -12.5 -55.5
c0 -31.333 9.33301 -56 28 -74s42.167 -33.333 70.5 -46s58.833 -24.5 91.5 -35.5s63.167 -24.5 91.5 -40.5s51.833 -36.667 70.5 -62s28 -58.666 28 -99.999c0 -30.667 -5.5 -58 -16.5 -82s-26.167 -44.5 -45.5 -61.5s-42.166 -30 -68.499 -39s-55.166 -13.5 -86.499 -13.5
c-27.333 0 -52.5 3 -75.5 9s-43.333 13 -61 21s-32.5 16 -44.5 24s-21 13.667 -27 17l8 13c10 -7.33301 22.333 -15 37 -23s30.834 -15.5 48.501 -22.5s36.5 -12.833 56.5 -17.5s40.333 -7 61 -7c24.667 0 49 3.66699 73 11s45.333 18.5 64 33.5s33.834 33.833 45.501 56.5
s17.5 49.334 17.5 80.001c0 39.333 -9.33301 71 -28 95s-42.167 43.667 -70.5 59s-58.833 28.333 -91.5 39s-63.167 22.5 -91.5 35.5s-51.833 29.333 -70.5 49s-28 45.834 -28 78.501c0 22.667 4.83301 43.834 14.5 63.501s22.834 36.834 39.501 51.501s36.334 26 59.001 34
s47 12 73 12c12 0 25.5 -0.833008 40.5 -2.5s30.167 -4.16699 45.5 -7.5s30.5 -7.33301 45.5 -12s28.5 -9.66699 40.5 -15zM263.992 728.995l-60 90.5l-60 90.5h16l52 -77l52 -77l52 77l52 77h16l-60 -90.5z" />
    <glyph glyph-name="scaron" unicode="&#x161;" horiz-adv-x="316" 
d="M256 336l-9.99902 -9.99805c-11.333 13.333 -25.833 23.166 -43.5 29.499s-33.167 9.5 -46.5 9.5c-8.66699 0 -18 -1.5 -28 -4.5s-19.333 -7.5 -28 -13.5s-15.834 -14 -21.501 -24s-8.5 -22 -8.5 -36c0 -18.667 5 -33.334 15 -44.001s22.333 -19.5 37 -26.5
s30.834 -13.167 48.501 -18.5s33.834 -11.833 48.501 -19.5s27 -17.5 37 -29.5s15 -28.333 15 -49c0 -14 -2.5 -27.5 -7.5 -40.5s-12.333 -24.5 -22 -34.5s-21.667 -18 -36 -24s-30.833 -9 -49.5 -9c-18 0 -38 3.5 -60 10.5s-40 19.167 -54 36.5
c2 1.33301 3.83301 2.83301 5.5 4.5s3.5 3.16699 5.5 4.5c4 -6 10.333 -11.667 19 -17s18 -9.83301 28 -13.5s20 -6.5 30 -8.5s19 -3 27 -3s17.833 1.5 29.5 4.5s22.667 8 33 15s19.166 16.167 26.499 27.5s11 25.666 11 42.999c0 20 -5 35.667 -15 47
s-22.333 20.5 -37 27.5s-30.834 13.167 -48.501 18.5s-33.834 11.666 -48.501 18.999s-27 17 -37 29s-15 28.333 -15 49c0 16 2.83301 29.833 8.5 41.5s13.334 21.334 23.001 29.001s20.5 13.334 32.5 17.001s24 5.5 36 5.5c14.667 0 31.5 -3.16699 50.5 -9.5
s35.5 -17.5 49.5 -33.5zM157.001 479.002l60 90.5l60 90.5h-16l-52 -77l-52 -77l-52 77l-52 77h-16l60 -90.5z" />
    <glyph glyph-name="uni0162" unicode="&#x162;" horiz-adv-x="498" 
d="M456 700v-14h-200v-686h-14v686h-200v14h414zM258 -21l-43 -103l-43 -103h-14l38.5 103l38.5 103h23z" />
    <glyph glyph-name="uni0163" unicode="&#x163;" horiz-adv-x="262" 
d="M107 539h14v-172h127v-14h-127v-353h-14v353h-89v14h89v172zM130 -21l-43 -103l-43 -103h-14l38.5 103l38.5 103h23z" />
    <glyph glyph-name="Tcaron" unicode="&#x164;" horiz-adv-x="498" 
d="M456 700v-14h-200v-686h-14v686h-200v14h414zM248 729l60 90.5l60 90.5h-16l-52 -77l-52 -77l-52 77l-52 77h-16l60 -90.5z" />
    <glyph glyph-name="tcaron" unicode="&#x165;" horiz-adv-x="262" 
d="M107 539h14v-172h127v-14h-127v-353h-14v353h-89v14h89v172zM205 572l-6 17.999c14 13.333 24.167 29.833 30.5 49.5s7.16602 41.167 2.49902 64.5c3.33301 1.33301 6.5 2.5 9.5 3.5s6.16699 2.16699 9.5 3.5c5.33301 -26.667 3.83301 -52.167 -4.5 -76.5
s-22.166 -45.166 -41.499 -62.499z" />
    <glyph glyph-name="Tbar" unicode="&#x166;" horiz-adv-x="502" 
d="M458 700v-14h-200v-686h-14v686h-200v14h414zM136 492v14h230v-14h-230z" />
    <glyph glyph-name="tbar" unicode="&#x167;" horiz-adv-x="262" 
d="M107 539h14v-172h127v-14h-127v-353h-14v353h-89v14h89v172zM21 492v14h230v-14h-230z" />
    <glyph glyph-name="Utilde" unicode="&#x168;" horiz-adv-x="669" 
d="M335 -8c-32 0 -61.834 5 -89.501 15s-51.5 24.833 -71.5 44.5s-35.667 44.167 -47 73.5s-17 63 -17 101v474h14v-471c0 -36 5.16699 -67.833 15.5 -95.5s24.833 -51 43.5 -70s41 -33.333 67 -43s54.333 -14.5 85 -14.5c30 0 58 4.83301 84 14.5s48.333 24 67 43
s33.334 42.333 44.001 70s16 59.5 16 95.5v471h14v-474c0 -38 -5.83301 -71.667 -17.5 -101s-27.5 -53.833 -47.5 -73.5s-43.667 -34.5 -71 -44.5s-57 -15 -89 -15zM341.999 785c-10.667 12 -20 20 -28 24s-16.667 6 -26 6c-5.33301 0 -11.5 -0.833008 -18.5 -2.5
s-13.833 -4.5 -20.5 -8.5s-12.5 -9.5 -17.5 -16.5s-8.16699 -16.167 -9.5 -27.5c-2 0.666992 -4.16699 1 -6.5 1s-4.5 0.333008 -6.5 1c0.666992 12 3.66699 22.333 9 31s11.833 15.667 19.5 21s16.167 9.16602 25.5 11.499s18.666 3.5 27.999 3.5
c13.333 0 25.5 -3.5 36.5 -10.5s21.833 -16.167 32.5 -27.5c10.667 -12 20 -20 28 -24s16.667 -6 26 -6c5.33301 0 11.5 0.833008 18.5 2.5s13.833 4.5 20.5 8.5s12.5 9.5 17.5 16.5s8.16699 16.167 9.5 27.5c2 -0.666992 4.16699 -1 6.5 -1s4.5 -0.333008 6.5 -1
c-0.666992 -12 -3.66699 -22.333 -9 -31s-11.833 -15.667 -19.5 -21s-16.167 -9.16602 -25.5 -11.499s-18.666 -3.5 -27.999 -3.5c-13.333 0 -25.5 3.5 -36.5 10.5s-21.833 16.167 -32.5 27.5z" />
    <glyph glyph-name="utilde" unicode="&#x169;" horiz-adv-x="440" 
d="M364 0l-9.99805 0.000976562l-1 98c-13.333 -32 -34.833 -57.5 -64.5 -76.5s-63.167 -28.5 -100.5 -28.5c-35.333 0 -63.166 10.333 -83.499 31s-31.166 47.667 -32.499 81v270h14v-277c1.33301 -24 10.166 -44.833 26.499 -62.5s39.166 -27.167 68.499 -28.5
c22.667 0 44.167 3.66699 64.5 11s38.166 17.5 53.499 30.5s27.666 28.667 36.999 47s14 38.166 14 59.499v220h14v-375zM216.002 485.001c-10.667 12 -20 20 -28 24s-16.667 6 -26 6c-5.33301 0 -11.5 -0.833008 -18.5 -2.5s-13.833 -4.5 -20.5 -8.5
s-12.5 -9.5 -17.5 -16.5s-8.16699 -16.167 -9.5 -27.5c-2 0.666992 -4.16699 1 -6.5 1s-4.5 0.333008 -6.5 1c0.666992 12 3.66699 22.333 9 31s11.833 15.667 19.5 21s16.167 9.16602 25.5 11.499s18.666 3.5 27.999 3.5c13.333 0 25.5 -3.5 36.5 -10.5
s21.833 -16.167 32.5 -27.5c10.667 -12 20 -20 28 -24s16.667 -6 26 -6c5.33301 0 11.5 0.833008 18.5 2.5s13.833 4.5 20.5 8.5s12.5 9.5 17.5 16.5s8.16699 16.167 9.5 27.5c2 -0.666992 4.16699 -1 6.5 -1s4.5 -0.333008 6.5 -1c-0.666992 -12 -3.66699 -22.333 -9 -31
s-11.833 -15.667 -19.5 -21s-16.167 -9.16602 -25.5 -11.499s-18.666 -3.5 -27.999 -3.5c-13.333 0 -25.5 3.5 -36.5 10.5s-21.833 16.167 -32.5 27.5z" />
    <glyph glyph-name="Umacron" unicode="&#x16a;" horiz-adv-x="669" 
d="M335 -8c-32 0 -61.834 5 -89.501 15s-51.5 24.833 -71.5 44.5s-35.667 44.167 -47 73.5s-17 63 -17 101v474h14v-471c0 -36 5.16699 -67.833 15.5 -95.5s24.833 -51 43.5 -70s41 -33.333 67 -43s54.333 -14.5 85 -14.5c30 0 58 4.83301 84 14.5s48.333 24 67 43
s33.334 42.333 44.001 70s16 59.5 16 95.5v471h14v-474c0 -38 -5.83301 -71.667 -17.5 -101s-27.5 -53.833 -47.5 -73.5s-43.667 -34.5 -71 -44.5s-57 -15 -89 -15zM234.999 752v14h230v-14h-230z" />
    <glyph glyph-name="umacron" unicode="&#x16b;" horiz-adv-x="440" 
d="M364 0l-9.99805 0.000976562l-1 98c-13.333 -32 -34.833 -57.5 -64.5 -76.5s-63.167 -28.5 -100.5 -28.5c-35.333 0 -63.166 10.333 -83.499 31s-31.166 47.667 -32.499 81v270h14v-277c1.33301 -24 10.166 -44.833 26.499 -62.5s39.166 -27.167 68.499 -28.5
c22.667 0 44.167 3.66699 64.5 11s38.166 17.5 53.499 30.5s27.666 28.667 36.999 47s14 38.166 14 59.499v220h14v-375zM103.002 492.001v14h230v-14h-230z" />
    <glyph glyph-name="Ubreve" unicode="&#x16c;" horiz-adv-x="669" 
d="M335 -8c-32 0 -61.834 5 -89.501 15s-51.5 24.833 -71.5 44.5s-35.667 44.167 -47 73.5s-17 63 -17 101v474h14v-471c0 -36 5.16699 -67.833 15.5 -95.5s24.833 -51 43.5 -70s41 -33.333 67 -43s54.333 -14.5 85 -14.5c30 0 58 4.83301 84 14.5s48.333 24 67 43
s33.334 42.333 44.001 70s16 59.5 16 95.5v471h14v-474c0 -38 -5.83301 -71.667 -17.5 -101s-27.5 -53.833 -47.5 -73.5s-43.667 -34.5 -71 -44.5s-57 -15 -89 -15zM343.999 749c-22 0 -42.8311 4 -62.498 12s-36.834 19 -51.501 33s-26.334 30.667 -35.001 50
s-13.334 40 -14.001 62h15c0.666992 -19.333 4.83398 -37.5 12.501 -54.5s18 -32.167 31 -45.5s28.333 -23.833 46 -31.5s37.167 -11.5 58.5 -11.5s40.833 3.83301 58.5 11.5s32.834 18.167 45.501 31.5s22.5 28.5 29.5 45.5s10.833 35.167 11.5 54.5h16
c0 -22 -4.33301 -42.667 -13 -62s-20.334 -36 -35.001 -50s-31.667 -25 -51 -33s-40 -12 -62 -12z" />
    <glyph glyph-name="ubreve" unicode="&#x16d;" horiz-adv-x="440" 
d="M364 0l-9.99805 0.000976562l-1 98c-13.333 -32 -34.833 -57.5 -64.5 -76.5s-63.167 -28.5 -100.5 -28.5c-35.333 0 -63.166 10.333 -83.499 31s-31.166 47.667 -32.499 81v270h14v-277c1.33301 -24 10.166 -44.833 26.499 -62.5s39.166 -27.167 68.499 -28.5
c22.667 0 44.167 3.66699 64.5 11s38.166 17.5 53.499 30.5s27.666 28.667 36.999 47s14 38.166 14 59.499v220h14v-375zM219.002 500.001c-22 0 -42.8311 4 -62.498 12s-36.834 19 -51.501 33s-26.334 30.667 -35.001 50s-13.334 40 -14.001 62h15
c0.666992 -19.333 4.83398 -37.5 12.501 -54.5s18 -32.167 31 -45.5s28.333 -23.833 46 -31.5s37.167 -11.5 58.5 -11.5s40.833 3.83301 58.5 11.5s32.834 18.167 45.501 31.5s22.5 28.5 29.5 45.5s10.833 35.167 11.5 54.5h16c0 -22 -4.33301 -42.667 -13 -62
s-20.334 -36 -35.001 -50s-31.667 -25 -51 -33s-40 -12 -62 -12z" />
    <glyph glyph-name="Uring" unicode="&#x16e;" horiz-adv-x="669" 
d="M292 813c0 -13.333 4.83301 -24.833 14.5 -34.5s21.167 -14.5 34.5 -14.5s24.833 4.83301 34.5 14.5s14.5 21.167 14.5 34.5s-4.83301 24.833 -14.5 34.5s-21.167 14.5 -34.5 14.5s-24.833 -4.83301 -34.5 -14.5s-14.5 -21.167 -14.5 -34.5zM278 813c0 18 6 33 18 45
s27 18 45 18s33 -6 45 -18s18 -27 18 -45s-6 -33 -18 -45s-27 -18 -45 -18s-33 6 -45 18s-18 27 -18 45zM335 -8c-32 0 -61.834 5 -89.501 15s-51.5 24.833 -71.5 44.5s-35.667 44.167 -47 73.5s-17 63 -17 101v474h14v-471c0 -36 5.16699 -67.833 15.5 -95.5
s24.833 -51 43.5 -70s41 -33.333 67 -43s54.333 -14.5 85 -14.5c30 0 58 4.83301 84 14.5s48.333 24 67 43s33.334 42.333 44.001 70s16 59.5 16 95.5v471h14v-474c0 -38 -5.83301 -71.667 -17.5 -101s-27.5 -53.833 -47.5 -73.5s-43.667 -34.5 -71 -44.5s-57 -15 -89 -15z
" />
    <glyph glyph-name="uring" unicode="&#x16f;" horiz-adv-x="440" 
d="M174 469c0 -13.333 4.83301 -24.833 14.5 -34.5s21.167 -14.5 34.5 -14.5s24.833 4.83301 34.5 14.5s14.5 21.167 14.5 34.5s-4.83301 24.833 -14.5 34.5s-21.167 14.5 -34.5 14.5s-24.833 -4.83301 -34.5 -14.5s-14.5 -21.167 -14.5 -34.5zM160 469c0 18 6 33 18 45
s27 18 45 18s33 -6 45 -18s18 -27 18 -45s-6 -33 -18 -45s-27 -18 -45 -18s-33 6 -45 18s-18 27 -18 45zM364 0l-9.99805 0.000976562l-1 98c-13.333 -32 -34.833 -57.5 -64.5 -76.5s-63.167 -28.5 -100.5 -28.5c-35.333 0 -63.166 10.333 -83.499 31
s-31.166 47.667 -32.499 81v270h14v-277c1.33301 -24 10.166 -44.833 26.499 -62.5s39.166 -27.167 68.499 -28.5c22.667 0 44.167 3.66699 64.5 11s38.166 17.5 53.499 30.5s27.666 28.667 36.999 47s14 38.166 14 59.499v220h14v-375z" />
    <glyph glyph-name="Uhungarumlaut" unicode="&#x170;" horiz-adv-x="669" 
d="M335 -8c-32 0 -61.834 5 -89.501 15s-51.5 24.833 -71.5 44.5s-35.667 44.167 -47 73.5s-17 63 -17 101v474h14v-471c0 -36 5.16699 -67.833 15.5 -95.5s24.833 -51 43.5 -70s41 -33.333 67 -43s54.333 -14.5 85 -14.5c30 0 58 4.83301 84 14.5s48.333 24 67 43
s33.334 42.333 44.001 70s16 59.5 16 95.5v471h14v-474c0 -38 -5.83301 -71.667 -17.5 -101s-27.5 -53.833 -47.5 -73.5s-43.667 -34.5 -71 -44.5s-57 -15 -89 -15zM205.999 750l45 66.5l45 66.5h16l-45 -66.5l-45 -66.5h-16zM423.999 750l45 66.5l45 66.5h16l-45 -66.5
l-45 -66.5h-16z" />
    <glyph glyph-name="uhungarumlaut" unicode="&#x171;" horiz-adv-x="440" 
d="M364 0l-9.99805 0.000976562l-1 98c-13.333 -32 -34.833 -57.5 -64.5 -76.5s-63.167 -28.5 -100.5 -28.5c-35.333 0 -63.166 10.333 -83.499 31s-31.166 47.667 -32.499 81v270h14v-277c1.33301 -24 10.166 -44.833 26.499 -62.5s39.166 -27.167 68.499 -28.5
c22.667 0 44.167 3.66699 64.5 11s38.166 17.5 53.499 30.5s27.666 28.667 36.999 47s14 38.166 14 59.499v220h14v-375zM96.002 479.001l45 66.5l45 66.5h16l-45 -66.5l-45 -66.5h-16zM314.002 479.001l45 66.5l45 66.5h16l-45 -66.5l-45 -66.5h-16z" />
    <glyph glyph-name="Uogonek" unicode="&#x172;" horiz-adv-x="669" 
d="M335 -8c-32 0 -61.834 5 -89.501 15s-51.5 24.833 -71.5 44.5s-35.667 44.167 -47 73.5s-17 63 -17 101v474h14v-471c0 -36 5.16699 -67.833 15.5 -95.5s24.833 -51 43.5 -70s41 -33.333 67 -43s54.333 -14.5 85 -14.5c30 0 58 4.83301 84 14.5s48.333 24 67 43
s33.334 42.333 44.001 70s16 59.5 16 95.5v471h14v-474c0 -38 -5.83301 -71.667 -17.5 -101s-27.5 -53.833 -47.5 -73.5s-43.667 -34.5 -71 -44.5s-57 -15 -89 -15zM371.999 0l-14 -0.00292969v-6c0 -17.333 -4.66699 -29.5 -14 -36.5s-18.333 -13.167 -27 -18.5
c-15.333 -10 -26.166 -21.167 -32.499 -33.5s-9.5 -23.166 -9.5 -32.499c0 -34 8.5 -58.5 25.5 -73.5s36.5 -22.5 58.5 -22.5c17.333 0 33.5 4.83301 48.5 14.5s25.833 24.167 32.5 43.5c-2.66699 0.666992 -5.16699 1.33398 -7.5 2.00098s-4.83301 1.33398 -7.5 2.00098
c-4 -14 -11.833 -25.5 -23.5 -34.5s-25.834 -13.5 -42.501 -13.5c-20.667 0 -37.5 6.83301 -50.5 20.5s-19.5 30.834 -19.5 51.501c0 18.667 4.33301 33 13 43s18.167 18.5 28.5 25.5s19.833 14.167 28.5 21.5s13 17.666 13 30.999v16z" />
    <glyph glyph-name="uogonek" unicode="&#x173;" horiz-adv-x="440" 
d="M364 0l-9.99805 0.000976562l-1 98c-13.333 -32 -34.833 -57.5 -64.5 -76.5s-63.167 -28.5 -100.5 -28.5c-35.333 0 -63.166 10.333 -83.499 31s-31.166 47.667 -32.499 81v270h14v-277c1.33301 -24 10.166 -44.833 26.499 -62.5s39.166 -27.167 68.499 -28.5
c22.667 0 44.167 3.66699 64.5 11s38.166 17.5 53.499 30.5s27.666 28.667 36.999 47s14 38.166 14 59.499v220h14v-375zM364.002 0.000976562l-14 -0.00292969v-6c0 -17.333 -4.66699 -29.5 -14 -36.5s-18.333 -13.167 -27 -18.5
c-15.333 -10 -26.166 -21.167 -32.499 -33.5s-9.5 -23.166 -9.5 -32.499c0 -34 8.5 -58.5 25.5 -73.5s36.5 -22.5 58.5 -22.5c17.333 0 33.5 4.83301 48.5 14.5s25.833 24.167 32.5 43.5c-2.66699 0.666992 -5.16699 1.33398 -7.5 2.00098s-4.83301 1.33398 -7.5 2.00098
c-4 -14 -11.833 -25.5 -23.5 -34.5s-25.834 -13.5 -42.501 -13.5c-20.667 0 -37.5 6.83301 -50.5 20.5s-19.5 30.834 -19.5 51.501c0 18.667 4.33301 33 13 43s18.167 18.5 28.5 25.5s19.833 14.167 28.5 21.5s13 17.666 13 30.999v16z" />
    <glyph glyph-name="Ydieresis" unicode="&#x178;" horiz-adv-x="594" 
d="M304 262v-262h-14v262l-131.5 219l-131.5 219h17l121 -200.5l120 -201.5l13 -26l5.5 13l5.5 13l240 402h17zM359 790c0 5.33301 2 10 6 14s8.66699 6 14 6s10 -2 14 -6s6 -8.66699 6 -14s-2 -10 -6 -14s-8.66699 -6 -14 -6s-10 2 -14 6s-6 8.66699 -6 14zM194 790
c0 5.33301 2 10 6 14s8.66699 6 14 6s10 -2 14 -6s6 -8.66699 6 -14s-2 -10 -6 -14s-8.66699 -6 -14 -6s-10 2 -14 6s-6 8.66699 -6 14z" />
    <glyph glyph-name="Zacute" unicode="&#x179;" horiz-adv-x="627" 
d="M92 700l475.002 0.000976562l-518 -686h551v-14h-576l257.5 348.5l257.5 337.5h-433c-20.667 0 -35.834 2.66699 -45.501 8s-14.5 17.666 -14.5 36.999v4h16v-12c0 -6 2.16699 -11.333 6.5 -16s12.166 -7 23.499 -7zM311.002 750.001l45 66.5l45 66.5h16l-45 -66.5
l-45 -66.5h-16z" />
    <glyph glyph-name="zacute" unicode="&#x17a;" horiz-adv-x="352" 
d="M315 0l-278.998 0.000976562l260 361h-207c-20.667 0 -35.834 2.66699 -45.501 8s-14.5 17.666 -14.5 36.999v4h13v-12c0 -6 2.66699 -11.333 8 -16s13.666 -7 24.999 -7h245l-260 -361h255v-14zM150.002 479.001l45 66.5l45 66.5h16l-45 -66.5l-45 -66.5h-16z" />
    <glyph glyph-name="Zdotaccent" unicode="&#x17b;" horiz-adv-x="627" 
d="M92 700l475.002 0.000976562l-518 -686h551v-14h-576l257.5 348.5l257.5 337.5h-433c-20.667 0 -35.834 2.66699 -45.501 8s-14.5 17.666 -14.5 36.999v4h16v-12c0 -6 2.16699 -11.333 6.5 -16s12.166 -7 23.499 -7zM300.002 757.001c0 5.33301 2 10 6 14s8.66699 6 14 6
s10 -2 14 -6s6 -8.66699 6 -14s-2 -10 -6 -14s-8.66699 -6 -14 -6s-10 2 -14 6s-6 8.66699 -6 14z" />
    <glyph glyph-name="zdotaccent" unicode="&#x17c;" horiz-adv-x="352" 
d="M315 0l-278.998 0.000976562l260 361h-207c-20.667 0 -35.834 2.66699 -45.501 8s-14.5 17.666 -14.5 36.999v4h13v-12c0 -6 2.66699 -11.333 8 -16s13.666 -7 24.999 -7h245l-260 -361h255v-14zM143.002 500.001c0 5.33301 2 10 6 14s8.66699 6 14 6s10 -2 14 -6
s6 -8.66699 6 -14s-2 -10 -6 -14s-8.66699 -6 -14 -6s-10 2 -14 6s-6 8.66699 -6 14z" />
    <glyph glyph-name="Zcaron" unicode="&#x17d;" horiz-adv-x="627" 
d="M92 700l475.002 0.000976562l-518 -686h551v-14h-576l257.5 348.5l257.5 337.5h-433c-20.667 0 -35.834 2.66699 -45.501 8s-14.5 17.666 -14.5 36.999v4h16v-12c0 -6 2.16699 -11.333 6.5 -16s12.166 -7 23.499 -7zM316.002 729.001l-60 90.5l-60 90.5h16l52 -77l52 -77
l52 77l52 77h16l-60 -90.5z" />
    <glyph glyph-name="zcaron" unicode="&#x17e;" horiz-adv-x="352" 
d="M315 0l-278.998 0.000976562l260 361h-207c-20.667 0 -35.834 2.66699 -45.501 8s-14.5 17.666 -14.5 36.999v4h13v-12c0 -6 2.66699 -11.333 8 -16s13.666 -7 24.999 -7h245l-260 -361h255v-14zM183.002 479.001l-60 90.5l-60 90.5h16l52 -77l52 -77l52 77l52 77h16
l-60 -90.5z" />
    <glyph glyph-name="florin" unicode="&#x192;" horiz-adv-x="287" 
d="M124 358v-299c0 -37.333 -4.83301 -70.166 -14.5 -98.499s-23 -52.166 -40 -71.499s-36.667 -34.333 -59 -45s-46.166 -16.334 -71.499 -17.001v14c22.667 0 44.334 5 65.001 15s38.834 24.333 54.501 43s28.167 41.167 37.5 67.5s14 55.833 14 88.5v303h-65v14h65v146
c0 36.667 4.83301 69.334 14.5 98.001s23 52.667 40 72s36.667 34.166 59 44.499s46.166 16.166 71.499 17.499v-14c-22.667 0 -44.334 -5 -65.001 -15s-38.834 -24.333 -54.501 -43s-28.167 -41.167 -37.5 -67.5s-14 -55.833 -14 -88.5v-150h130v-14h-130z" />
    <glyph glyph-name="circumflex" unicode="&#x2c6;" horiz-adv-x="450" 
d="M232 660l60 -90.5l60 -90.5h-16l-52 77l-52 77l-52 -77l-52 -77h-16l60 90.5z" />
    <glyph glyph-name="caron" unicode="&#x2c7;" horiz-adv-x="445" 
d="M232 479l-60 90.5l-60 90.5h16l52 -77l52 -77l52 77l52 77h16l-60 -90.5z" />
    <glyph glyph-name="breve" unicode="&#x2d8;" horiz-adv-x="509" 
d="M263 500c-22 0 -42.8311 4 -62.498 12s-36.834 19 -51.501 33s-26.334 30.667 -35.001 50s-13.334 40 -14.001 62h15c0.666992 -19.333 4.83398 -37.5 12.501 -54.5s18 -32.167 31 -45.5s28.333 -23.833 46 -31.5s37.167 -11.5 58.5 -11.5s40.833 3.83301 58.5 11.5
s32.834 18.167 45.501 31.5s22.5 28.5 29.5 45.5s10.833 35.167 11.5 54.5h16c0 -22 -4.33301 -42.667 -13 -62s-20.334 -36 -35.001 -50s-31.667 -25 -51 -33s-40 -12 -62 -12z" />
    <glyph glyph-name="dotaccent" unicode="&#x2d9;" horiz-adv-x="185" 
d="M67 500c0 5.33301 2 10 6 14s8.66699 6 14 6s10 -2 14 -6s6 -8.66699 6 -14s-2 -10 -6 -14s-8.66699 -6 -14 -6s-10 2 -14 6s-6 8.66699 -6 14z" />
    <glyph glyph-name="ring" unicode="&#x2da;" horiz-adv-x="423" 
d="M182 469c0 -13.333 4.83301 -24.833 14.5 -34.5s21.167 -14.5 34.5 -14.5s24.833 4.83301 34.5 14.5s14.5 21.167 14.5 34.5s-4.83301 24.833 -14.5 34.5s-21.167 14.5 -34.5 14.5s-24.833 -4.83301 -34.5 -14.5s-14.5 -21.167 -14.5 -34.5zM168 469c0 18 6 33 18 45
s27 18 45 18s33 -6 45 -18s18 -27 18 -45s-6 -33 -18 -45s-27 -18 -45 -18s-33 6 -45 18s-18 27 -18 45z" />
    <glyph glyph-name="ogonek" unicode="&#x2db;" horiz-adv-x="833" 
d="M222 -16c0 -13.333 -4.33301 -23.6631 -13 -30.9961s-18.167 -14.5 -28.5 -21.5s-19.833 -15.5 -28.5 -25.5s-13 -24.333 -13 -43c0 -20.667 6.5 -37.834 19.5 -51.501s29.833 -20.5 50.5 -20.5c16.667 0 30.834 4.5 42.501 13.5s19.5 20.5 23.5 34.5
c2.66699 -0.666992 5.16699 -1.33398 7.5 -2.00098s4.83301 -1.33398 7.5 -2.00098c-6.66699 -19.333 -17.5 -33.833 -32.5 -43.5s-31.167 -14.5 -48.5 -14.5c-22 0 -41.5 7.5 -58.5 22.5s-25.5 39.5 -25.5 73.5c0 9.33301 3.16699 20.166 9.5 32.499
s17.166 23.5 32.499 33.5c8.66699 5.33301 17.667 11.5 27 18.5s14 19.167 14 36.5v6h14v-16z" />
    <glyph glyph-name="tilde" unicode="&#x2dc;" horiz-adv-x="593" 
d="M304 485c-10.667 12 -20 20 -28 24s-16.667 6 -26 6c-5.33301 0 -11.5 -0.833008 -18.5 -2.5s-13.833 -4.5 -20.5 -8.5s-12.5 -9.5 -17.5 -16.5s-8.16699 -16.167 -9.5 -27.5c-2 0.666992 -4.16699 1 -6.5 1s-4.5 0.333008 -6.5 1c0.666992 12 3.66699 22.333 9 31
s11.833 15.667 19.5 21s16.167 9.16602 25.5 11.499s18.666 3.5 27.999 3.5c13.333 0 25.5 -3.5 36.5 -10.5s21.833 -16.167 32.5 -27.5c10.667 -12 20 -20 28 -24s16.667 -6 26 -6c5.33301 0 11.5 0.833008 18.5 2.5s13.833 4.5 20.5 8.5s12.5 9.5 17.5 16.5
s8.16699 16.167 9.5 27.5c2 -0.666992 4.16699 -1 6.5 -1s4.5 -0.333008 6.5 -1c-0.666992 -12 -3.66699 -22.333 -9 -31s-11.833 -15.667 -19.5 -21s-16.167 -9.16602 -25.5 -11.499s-18.666 -3.5 -27.999 -3.5c-13.333 0 -25.5 3.5 -36.5 10.5s-21.833 16.167 -32.5 27.5z
" />
    <glyph glyph-name="hungarumlaut" unicode="&#x2dd;" horiz-adv-x="436" 
d="M100 479l45 66.5l45 66.5h16l-45 -66.5l-45 -66.5h-16zM318 479l45 66.5l45 66.5h16l-45 -66.5l-45 -66.5h-16z" />
    <glyph glyph-name="pi" unicode="&#x3c0;" horiz-adv-x="342" 
d="M100 306v-306h-14v306h-51v14h266v-14h-38v-306h-14v306h-149z" />
    <glyph glyph-name="Etilde" unicode="&#x1ebc;" horiz-adv-x="608" 
d="M119 0v700h415v-14h-401v-326h362v-14h-362v-332h415v-14h-429zM342 790c-10.667 12 -20 20 -28 24s-16.667 6 -26 6c-5.33301 0 -11.5 -0.833008 -18.5 -2.5s-13.833 -4.5 -20.5 -8.5s-12.5 -9.5 -17.5 -16.5s-8.16699 -16.167 -9.5 -27.5
c-2 0.666992 -4.16699 1 -6.5 1s-4.5 0.333008 -6.5 1c0.666992 12 3.66699 22.333 9 31s11.833 15.667 19.5 21s16.167 9.16602 25.5 11.499s18.666 3.5 27.999 3.5c13.333 0 25.5 -3.5 36.5 -10.5s21.833 -16.167 32.5 -27.5c10.667 -12 20 -20 28 -24s16.667 -6 26 -6
c5.33301 0 11.5 0.833008 18.5 2.5s13.833 4.5 20.5 8.5s12.5 9.5 17.5 16.5s8.16699 16.167 9.5 27.5c2 -0.666992 4.16699 -1 6.5 -1s4.5 -0.333008 6.5 -1c-0.666992 -12 -3.66699 -22.333 -9 -31s-11.833 -15.667 -19.5 -21s-16.167 -9.16602 -25.5 -11.499
s-18.666 -3.5 -27.999 -3.5c-13.333 0 -25.5 3.5 -36.5 10.5s-21.833 16.167 -32.5 27.5z" />
    <glyph glyph-name="endash" unicode="&#x2013;" horiz-adv-x="435" 
d="M67 179v14h301v-14h-301z" />
    <glyph glyph-name="emdash" unicode="&#x2014;" horiz-adv-x="636" 
d="M67 179v14h502v-14h-502z" />
    <glyph glyph-name="quoteleft" unicode="&#x2018;" horiz-adv-x="185" 
d="M119 590l-6 -17.999c-19.333 17.333 -33.166 38.166 -41.499 62.499s-9.83301 49.833 -4.5 76.5c3.33301 -1.33301 6.5 -2.5 9.5 -3.5s6.16699 -2.16699 9.5 -3.5c-4.66699 -23.333 -3.83398 -44.833 2.49902 -64.5s16.5 -36.167 30.5 -49.5z" />
    <glyph glyph-name="quoteright" unicode="&#x2019;" horiz-adv-x="184" 
d="M72 572l-6 17.999c14 13.333 24.167 29.833 30.5 49.5s7.16602 41.167 2.49902 64.5c3.33301 1.33301 6.5 2.5 9.5 3.5s6.16699 2.16699 9.5 3.5c5.33301 -26.667 3.83301 -52.167 -4.5 -76.5s-22.166 -45.166 -41.499 -62.499z" />
    <glyph glyph-name="quotesinglbase" unicode="&#x201a;" horiz-adv-x="214" 
d="M74 -47l-6 17.999c14 13.333 24.167 29.833 30.5 49.5s7.16602 41.167 2.49902 64.5c3.33301 1.33301 6.5 2.5 9.5 3.5s6.16699 2.16699 9.5 3.5c5.33301 -26.667 3.83301 -52.167 -4.5 -76.5s-22.166 -45.166 -41.499 -62.499z" />
    <glyph glyph-name="quotedblleft" unicode="&#x201c;" horiz-adv-x="289" 
d="M222 590l-6 -17.999c-19.333 17.333 -33.166 38.166 -41.499 62.499s-9.83301 49.833 -4.5 76.5c3.33301 -1.33301 6.5 -2.5 9.5 -3.5s6.16699 -2.16699 9.5 -3.5c-4.66699 -23.333 -3.83398 -44.833 2.49902 -64.5s16.5 -36.167 30.5 -49.5zM118 590.001l-6 -17.999
c-19.333 17.333 -33.166 38.166 -41.499 62.499s-9.83301 49.833 -4.5 76.5c3.33301 -1.33301 6.5 -2.5 9.5 -3.5s6.16699 -2.16699 9.5 -3.5c-4.66699 -23.333 -3.83398 -44.833 2.49902 -64.5s16.5 -36.167 30.5 -49.5z" />
    <glyph glyph-name="quotedblright" unicode="&#x201d;" horiz-adv-x="290" 
d="M73 572l-6 17.999c14 13.333 24.167 29.833 30.5 49.5s7.16602 41.167 2.49902 64.5c3.33301 1.33301 6.5 2.5 9.5 3.5s6.16699 2.16699 9.5 3.5c5.33301 -26.667 3.83301 -52.167 -4.5 -76.5s-22.166 -45.166 -41.499 -62.499zM177 571.999l-6 17.999
c14 13.333 24.167 29.833 30.5 49.5s7.16602 41.167 2.49902 64.5c3.33301 1.33301 6.5 2.5 9.5 3.5s6.16699 2.16699 9.5 3.5c5.33301 -26.667 3.83301 -52.167 -4.5 -76.5s-22.166 -45.166 -41.499 -62.499z" />
    <glyph glyph-name="quotedblbase" unicode="&#x201e;" horiz-adv-x="318" 
d="M74 -47l-6 17.999c14 13.333 24.167 29.833 30.5 49.5s7.16602 41.167 2.49902 64.5c3.33301 1.33301 6.5 2.5 9.5 3.5s6.16699 2.16699 9.5 3.5c5.33301 -26.667 3.83301 -52.167 -4.5 -76.5s-22.166 -45.166 -41.499 -62.499zM178 -47.001l-6 17.999
c14 13.333 24.167 29.833 30.5 49.5s7.16602 41.167 2.49902 64.5c3.33301 1.33301 6.5 2.5 9.5 3.5s6.16699 2.16699 9.5 3.5c5.33301 -26.667 3.83301 -52.167 -4.5 -76.5s-22.166 -45.166 -41.499 -62.499z" />
    <glyph glyph-name="dagger" unicode="&#x2020;" horiz-adv-x="328" 
d="M157 73v498h14v-498h-14zM72 424v14h184v-14h-184z" />
    <glyph glyph-name="daggerdbl" unicode="&#x2021;" horiz-adv-x="414" 
d="M358 294v-14h-301v14h301zM200 73v498h14v-498h-14zM115 424v14h184v-14h-184z" />
    </font>
</defs>
</svg>
